<?xml version="1.0" standalone="no"?>
<!DOCTYPE svg PUBLIC "-//W3C//DTD SVG 1.1//EN" "http://www.w3.org/Graphics/SVG/1.1/DTD/svg11.dtd" >
<svg>
<metadata>
Created by FontForge 20090622 at Tue Aug 30 15:24:13 2016
 By deploy user
&#194;&#169; 2006 The Monotype Corporation. All Rights Reserved.
</metadata>
<defs>
<font id="ArialNarrow-Bold" horiz-adv-x="934" >
  <font-face 
    font-family="Arial Narrow"
    font-weight="700"
    font-stretch="condensed"
    units-per-em="2048"
    panose-1="2 11 7 6 2 2 2 3 2 4"
    ascent="1638"
    descent="-410"
    x-height="1062"
    cap-height="1466"
    bbox="-281 -628 2047 2271"
    underline-thickness="150"
    underline-position="-142"
    unicode-range="U+0020-U+FB02"
  />
<missing-glyph horiz-adv-x="467" 
d="M44 0v1280h389v-1280h-389zM91 53h296v1184h-296v-1184z" />
    <glyph glyph-name=".notdef" horiz-adv-x="467" 
d="M44 0v1280h389v-1280h-389zM91 53h296v1184h-296v-1184z" />
    <glyph glyph-name=".null" horiz-adv-x="0" 
 />
    <glyph glyph-name="nonmarkingreturn" horiz-adv-x="467" 
 />
    <glyph glyph-name="space" unicode=" " horiz-adv-x="467" 
 />
    <glyph glyph-name="exclam" unicode="!" horiz-adv-x="559" 
d="M210 378l-60 744v344h249v-344l-59 -744h-130zM160 0v281h230v-281h-230z" />
    <glyph glyph-name="quotedbl" unicode="&#x22;" horiz-adv-x="797" 
d="M135 945l-43 273v248h251v-248l-38 -273h-170zM506 945l-44 273v248h251v-248l-38 -273h-169z" />
    <glyph glyph-name="numbersign" unicode="#" 
d="M126 365h-111v220h148l49 295h-197v221h234l64 390h184l-64 -390h180l64 390h190l-66 -390h114v-221h-150l-50 -295h200v-220h-236l-66 -390h-183l64 390h-182l-65 -390h-185zM396 880l-48 -295h182l48 295h-182z" />
    <glyph glyph-name="dollar" unicode="$" 
d="M402 217v419q-311 108 -311 445q0 172 87.5 280t223.5 124v99h118v-99q127 -19 206 -106.5t100 -241.5l-207 -33q-19 119 -99 160v-391q191 -63 259 -155q81 -110 81 -279q0 -188 -92 -309t-248 -148v-187h-118v182q-295 43 -344 434l214 28q13 -79 49 -137.5t81 -84.5z
M402 1267q-46 -19 -76 -66t-30 -104q0 -120 106 -176v346zM520 203q60 13 99.5 67.5t39.5 131.5q0 142 -139 191v-390z" />
    <glyph glyph-name="percent" unicode="%" horiz-adv-x="1493" 
d="M73 1104q0 201 72 294t191 93q123 0 195 -93t72 -294t-72 -294t-191 -93q-122 0 -194.5 92.5t-72.5 294.5zM253 1106q0 -140 23 -184t60 -44q38 0 61 44t23 184t-23 184t-60 44q-38 0 -61 -44t-23 -184zM512 -56h-171l641 1547h165zM884 329q0 201 72.5 294t192.5 93
q121 0 193 -93t72 -294t-72 -294.5t-191 -93.5q-122 0 -194.5 93t-72.5 295zM1064 330q0 -140 22.5 -184t60.5 -44t61 44t23 184t-23 184t-60 44q-39 0 -61.5 -44t-22.5 -184z" />
    <glyph glyph-name="ampersand" unicode="&#x26;" horiz-adv-x="1212" 
d="M1186 179l-140 -217q-102 60 -197 168q-75 -83 -157.5 -119.5t-191.5 -36.5q-217 0 -321.5 132t-104.5 296q0 283 274 449q-123 176 -123 322q0 141 92 229.5t244 88.5q147 0 239.5 -92.5t92.5 -240.5q0 -95 -46.5 -174.5t-172.5 -176.5l167 -269q28 62 51 167l208 -58
q-48 -214 -104 -302q38 -43 99.5 -96t90.5 -70zM559 976l62 58q69 65 69 128q0 58 -35 94.5t-88 36.5q-52 0 -84.5 -32t-32.5 -78q0 -53 52 -127zM468 671q-77 -48 -117.5 -116.5t-40.5 -143.5q0 -94 50.5 -149.5t129.5 -55.5q103 0 213 112z" />
    <glyph glyph-name="quotesingle" unicode="'" horiz-adv-x="399" 
d="M118 945l-43 273v248h251v-248l-38 -273h-170z" />
    <glyph glyph-name="parenleft" unicode="(" horiz-adv-x="559" 
d="M502 -431h-158q-124 225 -190.5 476.5t-66.5 487.5q0 255 67 497.5t193 460.5h157q-115 -312 -155.5 -522t-40.5 -444q0 -242 57 -512q40 -190 137 -444z" />
    <glyph glyph-name="parenright" unicode=")" horiz-adv-x="559" 
d="M57 -431q97 252 136 439q58 272 58 517q0 234 -40.5 444t-155.5 522h157q129 -226 194.5 -466t65.5 -479q0 -240 -65 -493.5t-192 -483.5h-158z" />
    <glyph glyph-name="asterisk" unicode="*" horiz-adv-x="653" 
d="M201 792l-124 117q39 54 76 99l79 94q-20 4 -118 33q-68 21 -91 31l48 176q104 -52 192 -117q-20 161 -19 266h145q0 -71 -22 -268l71 39q75 41 136 70l44 -181q-92 -25 -211 -49l145 -202l-125 -101l-112 223q-46 -103 -114 -230z" />
    <glyph glyph-name="plus" unicode="+" horiz-adv-x="981" 
d="M384 211v381h-315v263h315v381h210v-381h316v-263h-316v-381h-210z" />
    <glyph glyph-name="comma" unicode="," horiz-adv-x="467" 
d="M115 281h230v-201q0 -171 -40 -254q-49 -103 -164 -153l-45 116q68 28 98 75.5t32 135.5h-111v281z" />
    <glyph glyph-name="hyphen" unicode="-" horiz-adv-x="559" 
d="M53 391v281h453v-281h-453z" />
    <glyph glyph-name="hyphen" unicode="&#xad;" horiz-adv-x="559" 
d="M53 391v281h453v-281h-453z" />
    <glyph glyph-name="period" unicode="." horiz-adv-x="467" 
d="M121 0v281h231v-281h-231z" />
    <glyph glyph-name="slash" unicode="/" horiz-adv-x="467" 
d="M-2 -25l298 1516h173l-301 -1516h-170z" />
    <glyph glyph-name="zero" unicode="0" 
d="M461 1472q175 0 283 -166.5t108 -582.5q0 -415 -108 -581.5t-282 -166.5q-175 0 -283 165t-108 586q0 413 108 579.5t282 166.5zM461 1239q-68 0 -108.5 -90t-40.5 -426t40.5 -425.5t108.5 -89.5q69 0 109 90t40 425q0 336 -40 426t-109 90z" />
    <glyph glyph-name="one" unicode="1" 
d="M661 0h-230v1059q-129 -145 -298 -213v255q96 39 199 139.5t143 231.5h186v-1472z" />
    <glyph glyph-name="two" unicode="2" 
d="M850 261v-261h-808q13 148 79.5 281.5t258.5 350.5q152 173 187 234q52 89 52 179q0 96 -43 145t-113 49q-153 0 -165 -229l-229 28q21 224 124.5 329t275.5 105q189 0 285 -123t96 -282q0 -90 -24.5 -174.5t-75.5 -170t-170 -218.5q-111 -125 -140.5 -165t-47.5 -78h458
z" />
    <glyph glyph-name="three" unicode="3" 
d="M63 389l223 33q9 -104 57 -159t113 -55q71 0 120 65t49 180q0 107 -47 168t-114 61q-44 0 -105 -21l25 229q89 -2 141 48q51 50 51 141q0 76 -37 119t-95 43t-100.5 -49.5t-50.5 -146.5l-213 44q33 201 129 292t242 91q164 0 260.5 -117t96.5 -259q0 -96 -43.5 -173
t-130.5 -135q101 -27 164.5 -119t63.5 -230q0 -201 -119.5 -332.5t-284.5 -131.5q-158 0 -267.5 111t-127.5 303z" />
    <glyph glyph-name="four" unicode="4" 
d="M523 0v295h-492v246l521 931h194v-930h149v-247h-149v-295h-223zM523 542v501l-276 -501h276z" />
    <glyph glyph-name="five" unicode="5" 
d="M75 377l230 29q9 -96 59 -151t110 -55q71 0 122 70.5t51 216.5q0 138 -50.5 204t-128.5 66q-99 0 -178 -107l-187 33l118 763h609v-263h-434l-37 -249q78 47 158 47q142 0 241 -112q125 -143 125 -377q0 -193 -106.5 -355t-304.5 -162q-160 0 -267.5 104.5t-129.5 297.5z
" />
    <glyph glyph-name="six" unicode="6" 
d="M852 1107l-223 -30q-16 164 -131 164q-75 0 -124.5 -82t-62.5 -331q43 62 96 93t117 31q141 0 246 -131.5t105 -349.5q0 -232 -111 -364t-275 -132q-180 0 -298.5 171.5t-118.5 568.5q0 403 123 580t316 177q133 0 224.5 -90.5t116.5 -274.5zM331 494q0 -139 51.5 -212.5
t117.5 -73.5q64 0 106.5 61t42.5 200q0 144 -46 210t-114 66q-66 0 -112 -63t-46 -188z" />
    <glyph glyph-name="seven" unicode="7" 
d="M71 1185v261h788v-204q-97 -117 -196.5 -332.5t-154 -462t-54.5 -447.5h-222q8 312 104 623t259 562h-524z" />
    <glyph glyph-name="eight" unicode="8" 
d="M270 791q-85 44 -128 120t-43 183q0 173 98 275.5t264 102.5q176 0 268 -109.5t92 -266.5q0 -107 -44.5 -185.5t-121.5 -119.5q103 -50 154 -140.5t51 -222.5q0 -136 -50.5 -240t-139.5 -159t-200 -55q-174 0 -287.5 120.5t-113.5 324.5q0 132 52 227t149 145zM317 1074
q0 -86 40.5 -132t102.5 -46q63 0 104 46t41 132q0 83 -40.5 129t-101.5 46q-64 0 -105 -46.5t-41 -128.5zM296 446q0 -118 50 -182t120 -64t117.5 61t47.5 183q0 105 -48.5 166t-119.5 61q-70 0 -118.5 -61.5t-48.5 -163.5z" />
    <glyph glyph-name="nine" unicode="9" 
d="M76 339l223 30q16 -163 130 -163q77 0 126 81.5t63 330.5q-43 -61 -97 -92t-120 -31q-137 0 -242.5 131t-105.5 348q0 232 111 365t274 133q182 0 300 -171.5t118 -568.5q0 -404 -123 -581t-319 -177q-136 0 -224.5 89.5t-113.5 275.5zM598 953q0 138 -52 212t-118 74
q-64 0 -106.5 -61t-42.5 -203t46.5 -208t114.5 -66q65 0 111.5 63t46.5 189z" />
    <glyph glyph-name="colon" unicode=":" horiz-adv-x="559" 
d="M164 781v281h231v-281h-231zM164 0v281h231v-281h-231z" />
    <glyph glyph-name="semicolon" unicode=";" horiz-adv-x="559" 
d="M158 781v281h230v-281h-230zM158 281h230v-201q0 -171 -40 -254q-49 -103 -164 -153l-45 116q68 28 98 76.5t32 134.5h-111v281z" />
    <glyph glyph-name="semicolon" unicode="&#x37e;" horiz-adv-x="559" 
d="M158 781v281h230v-281h-230zM158 281h230v-201q0 -171 -40 -254q-49 -103 -164 -153l-45 116q68 28 98 76.5t32 134.5h-111v281z" />
    <glyph glyph-name="less" unicode="&#x3c;" horiz-adv-x="981" 
d="M902 167l-824 437v242l824 435v-285l-574 -268l574 -278v-283z" />
    <glyph glyph-name="equal" unicode="=" horiz-adv-x="981" 
d="M69 816v258h841v-258h-841zM69 372v259h841v-259h-841z" />
    <glyph glyph-name="greater" unicode="&#x3e;" horiz-adv-x="981" 
d="M77 166v283l576 276l-576 273v281l825 -435v-240z" />
    <glyph glyph-name="question" unicode="?" horiz-adv-x="1026" 
d="M616 378h-209l-1 64q0 129 34 209t132 176q109 108 131 148t22 93q0 87 -56.5 143t-142.5 56q-185 0 -228 -247l-211 32q9 188 129.5 308.5t302.5 120.5q185 0 308 -121t123 -302q0 -92 -43 -174.5t-185 -225.5q-73 -74 -90.5 -119t-15.5 -161zM407 0v281h231v-281h-231z
" />
    <glyph glyph-name="at" unicode="@" horiz-adv-x="1638" 
d="M1457 19h174q-87 -215 -271 -332.5t-451 -117.5q-272 0 -460.5 107t-293.5 313.5t-105 496.5q0 297 115 534t301.5 354.5t423.5 117.5q203 0 360.5 -94.5t248 -272t90.5 -404.5q0 -261 -137 -474q-159 -247 -406 -247q-66 0 -101 27t-48 87q-96 -114 -223 -114
q-132 0 -224 112t-92 305q0 190 71 355t167 238.5t207 73.5q73 0 127 -34t89 -102l20 111h216l-123 -717q-12 -69 -12 -90q0 -23 9.5 -35.5t22.5 -12.5q38 0 100 56q83 74 136 203t53 267q0 168 -72.5 304.5t-192 205t-289.5 68.5q-202 0 -352.5 -95.5t-243 -292.5
t-92.5 -451q0 -217 87 -383t238 -249.5t369 -83.5q196 0 337 66.5t227 199.5zM571 430q0 -129 43 -188t107 -59q56 0 103 42q61 54 105.5 184t44.5 262q0 113 -44 173t-107 60q-101 0 -164 -114q-88 -160 -88 -360z" />
    <glyph glyph-name="A" unicode="A" horiz-adv-x="1212" 
d="M1206 0h-264l-105 333h-480l-99 -333h-258l468 1466h257zM759 580l-165 544l-163 -544h328z" />
    <glyph glyph-name="B" unicode="B" horiz-adv-x="1212" 
d="M122 1466h481q197 0 277 -36t135 -127t55 -206q0 -106 -47 -191.5t-122 -126.5q107 -38 167.5 -130t60.5 -224q0 -160 -77 -270.5t-182 -136.5q-73 -18 -339 -18h-409v1466zM364 1222v-339h160q144 0 178 5q62 10 97 52.5t35 115.5q0 65 -28.5 105.5t-69 50.5t-232.5 10
h-140zM364 639v-392h225q148 0 190 15.5t70.5 61t28.5 115.5q0 72 -30.5 118.5t-81 64t-206.5 17.5h-196z" />
    <glyph glyph-name="C" unicode="C" horiz-adv-x="1212" 
d="M892 539l235 -91q-55 -246 -183 -359.5t-315 -113.5q-235 0 -381 181q-168 209 -168 564q0 375 169 587q147 184 395 184q202 0 338 -138q97 -98 142 -291l-240 -70q-23 119 -91.5 182.5t-161.5 63.5q-133 0 -217 -116t-84 -383q0 -277 82 -394t213 -117q96 0 166 74.5
t101 236.5z" />
    <glyph glyph-name="D" unicode="D" horiz-adv-x="1212" 
d="M121 1466h443q168 0 253.5 -37.5t157.5 -126.5t113 -231t41 -353q0 -190 -43 -330.5t-109 -222.5t-159.5 -123.5t-240.5 -41.5h-456v1466zM363 1218v-971h182q117 0 169.5 22t86 66.5t55.5 140.5t22 253q0 163 -22.5 257t-70 148t-115.5 71q-51 13 -197 13h-110z" />
    <glyph glyph-name="E" unicode="E" horiz-adv-x="1120" 
d="M123 0v1466h892v-248h-650v-325h604v-247h-604v-399h672v-247h-914z" />
    <glyph glyph-name="F" unicode="F" horiz-adv-x="1026" 
d="M124 0v1466h824v-248h-582v-347h503v-248h-503v-623h-242z" />
    <glyph glyph-name="G" unicode="G" horiz-adv-x="1307" 
d="M682 539v247h523v-584q-79 -93 -224 -160t-291 -67q-178 0 -314 87.5t-215.5 262t-79.5 410.5q0 242 80.5 414t209 257t307.5 85q215 0 344.5 -109.5t166.5 -321.5l-240 -55q-27 113 -99 173t-172 60q-155 0 -251 -120.5t-96 -367.5q0 -265 104 -403q89 -119 241 -119
q71 0 147.5 33.5t136.5 91.5v186h-278z" />
    <glyph glyph-name="H" unicode="H" horiz-adv-x="1212" 
d="M123 0v1466h242v-577h476v577h243v-1466h-243v641h-476v-641h-242z" />
    <glyph glyph-name="I" unicode="I" horiz-adv-x="467" 
d="M115 0v1466h242v-1466h-242z" />
    <glyph glyph-name="J" unicode="J" 
d="M556 1466h243v-928q0 -225 -45 -335t-134.5 -169t-220.5 -59q-173 0 -271 119t-99 359l229 32q4 -129 33 -183q39 -74 117 -74q76 0 112 53.5t36 237.5v947z" />
    <glyph glyph-name="K" unicode="K" horiz-adv-x="1212" 
d="M125 0v1466h242v-651l491 651h327l-453 -571l477 -895h-314l-331 688l-197 -245v-443h-242z" />
    <glyph glyph-name="L" unicode="L" horiz-adv-x="1026" 
d="M129 0v1454h242v-1207h604v-247h-846z" />
    <glyph glyph-name="M" unicode="M" horiz-adv-x="1399" 
d="M119 0v1466h363l218 -1000l216 1000h364v-1466h-225v1154l-239 -1154h-234l-237 1154v-1154h-226z" />
    <glyph glyph-name="N" unicode="N" horiz-adv-x="1212" 
d="M125 0v1466h236l492 -979v979h226v-1466h-244l-484 956v-956h-226z" />
    <glyph glyph-name="O" unicode="O" horiz-adv-x="1307" 
d="M74 724q0 262 77.5 431.5t202.5 252.5t303 83q258 0 420.5 -197t162.5 -561q0 -368 -172 -575q-151 -183 -410 -183q-261 0 -412 181q-172 207 -172 568zM324 734q0 -253 96 -379.5t238 -126.5q143 0 237 125.5t94 385.5q0 255 -91.5 377t-239.5 122t-241 -123t-93 -381z
" />
    <glyph glyph-name="P" unicode="P" horiz-adv-x="1120" 
d="M122 0v1466h390q218 0 285 -21q107 -34 176.5 -145t69.5 -286q0 -159 -60 -266.5t-150 -151t-310 -43.5h-159v-553h-242zM364 1218v-416h134q135 0 183.5 19t79.5 68.5t31 121.5q0 73 -32 123t-79 67t-199 17h-118z" />
    <glyph glyph-name="Q" unicode="Q" horiz-adv-x="1307" 
d="M1090 186q89 -77 194 -124l-89 -209q-54 20 -106 54q-12 7 -163 131q-119 -63 -272 -63q-260 0 -420.5 194.5t-160.5 563.5q0 370 161.5 564t423.5 194q259 0 419.5 -194.5t160.5 -563.5q0 -179 -35.5 -308t-112.5 -239zM895 353q93 130 93 379q0 258 -93 382t-239 124
t-239.5 -124t-93.5 -381q0 -261 93.5 -386.5t232.5 -125.5q52 0 99 21q-76 60 -150 92l68 169q120 -50 229 -150z" />
    <glyph glyph-name="R" unicode="R" horiz-adv-x="1212" 
d="M123 0v1466h511q196 0 280 -39.5t138 -137t54 -233.5q0 -172 -82.5 -277t-234.5 -132q78 -56 129 -122.5t139 -238.5l146 -286h-289l-176 319q-95 173 -129 216.5t-72 60t-122 16.5h-50v-612h-242zM365 846h180q165 0 210 14.5t73 58.5t28 117q0 70 -28 112.5t-76 58.5
q-34 11 -197 11h-190v-372z" />
    <glyph glyph-name="S" unicode="S" horiz-adv-x="1120" 
d="M61 477l237 28q40 -281 262 -281q110 0 173 57.5t63 142.5q0 50 -22 85t-67 57.5t-218 75.5q-155 47 -227 102t-114.5 144.5t-42.5 192.5q0 120 54.5 216t150.5 145t237 49q212 0 331 -115t126 -329l-243 -13q-16 118 -69 165t-151 47t-151 -41t-53 -102q0 -60 48 -101
t221 -90q183 -53 264.5 -111.5t124.5 -151t43 -224.5q0 -191 -117.5 -321t-367.5 -130q-442 0 -492 503z" />
    <glyph glyph-name="T" unicode="T" horiz-adv-x="1026" 
d="M393 0v1218h-357v248h955v-248h-356v-1218h-242z" />
    <glyph glyph-name="U" unicode="U" horiz-adv-x="1212" 
d="M120 1466h242v-794q0 -185 9 -241q16 -97 76.5 -150t159.5 -53q84 0 137 37.5t72.5 104t19.5 285.5v811h243v-770q0 -295 -31.5 -426.5t-142 -213t-291.5 -81.5q-188 0 -293.5 67.5t-153 190t-47.5 451.5v782z" />
    <glyph glyph-name="V" unicode="V" horiz-adv-x="1120" 
d="M429 0l-429 1466h263l304 -1085l294 1085h258l-430 -1466h-260z" />
    <glyph glyph-name="W" unicode="W" horiz-adv-x="1585" 
d="M292 0l-287 1466h249l180 -1007l220 1007h289l211 -1024l185 1024h244l-292 -1466h-258l-240 1096l-238 -1096h-263z" />
    <glyph glyph-name="X" unicode="X" horiz-adv-x="1120" 
d="M1 0l411 765l-373 701h284l241 -471l236 471h281l-373 -712l411 -754h-293l-267 507l-267 -507h-291z" />
    <glyph glyph-name="Y" unicode="Y" horiz-adv-x="1120" 
d="M438 0v617l-440 849h284l283 -580l278 580h279l-442 -851v-615h-242z" />
    <glyph glyph-name="Z" unicode="Z" horiz-adv-x="1026" 
d="M18 0v267l632 951h-561v248h880v-230l-658 -989h684v-247h-977z" />
    <glyph glyph-name="bracketleft" unicode="[" horiz-adv-x="559" 
d="M119 -413v1879h408v-221h-189v-1437h189v-221h-408z" />
    <glyph glyph-name="backslash" unicode="\" horiz-adv-x="467" 
d="M-2 1491h170l301 -1516h-173z" />
    <glyph glyph-name="bracketright" unicode="]" horiz-adv-x="559" 
d="M439 1466v-1879h-408v221h189v1439h-189v219h408z" />
    <glyph glyph-name="asciicircum" unicode="^" horiz-adv-x="981" 
d="M95 692l308 799h183l301 -799h-234l-162 489l-161 -489h-235z" />
    <glyph glyph-name="underscore" unicode="_" 
d="M-12 -154h959v-102h-959v102z" />
    <glyph glyph-name="grave" unicode="`" horiz-adv-x="559" 
d="M407 1192h-146l-226 299h258z" />
    <glyph glyph-name="a" unicode="a" 
d="M293 738l-209 46q38 161 125.5 231.5t251.5 70.5q146 0 223 -41t110 -111.5t33 -256.5l-2 -328q0 -138 11 -205.5t41 -143.5h-228l-30 116q-59 -70 -126.5 -105t-143.5 -35q-127 0 -208 85.5t-81 227.5q0 90 33 157t93 107t192 71q160 37 223 69q0 88 -12.5 115.5t-46 45
t-94.5 17.5q-62 0 -97.5 -28t-57.5 -105zM601 510q-44 -18 -137 -42q-107 -28 -140 -62t-33 -88q0 -61 36.5 -102.5t91.5 -41.5q49 0 97 33.5t66.5 79.5t18.5 167v56z" />
    <glyph glyph-name="b" unicode="b" horiz-adv-x="1026" 
d="M110 0v1466h231v-528q53 74 116.5 111t136.5 37q154 0 260.5 -139t106.5 -410q0 -270 -109 -415.5t-256 -145.5q-75 0 -148 46t-124 134v-156h-214zM339 554q0 -137 26 -209t74 -109.5t101 -37.5q76 0 130 79.5t54 251.5q0 181 -54.5 261.5t-138.5 80.5q-80 0 -136 -78
t-56 -239z" />
    <glyph glyph-name="c" unicode="c" 
d="M880 748l-227 -50q-25 167 -157 167q-85 0 -137 -72t-52 -243q0 -189 52 -267t139 -78q65 0 107 44.5t60 157.5l227 -47q-70 -384 -403 -384q-213 0 -316 162t-103 390q0 273 116.5 415.5t305.5 142.5q153 0 249.5 -81t138.5 -257z" />
    <glyph glyph-name="d" unicode="d" horiz-adv-x="1026" 
d="M920 0h-215v156q-53 -90 -125 -135t-148 -45q-146 0 -254.5 145.5t-108.5 415.5q0 272 106 410.5t261 138.5q73 0 136.5 -37t116.5 -111v528h231v-1466zM305 554q0 -144 24.5 -214.5t70 -106t102.5 -35.5q76 0 132 82t56 247q0 183 -54.5 263.5t-138.5 80.5
q-80 0 -136 -79t-56 -238z" />
    <glyph glyph-name="e" unicode="e" 
d="M626 338l229 -47q-46 -160 -143 -237.5t-236 -77.5q-193 0 -298 129q-124 150 -124 420q0 266 125 426q106 135 274 135q187 0 293 -138q122 -158 122 -466l-1 -32h-577q2 -126 56.5 -195t131.5 -69q111 0 148 152zM639 622q-3 124 -53 186.5t-119 62.5q-73 0 -123 -65
q-51 -66 -50 -184h345z" />
    <glyph glyph-name="f" unicode="f" horiz-adv-x="559" 
d="M20 1062h128v80q0 145 27.5 210t89 102t151.5 37q98 0 192 -36l-30 -196q-56 16 -107 16q-49 0 -71 -28t-22 -110v-75h172v-221h-172v-841h-230v841h-128v221z" />
    <glyph glyph-name="g" unicode="g" horiz-adv-x="1026" 
d="M99 -70l264 -39q6 -58 36.5 -82.5t96.5 -24.5q76 0 123 25q33 18 51 60t18 148v155q-52 -86 -117 -129t-144 -43q-145 0 -244 131q-114 150 -114 406q0 272 107.5 410.5t260.5 138.5q81 0 147.5 -43t118.5 -130v149h216v-953q0 -229 -42 -332t-129.5 -155.5t-242.5 -52.5
q-143 0 -229 38t-131.5 113.5t-45.5 174.5v35zM305 553q0 -170 54.5 -248t131.5 -78q83 0 142 79t59 240q0 166 -56.5 245.5t-139.5 79.5q-82 0 -136.5 -78t-54.5 -240z" />
    <glyph glyph-name="h" unicode="h" horiz-adv-x="1026" 
d="M351 1466v-539q55 80 121.5 119.5t144.5 39.5q104 0 174 -55t100 -156q22 -74 22 -252v-623h-230v561q0 195 -25 244q-35 66 -119 66q-89 0 -138.5 -71.5t-49.5 -267.5v-532h-231v1466h231z" />
    <glyph glyph-name="i" unicode="i" horiz-adv-x="467" 
d="M121 1206v260h231v-260h-231zM121 0v1062h231v-1062h-231z" />
    <glyph glyph-name="j" unicode="j" horiz-adv-x="467" 
d="M116 1206v260h231v-260h-231zM347 1062v-1029q0 -217 -24 -297t-86 -123.5t-153 -43.5q-69 0 -160 30l40 240q33 -9 57 -9q60 0 83 48q12 26 12 171v1013h231z" />
    <glyph glyph-name="k" unicode="k" 
d="M113 0v1466h231v-778l269 374h284l-298 -388l319 -674h-248l-220 477l-106 -137v-340h-231z" />
    <glyph glyph-name="l" unicode="l" horiz-adv-x="467" 
d="M121 0v1466h231v-1466h-231z" />
    <glyph glyph-name="m" unicode="m" horiz-adv-x="1493" 
d="M103 1062h212v-145q57 85 125 127t147 42q84 0 145.5 -42t100.5 -127q58 85 124.5 127t141.5 42q89 0 153.5 -42.5t98 -121.5t33.5 -243v-679h-231v607q0 159 -28 211.5t-94 52.5q-77 0 -124 -73.5t-47 -287.5v-510h-231v582q0 173 -19 223q-25 66 -101 66q-51 0 -94 -34
t-62 -99.5t-19 -221.5v-516h-231v1062z" />
    <glyph glyph-name="n" unicode="n" horiz-adv-x="1026" 
d="M913 0h-231v542q0 163 -13 217t-48.5 83t-80.5 29q-58 0 -105 -37.5t-66 -103.5t-19 -249v-481h-231v1062h214v-156q57 90 128.5 135t158.5 45q101 0 170.5 -52.5t96 -135t26.5 -238.5v-660z" />
    <glyph glyph-name="o" unicode="o" horiz-adv-x="1026" 
d="M67 546q0 156 62 284t162 192t225 64q210 0 330 -164.5t120 -384.5q0 -164 -62.5 -296t-164 -198.5t-222.5 -66.5q-194 0 -322 148t-128 422zM303 531q0 -161 63 -243.5t152 -82.5q87 0 149 83t62 245q0 158 -63 241t-151 83q-87 0 -149.5 -83t-62.5 -243z" />
    <glyph glyph-name="p" unicode="p" horiz-adv-x="1026" 
d="M114 1062h215v-156q44 84 116 132t155 48q149 0 256.5 -142t107.5 -403q0 -274 -108 -419.5t-257 -145.5q-69 0 -128.5 33.5t-125.5 121.5v-535h-231v1466zM342 549q0 -180 58.5 -265t141.5 -85q79 0 133 78.5t54 256.5q0 169 -55.5 249.5t-135.5 80.5q-84 0 -140 -78.5
t-56 -236.5z" />
    <glyph glyph-name="q" unicode="q" horiz-adv-x="1026" 
d="M690 -404v534q-47 -74 -115 -114t-143 -40q-146 0 -251.5 146t-105.5 421q0 260 107.5 401.5t262.5 141.5q83 0 148.5 -45t114.5 -136v157h212v-1466h-230zM698 544q0 165 -55 243.5t-137 78.5q-83 0 -139 -80.5t-56 -258.5q0 -175 54.5 -252t132.5 -77q79 0 139.5 86
t60.5 260z" />
    <glyph glyph-name="r" unicode="r" horiz-adv-x="653" 
d="M342 0h-231v1062h214v-151q55 106 98.5 140.5t100.5 34.5q79 0 151 -53l-72 -245q-57 46 -108 46q-48 0 -84.5 -35.5t-52.5 -128.5t-16 -342v-328z" />
    <glyph glyph-name="s" unicode="s" 
d="M40 303l231 43q30 -167 186 -167q83 0 124 32t41 83q0 35 -18 55q-19 20 -75 35q-284 75 -361 143q-96 85 -96 233t94 237t273 89q171 0 260 -66.5t125 -214.5l-217 -49q-29 128 -164 128q-85 0 -121 -24.5t-36 -63.5q0 -35 33 -58q33 -24 205 -72q193 -54 262 -131
q68 -77 68 -205q0 -154 -105.5 -254t-291.5 -100q-169 0 -276 83.5t-141 243.5z" />
    <glyph glyph-name="t" unicode="t" horiz-adv-x="559" 
d="M519 1062v-224h-157v-428q0 -139 7 -161q14 -40 57 -40q32 0 92 27l20 -218q-80 -42 -181 -42q-88 0 -141 42t-71 121q-14 58 -14 236v463h-106v224h106v211l231 164v-375h157z" />
    <glyph glyph-name="u" unicode="u" horiz-adv-x="1026" 
d="M693 0v159q-48 -86 -126 -134.5t-163 -48.5q-86 0 -154 45t-101.5 128t-33.5 241v672h231v-488q0 -209 10.5 -265.5t46.5 -87.5t87 -31q58 0 107 40.5t64.5 104t15.5 279.5v448h230v-1062h-214z" />
    <glyph glyph-name="v" unicode="v" 
d="M360 0l-351 1062h242l164 -542l47 -181l49 181l166 542h236l-346 -1062h-207z" />
    <glyph glyph-name="w" unicode="w" horiz-adv-x="1307" 
d="M284 0l-276 1062h224l163 -696l150 696h222l145 -696l167 696h227l-280 -1062h-221l-150 683l-148 -683h-223z" />
    <glyph glyph-name="x" unicode="x" 
d="M10 0l314 547l-301 515h282l154 -292l162 292h270l-295 -503l323 -559h-283l-177 329l-180 -329h-269z" />
    <glyph glyph-name="y" unicode="y" 
d="M11 1062h246l207 -754l204 754h238l-307 -1022l-59 -199q-39 -112 -77.5 -164t-98 -80t-146.5 -28q-67 0 -131 17l-20 220q54 -13 97 -13q66 0 108.5 44t69.5 160z" />
    <glyph glyph-name="z" unicode="z" horiz-adv-x="840" 
d="M28 0v219l327 457q80 112 118 159q-40 -3 -106 -4l-307 -2v233h720v-199l-333 -468l-117 -155q96 7 119 7h357v-247h-778z" />
    <glyph glyph-name="braceleft" unicode="{" horiz-adv-x="653" 
d="M49 410v240q70 4 105.5 33t55 96.5t19.5 226.5q0 198 15 272.5t49.5 117.5t95.5 69t177 26h44v-239q-87 0 -114 -11t-40.5 -37t-13.5 -97q0 -121 -9 -278q-6 -107 -46 -187q-29 -58 -99 -112q62 -43 99.5 -115t44.5 -181q10 -148 10 -279q0 -69 14.5 -95.5t41.5 -38.5
t112 -12v-240h-44q-116 0 -172 22.5t-94 67.5t-55 117t-17 244q0 189 -17.5 256.5t-53.5 98.5t-108 35z" />
    <glyph glyph-name="bar" unicode="|" horiz-adv-x="471" 
d="M145 -431v1922h183v-1922h-183z" />
    <glyph glyph-name="braceright" unicode="}" horiz-adv-x="653" 
d="M598 410q-70 -4 -105.5 -33t-55 -96.5t-19.5 -225.5q0 -198 -15 -272.5t-49.5 -118t-95.5 -69.5t-177 -26h-44v240q84 0 111.5 12t42 38.5t14.5 93.5q0 114 9 274q7 113 45 186.5t100 116.5q-70 54 -99 112q-39 78 -46 188q-10 144 -10 277q0 71 -13 96.5t-40 37
t-114 11.5v239h44q116 0 172 -22t94 -67t54.5 -117t16.5 -244q0 -190 17.5 -257.5t54 -98.5t108.5 -35v-240z" />
    <glyph glyph-name="asciitilde" unicode="~" horiz-adv-x="981" 
d="M55 519v259q104 138 242 138q52 0 95.5 -12.5t143.5 -61.5q126 -62 166 -62q47 0 108 35.5t116 108.5v-270q-46 -58 -127 -103q-52 -29 -118 -29q-41 0 -80 11.5t-124 57.5q-126 67 -198 67q-115 0 -224 -139z" />
    <glyph glyph-name="Adieresis" unicode="&#xc4;" horiz-adv-x="1212" 
d="M1206 0h-264l-105 333h-480l-99 -333h-258l468 1466h257zM759 580l-165 544l-163 -544h328zM328 1621v241h198v-241h-198zM681 1621v241h198v-241h-198z" />
    <glyph glyph-name="Aring" unicode="&#xc5;" horiz-adv-x="1212" 
d="M1206 0h-264l-105 333h-480l-99 -333h-258l468 1466h257zM759 580l-165 544l-163 -544h328zM765 1714q0 -84 -48.5 -140t-112.5 -56t-112.5 56t-48.5 140q0 85 48 140.5t113 55.5q64 0 112.5 -55.5t48.5 -140.5zM677 1714q0 39 -22 64t-51 25t-51 -25t-22 -64
q0 -38 22 -63.5t51 -25.5t51 25.5t22 63.5z" />
    <glyph glyph-name="Ccedilla" unicode="&#xc7;" horiz-adv-x="1212" 
d="M892 539l235 -91q-55 -246 -183 -359.5t-315 -113.5q-235 0 -381 181q-168 209 -168 564q0 375 169 587q147 184 395 184q202 0 338 -138q97 -98 142 -291l-240 -70q-23 119 -91.5 182.5t-161.5 63.5q-133 0 -217 -116t-84 -383q0 -277 82 -394t213 -117q96 0 166 74.5
t101 236.5zM388 -415v118q84 -11 155 -11q68 0 102 26.5t34 67.5q0 37 -27.5 60.5t-77.5 23.5q-52 0 -107 -20l21 99q64 27 140 27q94 0 150.5 -52.5t56.5 -136.5q0 -96 -75 -157t-212 -61q-106 0 -160 16z" />
    <glyph glyph-name="Eacute" unicode="&#xc9;" horiz-adv-x="1120" 
d="M123 0v1466h892v-248h-650v-325h604v-247h-604v-399h672v-247h-914zM434 1564l113 299h259l-226 -299h-146z" />
    <glyph glyph-name="Ntilde" unicode="&#xd1;" horiz-adv-x="1212" 
d="M125 0v1466h236l492 -979v979h226v-1466h-244l-484 956v-956h-226zM418 1577h-104l-1 33q0 110 42.5 165.5t107.5 55.5q28 0 53 -8t81 -38q74 -40 110 -40q57 0 67 87h106q-1 -136 -41.5 -193.5t-104.5 -57.5q-27 0 -53 7q-19 5 -88 37q-83 39 -118 39q-25 0 -40.5 -19.5
t-16.5 -67.5z" />
    <glyph glyph-name="Odieresis" unicode="&#xd6;" horiz-adv-x="1307" 
d="M74 724q0 262 77.5 431.5t202.5 252.5t303 83q258 0 420.5 -197t162.5 -561q0 -368 -172 -575q-151 -183 -410 -183q-261 0 -412 181q-172 207 -172 568zM324 734q0 -253 96 -379.5t238 -126.5q143 0 237 125.5t94 385.5q0 255 -91.5 377t-239.5 122t-241 -123t-93 -381z
M381 1621v241h198v-241h-198zM734 1621v241h198v-241h-198z" />
    <glyph glyph-name="Udieresis" unicode="&#xdc;" horiz-adv-x="1212" 
d="M120 1466h242v-794q0 -185 9 -241q16 -97 76.5 -150t159.5 -53q84 0 137 37.5t72.5 104t19.5 285.5v811h243v-770q0 -295 -31.5 -426.5t-142 -213t-291.5 -81.5q-188 0 -293.5 67.5t-153 190t-47.5 451.5v782zM327 1621v241h198v-241h-198zM680 1621v241h198v-241h-198z
" />
    <glyph glyph-name="aacute" unicode="&#xe1;" 
d="M293 738l-209 46q38 161 125.5 231.5t251.5 70.5q146 0 223 -41t110 -111.5t33 -256.5l-2 -328q0 -138 11 -205.5t41 -143.5h-228l-30 116q-59 -70 -126.5 -105t-143.5 -35q-127 0 -208 85.5t-81 227.5q0 90 33 157t93 107t192 71q160 37 223 69q0 88 -12.5 115.5t-46 45
t-94.5 17.5q-62 0 -97.5 -28t-57.5 -105zM601 510q-44 -18 -137 -42q-107 -28 -140 -62t-33 -88q0 -61 36.5 -102.5t91.5 -41.5q49 0 97 33.5t66.5 79.5t18.5 167v56zM352 1192l113 299h259l-226 -299h-146z" />
    <glyph glyph-name="agrave" unicode="&#xe0;" 
d="M293 738l-209 46q38 161 125.5 231.5t251.5 70.5q146 0 223 -41t110 -111.5t33 -256.5l-2 -328q0 -138 11 -205.5t41 -143.5h-228l-30 116q-59 -70 -126.5 -105t-143.5 -35q-127 0 -208 85.5t-81 227.5q0 90 33 157t93 107t192 71q160 37 223 69q0 88 -12.5 115.5t-46 45
t-94.5 17.5q-62 0 -97.5 -28t-57.5 -105zM601 510q-44 -18 -137 -42q-107 -28 -140 -62t-33 -88q0 -61 36.5 -102.5t91.5 -41.5q49 0 97 33.5t66.5 79.5t18.5 167v56zM586 1192h-146l-226 299h258z" />
    <glyph glyph-name="acircumflex" unicode="&#xe2;" 
d="M293 738l-209 46q38 161 125.5 231.5t251.5 70.5q146 0 223 -41t110 -111.5t33 -256.5l-2 -328q0 -138 11 -205.5t41 -143.5h-228l-30 116q-59 -70 -126.5 -105t-143.5 -35q-127 0 -208 85.5t-81 227.5q0 90 33 157t93 107t192 71q160 37 223 69q0 88 -12.5 115.5t-46 45
t-94.5 17.5q-62 0 -97.5 -28t-57.5 -105zM601 510q-44 -18 -137 -42q-107 -28 -140 -62t-33 -88q0 -61 36.5 -102.5t91.5 -41.5q49 0 97 33.5t66.5 79.5t18.5 167v56zM191 1196l172 295h213l170 -295h-185l-95 149l-88 -149h-187z" />
    <glyph glyph-name="adieresis" unicode="&#xe4;" 
d="M293 738l-209 46q38 161 125.5 231.5t251.5 70.5q146 0 223 -41t110 -111.5t33 -256.5l-2 -328q0 -138 11 -205.5t41 -143.5h-228l-30 116q-59 -70 -126.5 -105t-143.5 -35q-127 0 -208 85.5t-81 227.5q0 90 33 157t93 107t192 71q160 37 223 69q0 88 -12.5 115.5t-46 45
t-94.5 17.5q-62 0 -97.5 -28t-57.5 -105zM601 510q-44 -18 -137 -42q-107 -28 -140 -62t-33 -88q0 -61 36.5 -102.5t91.5 -41.5q49 0 97 33.5t66.5 79.5t18.5 167v56zM193 1250v241h198v-241h-198zM546 1250v241h198v-241h-198z" />
    <glyph glyph-name="atilde" unicode="&#xe3;" 
d="M293 738l-209 46q38 161 125.5 231.5t251.5 70.5q146 0 223 -41t110 -111.5t33 -256.5l-2 -328q0 -138 11 -205.5t41 -143.5h-228l-30 116q-59 -70 -126.5 -105t-143.5 -35q-127 0 -208 85.5t-81 227.5q0 90 33 157t93 107t192 71q160 37 223 69q0 88 -12.5 115.5t-46 45
t-94.5 17.5q-62 0 -97.5 -28t-57.5 -105zM601 510q-44 -18 -137 -42q-107 -28 -140 -62t-33 -88q0 -61 36.5 -102.5t91.5 -41.5q49 0 97 33.5t66.5 79.5t18.5 167v56zM290 1205h-104l-1 33q0 110 42.5 165.5t107.5 55.5q28 0 53 -8t81 -38q74 -40 110 -40q57 0 67 87h106
q-1 -136 -41.5 -193.5t-104.5 -57.5q-27 0 -53 7q-19 5 -88 37q-83 39 -118 39q-25 0 -40.5 -19.5t-16.5 -67.5z" />
    <glyph glyph-name="aring" unicode="&#xe5;" 
d="M293 738l-209 46q38 161 125.5 231.5t251.5 70.5q146 0 223 -41t110 -111.5t33 -256.5l-2 -328q0 -138 11 -205.5t41 -143.5h-228l-30 116q-59 -70 -126.5 -105t-143.5 -35q-127 0 -208 85.5t-81 227.5q0 90 33 157t93 107t192 71q160 37 223 69q0 88 -12.5 115.5t-46 45
t-94.5 17.5q-62 0 -97.5 -28t-57.5 -105zM601 510q-44 -18 -137 -42q-107 -28 -140 -62t-33 -88q0 -61 36.5 -102.5t91.5 -41.5q49 0 97 33.5t66.5 79.5t18.5 167v56zM630 1342q0 -84 -48.5 -140t-112.5 -56t-112.5 56t-48.5 140q0 85 48 140.5t113 55.5q64 0 112.5 -55.5
t48.5 -140.5zM542 1342q0 39 -22 64t-51 25t-51 -25t-22 -64q0 -38 22 -63.5t51 -25.5t51 25.5t22 63.5z" />
    <glyph glyph-name="ccedilla" unicode="&#xe7;" 
d="M880 748l-227 -50q-25 167 -157 167q-85 0 -137 -72t-52 -243q0 -189 52 -267t139 -78q65 0 107 44.5t60 157.5l227 -47q-70 -384 -403 -384q-213 0 -316 162t-103 390q0 273 116.5 415.5t305.5 142.5q153 0 249.5 -81t138.5 -257zM251 -403v118q84 -11 155 -11
q68 0 102 26.5t34 67.5q0 37 -27.5 60.5t-77.5 23.5q-52 0 -107 -20l21 99q64 27 140 27q94 0 150.5 -52.5t56.5 -136.5q0 -96 -75 -157t-212 -61q-106 0 -160 16z" />
    <glyph glyph-name="eacute" unicode="&#xe9;" 
d="M626 338l229 -47q-46 -160 -143 -237.5t-236 -77.5q-193 0 -298 129q-124 150 -124 420q0 266 125 426q106 135 274 135q187 0 293 -138q122 -158 122 -466l-1 -32h-577q2 -126 56.5 -195t131.5 -69q111 0 148 152zM639 622q-3 124 -53 186.5t-119 62.5q-73 0 -123 -65
q-51 -66 -50 -184h345zM344 1192l113 299h259l-226 -299h-146z" />
    <glyph glyph-name="egrave" unicode="&#xe8;" 
d="M626 338l229 -47q-46 -160 -143 -237.5t-236 -77.5q-193 0 -298 129q-124 150 -124 420q0 266 125 426q106 135 274 135q187 0 293 -138q122 -158 122 -466l-1 -32h-577q2 -126 56.5 -195t131.5 -69q111 0 148 152zM639 622q-3 124 -53 186.5t-119 62.5q-73 0 -123 -65
q-51 -66 -50 -184h345zM578 1192h-146l-226 299h258z" />
    <glyph glyph-name="ecircumflex" unicode="&#xea;" 
d="M626 338l229 -47q-46 -160 -143 -237.5t-236 -77.5q-193 0 -298 129q-124 150 -124 420q0 266 125 426q106 135 274 135q187 0 293 -138q122 -158 122 -466l-1 -32h-577q2 -126 56.5 -195t131.5 -69q111 0 148 152zM639 622q-3 124 -53 186.5t-119 62.5q-73 0 -123 -65
q-51 -66 -50 -184h345zM183 1196l172 295h213l170 -295h-185l-95 149l-88 -149h-187z" />
    <glyph glyph-name="edieresis" unicode="&#xeb;" 
d="M626 338l229 -47q-46 -160 -143 -237.5t-236 -77.5q-193 0 -298 129q-124 150 -124 420q0 266 125 426q106 135 274 135q187 0 293 -138q122 -158 122 -466l-1 -32h-577q2 -126 56.5 -195t131.5 -69q111 0 148 152zM639 622q-3 124 -53 186.5t-119 62.5q-73 0 -123 -65
q-51 -66 -50 -184h345zM185 1250v241h198v-241h-198zM538 1250v241h198v-241h-198z" />
    <glyph glyph-name="iacute" unicode="&#xed;" horiz-adv-x="467" 
d="M121 0v1062h231v-1062h-231zM120 1192l113 299h259l-226 -299h-146z" />
    <glyph glyph-name="igrave" unicode="&#xec;" horiz-adv-x="467" 
d="M121 0v1062h231v-1062h-231zM353 1192h-146l-226 299h258z" />
    <glyph glyph-name="icircumflex" unicode="&#xee;" horiz-adv-x="467" 
d="M121 0v1062h231v-1062h-231zM-41 1196l172 295h213l170 -295h-185l-95 149l-88 -149h-187z" />
    <glyph glyph-name="idieresis" unicode="&#xef;" horiz-adv-x="467" 
d="M121 0v1062h231v-1062h-231zM-39 1250v241h198v-241h-198zM314 1250v241h198v-241h-198z" />
    <glyph glyph-name="ntilde" unicode="&#xf1;" horiz-adv-x="1026" 
d="M913 0h-231v542q0 163 -13 217t-48.5 83t-80.5 29q-58 0 -105 -37.5t-66 -103.5t-19 -249v-481h-231v1062h214v-156q57 90 128.5 135t158.5 45q101 0 170.5 -52.5t96 -135t26.5 -238.5v-660zM337 1205h-104l-1 33q0 110 42.5 165.5t107.5 55.5q28 0 53 -8t81 -38
q74 -40 110 -40q57 0 67 87h106q-1 -136 -41.5 -193.5t-104.5 -57.5q-27 0 -53 7q-19 5 -88 37q-83 39 -118 39q-25 0 -40.5 -19.5t-16.5 -67.5z" />
    <glyph glyph-name="oacute" unicode="&#xf3;" horiz-adv-x="1026" 
d="M67 546q0 156 62 284t162 192t225 64q210 0 330 -164.5t120 -384.5q0 -164 -62.5 -296t-164 -198.5t-222.5 -66.5q-194 0 -322 148t-128 422zM303 531q0 -161 63 -243.5t152 -82.5q87 0 149 83t62 245q0 158 -63 241t-151 83q-87 0 -149.5 -83t-62.5 -243zM400 1192
l113 299h259l-226 -299h-146z" />
    <glyph glyph-name="ograve" unicode="&#xf2;" horiz-adv-x="1026" 
d="M67 546q0 156 62 284t162 192t225 64q210 0 330 -164.5t120 -384.5q0 -164 -62.5 -296t-164 -198.5t-222.5 -66.5q-194 0 -322 148t-128 422zM303 531q0 -161 63 -243.5t152 -82.5q87 0 149 83t62 245q0 158 -63 241t-151 83q-87 0 -149.5 -83t-62.5 -243zM633 1192h-146
l-226 299h258z" />
    <glyph glyph-name="ocircumflex" unicode="&#xf4;" horiz-adv-x="1026" 
d="M67 546q0 156 62 284t162 192t225 64q210 0 330 -164.5t120 -384.5q0 -164 -62.5 -296t-164 -198.5t-222.5 -66.5q-194 0 -322 148t-128 422zM303 531q0 -161 63 -243.5t152 -82.5q87 0 149 83t62 245q0 158 -63 241t-151 83q-87 0 -149.5 -83t-62.5 -243zM239 1196
l172 295h213l170 -295h-185l-95 149l-88 -149h-187z" />
    <glyph glyph-name="odieresis" unicode="&#xf6;" horiz-adv-x="1026" 
d="M67 546q0 156 62 284t162 192t225 64q210 0 330 -164.5t120 -384.5q0 -164 -62.5 -296t-164 -198.5t-222.5 -66.5q-194 0 -322 148t-128 422zM303 531q0 -161 63 -243.5t152 -82.5q87 0 149 83t62 245q0 158 -63 241t-151 83q-87 0 -149.5 -83t-62.5 -243zM241 1250v241
h198v-241h-198zM594 1250v241h198v-241h-198z" />
    <glyph glyph-name="otilde" unicode="&#xf5;" horiz-adv-x="1026" 
d="M67 546q0 156 62 284t162 192t225 64q210 0 330 -164.5t120 -384.5q0 -164 -62.5 -296t-164 -198.5t-222.5 -66.5q-194 0 -322 148t-128 422zM303 531q0 -161 63 -243.5t152 -82.5q87 0 149 83t62 245q0 158 -63 241t-151 83q-87 0 -149.5 -83t-62.5 -243zM338 1205h-104
l-1 33q0 110 42.5 165.5t107.5 55.5q28 0 53 -8t81 -38q74 -40 110 -40q57 0 67 87h106q-1 -136 -41.5 -193.5t-104.5 -57.5q-27 0 -53 7q-19 5 -88 37q-83 39 -118 39q-25 0 -40.5 -19.5t-16.5 -67.5z" />
    <glyph glyph-name="uacute" unicode="&#xfa;" horiz-adv-x="1026" 
d="M693 0v159q-48 -86 -126 -134.5t-163 -48.5q-86 0 -154 45t-101.5 128t-33.5 241v672h231v-488q0 -209 10.5 -265.5t46.5 -87.5t87 -31q58 0 107 40.5t64.5 104t15.5 279.5v448h230v-1062h-214zM395 1192l113 299h259l-226 -299h-146z" />
    <glyph glyph-name="ugrave" unicode="&#xf9;" horiz-adv-x="1026" 
d="M693 0v159q-48 -86 -126 -134.5t-163 -48.5q-86 0 -154 45t-101.5 128t-33.5 241v672h231v-488q0 -209 10.5 -265.5t46.5 -87.5t87 -31q58 0 107 40.5t64.5 104t15.5 279.5v448h230v-1062h-214zM628 1192h-146l-226 299h258z" />
    <glyph glyph-name="ucircumflex" unicode="&#xfb;" horiz-adv-x="1026" 
d="M693 0v159q-48 -86 -126 -134.5t-163 -48.5q-86 0 -154 45t-101.5 128t-33.5 241v672h231v-488q0 -209 10.5 -265.5t46.5 -87.5t87 -31q58 0 107 40.5t64.5 104t15.5 279.5v448h230v-1062h-214zM233 1196l172 295h213l170 -295h-185l-95 149l-88 -149h-187z" />
    <glyph glyph-name="udieresis" unicode="&#xfc;" horiz-adv-x="1026" 
d="M693 0v159q-48 -86 -126 -134.5t-163 -48.5q-86 0 -154 45t-101.5 128t-33.5 241v672h231v-488q0 -209 10.5 -265.5t46.5 -87.5t87 -31q58 0 107 40.5t64.5 104t15.5 279.5v448h230v-1062h-214zM236 1250v241h198v-241h-198zM589 1250v241h198v-241h-198z" />
    <glyph glyph-name="dagger" unicode="&#x2020;" 
d="M355 -350v1180h-299v232h299v386h216v-386h297v-232h-297v-1180h-216z" />
    <glyph glyph-name="degree" unicode="&#xb0;" horiz-adv-x="819" 
d="M86 1172q0 133 93.5 226t225.5 93t225.5 -93.5t93.5 -225.5t-93.5 -225.5t-225.5 -93.5t-225.5 93.5t-93.5 225.5zM252 1172q0 -63 45 -108t108 -45t108 45t45 108t-45 108t-108 45t-108 -45t-45 -108z" />
    <glyph glyph-name="cent" unicode="&#xa2;" 
d="M610 811l-149 -602q18 -4 37 -4q64 0 106 44.5t60 157.5l226 -47q-69 -384 -402 -384q-41 0 -83 7l-96 -386l-99 34l95 385q-107 57 -171.5 188.5t-64.5 329.5q0 268 125 420q108 132 297 132q37 0 77 -6l93 376l100 -35l-92 -371q156 -73 210 -302l-227 -50
q-9 71 -42 113zM514 864l-19 1q-86 0 -137.5 -72t-51.5 -244q0 -194 61 -280z" />
    <glyph glyph-name="sterling" unicode="&#xa3;" 
d="M820 285l88 -238q-103 -70 -226 -70q-74 0 -194 42q-126 43 -185 43q-100 0 -204 -87l-88 242q86 75 129.5 165.5t43.5 178.5q0 29 -2 60h-171v221h129q-34 119 -34 241q0 178 109 293t273 115q154 0 252.5 -95t122.5 -290l-222 -40q-29 201 -159 201q-63 0 -108 -52
t-45 -135q0 -101 41 -238h256v-221h-218q2 -22 2 -45q0 -77 -24.5 -144.5t-101.5 -176.5q46 28 114 28q30 0 56 -5q13 -3 108 -32q54 -17 90 -17q63 0 168 56z" />
    <glyph glyph-name="section" unicode="&#xa7;" 
d="M809 1154l-225 -29q-7 152 -126 152q-50 0 -79.5 -27t-29.5 -67q0 -43 28 -80q27 -37 185 -161q154 -121 208.5 -182.5t80 -128.5t25.5 -146q0 -186 -149 -314q50 -56 74.5 -119.5t24.5 -133.5q0 -158 -95 -253.5t-257 -95.5q-156 0 -258 94.5t-121 268.5l225 33
q28 -181 160 -181q52 0 85.5 33t33.5 85q0 23 -7.5 43.5t-22.5 39.5q-30 38 -213 178q-188 145 -247.5 242.5t-59.5 217.5q0 216 152 322q-41 54 -62 110t-21 113q0 144 90.5 233.5t239.5 89.5q152 0 247.5 -89t113.5 -248zM603 293q72 79 72 145q0 38 -21 73t-102 107
l-223 198q-30 -21 -54 -64q-17 -32 -17 -72q0 -101 111 -192z" />
    <glyph glyph-name="bullet" unicode="&#x2022;" horiz-adv-x="588" 
d="M539 724q0 -127 -73 -211.5t-170 -84.5q-96 0 -169 84.5t-73 211.5t73 211t169 84q97 0 170 -84t73 -211z" />
    <glyph glyph-name="paragraph" unicode="&#xb6;" 
d="M520 -403h-199v1047q-149 13 -236 118t-87 290q0 116 38.5 205t95.5 133.5t125 63.5q46 12 179 12h490v-261h-93v-1608h-195v1608h-118v-1608z" />
    <glyph glyph-name="germandbls" unicode="&#xdf;" horiz-adv-x="1026" 
d="M114 0v952q0 195 24 283q35 129 121 192.5t214 63.5q159 0 246 -82.5t87 -221.5q0 -86 -50 -198q-53 -118 -53 -148q0 -29 15.5 -58.5t104.5 -138.5q83 -101 113.5 -174.5t30.5 -152.5q0 -153 -85 -247t-206 -94q-83 0 -155 51.5t-111 137.5l161 115q33 -79 85 -79
q32 0 56 29t24 74q0 38 -17.5 71t-119.5 151q-139 162 -139 254q0 60 54 195q41 104 48.5 132t7.5 58q0 46 -28.5 76t-70.5 30q-41 0 -72.5 -27t-42.5 -79t-11 -213v-952h-231z" />
    <glyph glyph-name="registered" unicode="&#xae;" horiz-adv-x="1237" 
d="M620 1496q160 0 303.5 -95t234 -275.5t90.5 -395.5t-90.5 -395.5t-234.5 -275.5t-303 -95t-303 95t-234.5 275.5t-90.5 395.5t90.5 395.5t234.5 275.5t303 95zM621 1346q-128 0 -243.5 -76t-188 -221.5t-72.5 -318.5t72.5 -318.5t188.5 -222t243 -76.5q128 0 243.5 76.5
t188.5 222t73 318.5t-73 318.5t-188.5 221.5t-243.5 76zM336 320v813h136q203 0 240 -5q73 -12 119 -70.5t46 -152.5q0 -93 -49 -154t-131 -75q40 -19 66.5 -55.5t75.5 -136.5l78 -164h-167l-56 132q-56 133 -93 167.5t-94 34.5h-35v-334h-136zM472 782h54q111 0 136 8
q33 9 52 37t19 67t-19.5 65.5t-52.5 36.5q-26 8 -135 8h-54v-222z" />
    <glyph glyph-name="copyright" unicode="&#xa9;" horiz-adv-x="1237" 
d="M620 1496q160 0 303.5 -95t234 -275.5t90.5 -395.5t-90.5 -395.5t-234.5 -275.5t-303 -95t-303 95t-234.5 275.5t-90.5 395.5t90.5 395.5t234.5 275.5t303 95zM620 1345q-128 0 -243.5 -76t-188 -221t-72.5 -318t72.5 -318t188 -221t243.5 -76t243.5 76t188.5 221t73 318
t-73 318t-188.5 221t-243.5 76zM773 616l132 -54q-32 -130 -105 -195t-171 -65q-135 0 -226 109.5t-91 312.5q0 210 89.5 320t229.5 110q201 0 274 -243l-133 -38q-42 139 -146 139q-73 0 -121.5 -68t-48.5 -213q0 -147 47 -216.5t109 -69.5q121 0 161 171z" />
    <glyph glyph-name="trademark" unicode="&#x2122;" horiz-adv-x="1679" 
d="M385 647v677h-208v142h545v-142h-201v-677h-136zM803 647v819h213l122 -564l123 564h212v-819h-129v653l-145 -653h-124l-143 653v-653h-129z" />
    <glyph glyph-name="acute" unicode="&#xb4;" horiz-adv-x="559" 
d="M153 1192l113 299h259l-226 -299h-146z" />
    <glyph glyph-name="dieresis" unicode="&#xa8;" horiz-adv-x="559" 
d="M4 1250v241h198v-241h-198zM357 1250v241h198v-241h-198z" />
    <glyph glyph-name="notequal" unicode="&#x2260;" horiz-adv-x="1124" 
d="M422 631l68 185h-441v258h537l148 398h211l-148 -398h277v-258h-374l-69 -185h443v-259h-540l-149 -397h-207l148 397h-277v259h373z" />
    <glyph glyph-name="AE" unicode="&#xc6;" horiz-adv-x="1679" 
d="M-70 0l561 1466h1085v-248h-595v-326h549v-248h-549v-397h617v-247h-859v345h-417l-123 -345h-269zM411 601h330v643h-94z" />
    <glyph glyph-name="Oslash" unicode="&#xd8;" horiz-adv-x="1307" 
d="M1016 1359l129 177l115 -122l-137 -188q115 -192 115 -504q0 -308 -136 -516q-151 -231 -440 -231q-223 0 -361 125l-132 -182l-117 124l140 192q-61 102 -86 208q-34 140 -34 302q0 356 175 566q150 181 408 181q216 0 361 -132zM865 1153q-82 86 -209 86
q-147 0 -240 -123.5t-93 -380.5q0 -162 37 -272zM955 996l-504 -691q83 -90 203 -90q145 0 239.5 127.5t94.5 390.5q0 152 -33 263z" />
    <glyph glyph-name="infinity" unicode="&#x221e;" horiz-adv-x="1460" 
d="M681 843q74 121 151 174.5t172 53.5q132 0 219.5 -93.5t87.5 -255.5t-87.5 -255.5t-219.5 -93.5q-94 0 -171 53t-152 175q-60 -84 -138 -128t-149 -44q-101 0 -171.5 78.5t-70.5 214.5t70.5 214t171.5 78q71 0 149 -44t138 -127zM774 724q84 -129 118 -158
q53 -45 115 -45q76 0 117 59t41 146q0 94 -45 146t-110 52q-51 0 -102.5 -36t-133.5 -164zM595 726q-100 141 -190 141q-46 0 -79.5 -37t-33.5 -103q0 -68 33 -106t80 -38q39 0 70 21q54 36 120 122z" />
    <glyph glyph-name="plusminus" unicode="&#xb1;" horiz-adv-x="1124" 
d="M434 356v381h-384v263h384v381h256v-381h385v-263h-385v-381h-256zM50 0v263h1025v-263h-1025z" />
    <glyph glyph-name="lessequal" unicode="&#x2264;" horiz-adv-x="1124" 
d="M1065 336l-1005 437v242l1005 435v-285l-701 -268l701 -279v-282zM60 0v263h1005v-263h-1005z" />
    <glyph glyph-name="greaterequal" unicode="&#x2265;" horiz-adv-x="1124" 
d="M60 338v282l702 277l-702 272v281l1005 -434v-241zM60 0v263h1005v-263h-1005z" />
    <glyph glyph-name="yen" unicode="&#xa5;" 
d="M346 284h-304v186h304v144h-304v186h228l-269 666h253l164 -426q31 -81 44 -141q16 67 44 141l167 426h253l-272 -666h231v-186h-308v-144h308v-186h-308v-284h-231v284z" />
    <glyph glyph-name="mu1" unicode="&#xb5;" horiz-adv-x="1180" 
d="M111 1062h279v-481q0 -208 42 -283q53 -97 157 -97q56 0 106 36t74 100t24 241v484h284v-1062h-262v128q-30 -56 -57 -84t-72.5 -49t-83.5 -21q-71 0 -126 39q-39 29 -86 115v-535h-279v1469z" />
    <glyph glyph-name="partialdiff" unicode="&#x2202;" horiz-adv-x="1012" 
d="M379 1123l-137 84q52 142 150.5 213t219.5 71q145 0 234 -100q131 -145 131 -448q0 -261 -83 -506t-230 -353.5t-309 -108.5q-138 0 -224.5 92t-86.5 262q0 158 87 303t266 230t429 80q-1 200 -74 296q-54 71 -145 71q-69 0 -120.5 -39.5t-107.5 -146.5zM814 758
q-29 1 -44 1q-137 0 -255.5 -55.5t-180 -158.5t-61.5 -207q0 -78 42 -125.5t99 -47.5q119 0 217 115q141 165 183 478z" />
    <glyph glyph-name="summation" unicode="&#x2211;" horiz-adv-x="1460" 
d="M139 1491h1237v-164h-988l607 -775l-649 -822h1040v-161h-1264v187l620 788l-603 772v175z" />
    <glyph glyph-name="product" unicode="&#x220f;" horiz-adv-x="1686" 
d="M161 1491h1362v-1922h-191v1748h-978v-1748h-193v1922z" />
    <glyph glyph-name="pi1" horiz-adv-x="1124" 
d="M0 1063h1124v-202h-169v-861h-288v861h-208v-861h-292v861h-167v202z" />
    <glyph glyph-name="integral" unicode="&#x222b;" horiz-adv-x="561" 
d="M201 948l17 531q9 153 50 254q27 65 74.5 97.5t92.5 32.5q50 0 87.5 -33.5t37.5 -73.5q0 -47 -26.5 -75.5t-65.5 -28.5q-35 0 -76 36q-23 20 -40 20t-28.5 -14.5t-11.5 -49.5q0 -42 9 -145q37 -410 37 -665q0 -67 -16 -588q-8 -295 -90 -399q-54 -67 -134 -67
q-52 0 -85 34t-33 87q0 45 25.5 72t64.5 27q40 0 69 -32t49 -32q17 0 28 14t11 47q0 42 -9 120q-37 315 -37 831z" />
    <glyph glyph-name="ordfeminine" unicode="&#xaa;" horiz-adv-x="621" 
d="M209 1252l-155 38q19 104 78 152.5t173 48.5q111 0 171 -34q46 -26 66 -86q15 -43 15 -162v-239q0 -104 5 -139t19 -70h-155q-12 26 -19 71q-36 -44 -80.5 -66.5t-96.5 -22.5q-89 0 -144 58t-55 157q0 67 23 112t65 70t168 55q65 16 103 33q-3 66 -11 79q-18 27 -72 27
q-43 0 -64 -16q-16 -12 -34 -66zM390 1095q-18 -13 -77 -28q-71 -18 -88 -35q-24 -25 -24 -58t23 -57t56 -24q47 0 78.5 41t31.5 121v40z" />
    <glyph glyph-name="ordmasculine" unicode="&#xba;" horiz-adv-x="612" 
d="M21 1115q0 183 79.5 279.5t205.5 96.5q124 0 204 -97t80 -279t-79.5 -278.5t-204.5 -96.5t-205 96.5t-80 278.5zM194 1113q0 -110 30.5 -156.5t80.5 -46.5q47 0 77.5 47t30.5 156q0 111 -31 157t-80 46q-47 0 -77.5 -46.5t-30.5 -156.5z" />
    <glyph glyph-name="Ohm" unicode="&#x2126;" horiz-adv-x="1573" 
d="M462 206q-116 49 -185 112q-101 90 -150.5 216t-49.5 277q0 310 191.5 501t508.5 191q233 0 389.5 -79t250 -244.5t93.5 -366.5q0 -202 -93.5 -360.5t-288.5 -244.5l330 23h72v-231h-642v243q97 47 153 105q76 80 114.5 194.5t38.5 241.5q0 247 -114.5 373.5
t-292.5 126.5q-170 0 -284.5 -129.5t-114.5 -365.5q0 -136 43.5 -253t124.5 -198q52 -52 144 -95v-243h-645v230h98z" />
    <glyph glyph-name="ae" unicode="&#xe6;" horiz-adv-x="1493" 
d="M1177 339l226 -49q-94 -314 -384 -314q-186 0 -312 146q-61 -65 -153.5 -105.5t-184.5 -40.5q-135 0 -216 85.5t-81 226.5q0 107 50 189q38 63 115 99q49 24 233 70q80 21 138 44q0 81 -13.5 112t-46.5 50t-83 19q-63 0 -102.5 -31t-57.5 -102l-208 49q42 161 132 230
t265 69q172 0 266 -98q101 98 238 98q126 0 218.5 -65.5t145 -199t52.5 -373.5h-579q25 -258 181 -258q119 0 161 149zM1187 624q-6 98 -28.5 146.5t-62 74.5t-88.5 26q-84 0 -128.5 -77.5t-41.5 -169.5h349zM606 508q-204 -67 -218 -74q-45 -19 -65 -49.5t-20 -70.5
q0 -61 36.5 -100.5t91.5 -39.5q52 0 98.5 35t61.5 85t15 214z" />
    <glyph glyph-name="oslash" unicode="&#xf8;" horiz-adv-x="1026" 
d="M777 999l85 120l92 -92l-89 -124q46 -66 76 -165t30 -205q0 -163 -62.5 -293t-165.5 -197t-224 -67q-140 0 -252 84l-95 -133l-89 95l94 134q-105 157 -105 383q0 160 61 288.5t162 193.5t226 65q147 0 256 -87zM647 817q-55 54 -125 54q-90 0 -156 -86t-66 -245
q0 -100 24 -178zM717 695l-321 -453q55 -48 123 -48q93 0 158 85t65 244q0 89 -25 172z" />
    <glyph glyph-name="questiondown" unicode="&#xbf;" horiz-adv-x="1026" 
d="M626 1062v-281h-231v281h231zM417 684h209l1 -72q0 -118 -35.5 -200.5t-131.5 -177.5q-107 -107 -130 -148t-23 -98q0 -81 57.5 -137t141.5 -56q184 0 229 247l212 -33q-22 -203 -139 -316t-294 -113q-185 0 -308 121t-123 299q0 100 49 186t180 218q71 71 89 117.5
t16 162.5z" />
    <glyph glyph-name="exclamdown" unicode="&#xa1;" horiz-adv-x="559" 
d="M400 1062v-281h-231v281h231zM350 678l59 -741v-344h-249v344l59 741h131z" />
    <glyph glyph-name="logicalnot" unicode="&#xac;" horiz-adv-x="981" 
d="M699 376v441h-630v257h841v-698h-211z" />
    <glyph glyph-name="radical" unicode="&#x221a;" horiz-adv-x="1124" 
d="M1050 1869h74l-312 -1947l-496 1021l-198 -91l-34 64l301 151l405 -823z" />
    <glyph glyph-name="florin" unicode="&#x192;" 
d="M226 851l31 211h165l13 89q23 147 38 190q27 76 84 113t160 37q111 0 220 -41l-44 -226q-77 28 -130 28q-44 0 -65.5 -24t-35.5 -110l-9 -56h170l-30 -211h-168l-141 -978q-23 -160 -72 -223q-63 -81 -195 -81q-131 0 -233 40l47 221q89 -23 137 -23q50 0 68.5 32.5
t33.5 138.5l122 873h-166z" />
    <glyph glyph-name="approxequal" unicode="&#x2248;" horiz-adv-x="1124" 
d="M31 761v258q127 138 296 138q63 0 116 -12.5t166 -58.5q113 -45 149 -55t62 -10q56 0 129.5 34.5t143.5 110.5v-270q-46 -48 -128.5 -90.5t-170.5 -42.5q-50 0 -97.5 12t-150.5 57q-154 67 -242 67q-140 0 -273 -138zM31 276v259q127 137 296 137q63 0 116 -12.5
t166 -57.5t149 -55t62 -10q56 0 129.5 34.5t143.5 109.5v-270q-46 -48 -128.5 -90.5t-170.5 -42.5q-50 0 -97.5 12.5t-150.5 57.5q-154 67 -242 67q-140 0 -273 -139z" />
    <glyph glyph-name="increment" unicode="&#x2206;" horiz-adv-x="1253" 
d="M1226 0h-1200l628 1387zM990 82l-399 967l-440 -967h839z" />
    <glyph glyph-name="guillemotleft" unicode="&#xab;" 
d="M519 983l-212 -451l212 -462h-181l-259 462l259 451h181zM841 983l-213 -451l213 -462h-181l-259 462l259 451h181z" />
    <glyph glyph-name="guillemotright" unicode="&#xbb;" 
d="M409 70l212 452l-212 461h181l259 -461l-259 -452h-181zM87 70l213 452l-213 461h181l259 -461l-259 -452h-181z" />
    <glyph glyph-name="ellipsis" unicode="&#x2026;" horiz-adv-x="1679" 
d="M1285 0v281h230v-281h-230zM725 0v281h230v-281h-230zM165 0v281h231v-281h-231z" />
    <glyph glyph-name="nbspace" unicode="&#xa0;" 
 />
    <glyph glyph-name="Agrave" unicode="&#xc0;" horiz-adv-x="1212" 
d="M1206 0h-264l-105 333h-480l-99 -333h-258l468 1466h257zM759 580l-165 544l-163 -544h328zM730 1564h-146l-226 299h258z" />
    <glyph glyph-name="Atilde" unicode="&#xc3;" horiz-adv-x="1212" 
d="M1206 0h-264l-105 333h-480l-99 -333h-258l468 1466h257zM759 580l-165 544l-163 -544h328zM418 1577h-104l-1 33q0 110 42.5 165.5t107.5 55.5q28 0 53 -8t81 -38q74 -40 110 -40q57 0 67 87h106q-1 -136 -41.5 -193.5t-104.5 -57.5q-27 0 -53 7q-19 5 -88 37
q-83 39 -118 39q-25 0 -40.5 -19.5t-16.5 -67.5z" />
    <glyph glyph-name="Otilde" unicode="&#xd5;" horiz-adv-x="1307" 
d="M74 724q0 262 77.5 431.5t202.5 252.5t303 83q258 0 420.5 -197t162.5 -561q0 -368 -172 -575q-151 -183 -410 -183q-261 0 -412 181q-172 207 -172 568zM324 734q0 -253 96 -379.5t238 -126.5q143 0 237 125.5t94 385.5q0 255 -91.5 377t-239.5 122t-241 -123t-93 -381z
M471 1577h-104l-1 33q0 110 42.5 165.5t107.5 55.5q28 0 53 -8t81 -38q74 -40 110 -40q57 0 67 87h106q-1 -136 -41.5 -193.5t-104.5 -57.5q-27 0 -53 7q-19 5 -88 37q-83 39 -118 39q-25 0 -40.5 -19.5t-16.5 -67.5z" />
    <glyph glyph-name="OE" unicode="&#x152;" horiz-adv-x="1679" 
d="M1627 249v-249h-772v173q-48 -99 -127 -148.5t-190 -49.5q-210 0 -330 166q-149 208 -149 593q0 383 146 586q123 171 324 171q99 0 185 -49.5t141 -137.5v162h749v-248h-539v-326h494v-248h-494v-395h562zM575 1239q-120 0 -186 -99q-80 -120 -80 -384q0 -294 80 -422
q62 -99 186 -99q125 0 185 98q80 128 80 424q0 265 -72.5 373.5t-192.5 108.5z" />
    <glyph glyph-name="oe" unicode="&#x153;" horiz-adv-x="1585" 
d="M1281 341l224 -44q-41 -156 -141.5 -238.5t-237.5 -82.5q-87 0 -167 37.5t-140 110.5q-65 -74 -141 -111t-164 -37q-187 0 -314.5 151.5t-127.5 403.5q0 168 61 298t159.5 193.5t224.5 63.5q91 0 167 -37t137 -111q112 148 291 148q116 0 209.5 -67t145 -204t49.5 -367
h-573q8 -131 59 -194.5t125 -63.5q53 0 91 34.5t63 116.5zM1295 624q-7 133 -56.5 194t-122.5 61q-79 0 -128 -78q-34 -56 -43 -177h350zM309 515q0 -116 55 -211t151 -95q84 0 142.5 81.5t58.5 249.5q0 153 -58.5 233t-142.5 80q-89 0 -147.5 -82t-58.5 -256z" />
    <glyph glyph-name="endash" unicode="&#x2013;" 
d="M-3 426v210h934v-210h-934z" />
    <glyph glyph-name="emdash" unicode="&#x2014;" horiz-adv-x="1679" 
d="M0 426v210h1679v-210h-1679z" />
    <glyph glyph-name="quotedblleft" unicode="&#x201c;" horiz-adv-x="840" 
d="M723 857h-230v202q0 170 39 253q49 103 165 154l45 -117q-68 -27 -98.5 -76t-31.5 -135h111v-281zM339 857h-231v202q0 171 44.5 264t159.5 143l45 -117q-67 -27 -97.5 -76t-32.5 -135h112v-281z" />
    <glyph glyph-name="quotedblright" unicode="&#x201d;" horiz-adv-x="840" 
d="M492 1466h230v-202q0 -169 -39 -253q-49 -103 -165 -154l-45 117q68 28 98.5 77.5t31.5 133.5h-111v281zM105 1466h230v-202q0 -170 -40 -254q-49 -102 -164 -153l-45 117q68 28 98 76.5t32 134.5h-111v281z" />
    <glyph glyph-name="quoteleft" unicode="&#x2018;" horiz-adv-x="467" 
d="M356 857h-231v202q0 171 44.5 264t159.5 143l45 -117q-67 -27 -97.5 -76t-32.5 -135h112v-281z" />
    <glyph glyph-name="quoteright" unicode="&#x2019;" horiz-adv-x="467" 
d="M112 1466h230v-202q0 -170 -40 -254q-49 -102 -164 -153l-45 117q68 28 98 76.5t32 134.5h-111v281z" />
    <glyph glyph-name="divide" unicode="&#xf7;" horiz-adv-x="1124" 
d="M421 981v281h281v-281h-281zM49 592v263h1025v-263h-1025zM421 185v281h281v-281h-281z" />
    <glyph glyph-name="lozenge" unicode="&#x25ca;" horiz-adv-x="1012" 
d="M549 1422l418 -713l-418 -709h-111l-391 709l391 713h111zM495 1325l-340 -616l340 -615l359 615z" />
    <glyph glyph-name="ydieresis" unicode="&#xff;" 
d="M11 1062h246l207 -754l204 754h238l-307 -1022l-59 -199q-39 -112 -77.5 -164t-98 -80t-146.5 -28q-67 0 -131 17l-20 220q54 -13 97 -13q66 0 108.5 44t69.5 160zM188 1250v241h198v-241h-198zM541 1250v241h198v-241h-198z" />
    <glyph glyph-name="Ydieresis" unicode="&#x178;" horiz-adv-x="1120" 
d="M438 0v617l-440 849h284l283 -580l278 580h279l-442 -851v-615h-242zM285 1621v241h198v-241h-198zM638 1621v241h198v-241h-198z" />
    <glyph glyph-name="fraction" unicode="&#x2044;" horiz-adv-x="281" 
d="M-150 -54h-131l713 1538h130z" />
    <glyph glyph-name="fraction" unicode="&#x2215;" horiz-adv-x="281" 
d="M-150 -54h-131l713 1538h130z" />
    <glyph glyph-name="Euro" unicode="&#x20ac;" 
d="M883 1430l-49 -277q-74 84 -199 84q-228 0 -287 -281h451l-29 -155h-438l-2 -15v-79q0 -21 2 -37h418l-27 -156h-373q56 -287 283 -287q142 0 241 119v-305q-105 -66 -245 -66q-206 0 -345.5 139t-187.5 400h-123l27 156h80v131h-107l27 155h98q53 260 194.5 397.5
t348.5 137.5q136 0 242 -61z" />
    <glyph glyph-name="guilsinglleft" unicode="&#x2039;" horiz-adv-x="559" 
d="M502 983l-212 -451l212 -462h-181l-259 462l259 451h181z" />
    <glyph glyph-name="guilsinglright" unicode="&#x203a;" horiz-adv-x="559" 
d="M61 70l213 452l-213 461h181l259 -461l-259 -452h-181z" />
    <glyph glyph-name="fi" unicode="&#xfb01;" horiz-adv-x="1026" 
d="M25 1062h128v80q0 145 27.5 210t89 102t151.5 37q98 0 192 -36l-30 -196q-56 16 -107 16q-49 0 -71 -28t-22 -110v-75h172v-221h-172v-841h-230v841h-128v221zM672 1206v260h230v-260h-230zM672 0v1062h230v-1062h-230z" />
    <glyph glyph-name="fl" unicode="&#xfb02;" horiz-adv-x="1026" 
d="M25 1062h128v80q0 145 27.5 210t89 102t151.5 37q98 0 192 -36l-30 -196q-56 16 -107 16q-49 0 -71 -28t-22 -110v-75h172v-221h-172v-841h-230v841h-128v221zM672 0v1466h231v-1466h-231z" />
    <glyph glyph-name="daggerdbl" unicode="&#x2021;" 
d="M357 -350v333h-301v233h301v656h-301v233h301v343h216v-343h295v-233h-295v-656h295v-233h-295v-333h-216z" />
    <glyph glyph-name="periodcentered" unicode="&#x2219;" horiz-adv-x="467" 
d="M121 573v281h231v-281h-231z" />
    <glyph glyph-name="quotesinglbase" unicode="&#x201a;" horiz-adv-x="467" 
d="M115 281h230v-201q0 -171 -40 -254q-49 -103 -164 -153l-45 116q68 28 98 75.5t32 135.5h-111v281z" />
    <glyph glyph-name="quotedblbase" unicode="&#x201e;" horiz-adv-x="840" 
d="M498 281h230v-201q0 -170 -39 -253q-49 -104 -165 -154l-45 116q68 28 98.5 78t31.5 133h-111v281zM111 281h230v-201q0 -171 -40 -254q-49 -103 -164 -153l-45 116q68 28 98 76.5t32 134.5h-111v281z" />
    <glyph glyph-name="perthousand" unicode="&#x2030;" horiz-adv-x="1679" 
d="M1 1119q0 188 67.5 280t171.5 92q102 0 168.5 -91.5t66.5 -290.5q0 -202 -67 -294t-173 -92q-104 0 -169 91t-65 305zM161 1107q0 -141 24 -191q18 -37 52 -37t51 36q25 52 25 192t-24 191q-18 37 -52 37q-35 0 -52 -36q-24 -52 -24 -192zM230 -52l502 1543h161
l-502 -1543h-161zM655 338q0 188 67.5 280t171.5 92q102 0 168.5 -91.5t66.5 -290.5q0 -202 -66.5 -294.5t-173.5 -92.5q-104 0 -169 91t-65 306zM815 326q0 -141 24 -191q18 -37 52 -37t51 36q25 52 25 192t-24 191q-18 37 -52 37t-52 -37q-24 -51 -24 -191zM1205 338
q0 188 67.5 280t171.5 92q102 0 168.5 -91.5t66.5 -289.5q0 -203 -67 -295.5t-174 -92.5q-103 0 -168 91t-65 306zM1364 326q0 -112 7 -145q10 -47 33 -69q15 -15 35 -15q35 0 53 37q25 51 25 192q0 140 -25 191q-17 37 -51 37q-35 0 -52 -37q-25 -52 -25 -191z" />
    <glyph glyph-name="Acircumflex" unicode="&#xc2;" horiz-adv-x="1212" 
d="M1206 0h-264l-105 333h-480l-99 -333h-258l468 1466h257zM759 580l-165 544l-163 -544h328zM326 1567l172 295h213l170 -295h-185l-95 149l-88 -149h-187z" />
    <glyph glyph-name="Ecircumflex" unicode="&#xca;" horiz-adv-x="1120" 
d="M123 0v1466h892v-248h-650v-325h604v-247h-604v-399h672v-247h-914zM283 1567l172 295h213l170 -295h-185l-95 149l-88 -149h-187z" />
    <glyph glyph-name="Aacute" unicode="&#xc1;" horiz-adv-x="1212" 
d="M1206 0h-264l-105 333h-480l-99 -333h-258l468 1466h257zM759 580l-165 544l-163 -544h328zM477 1564l113 299h259l-226 -299h-146z" />
    <glyph glyph-name="Edieresis" unicode="&#xcb;" horiz-adv-x="1120" 
d="M123 0v1466h892v-248h-650v-325h604v-247h-604v-399h672v-247h-914zM285 1621v241h198v-241h-198zM638 1621v241h198v-241h-198z" />
    <glyph glyph-name="Egrave" unicode="&#xc8;" horiz-adv-x="1120" 
d="M123 0v1466h892v-248h-650v-325h604v-247h-604v-399h672v-247h-914zM688 1564h-146l-226 299h258z" />
    <glyph glyph-name="Iacute" unicode="&#xcd;" horiz-adv-x="467" 
d="M115 0v1466h242v-1466h-242zM110 1564l113 299h259l-226 -299h-146z" />
    <glyph glyph-name="Icircumflex" unicode="&#xce;" horiz-adv-x="467" 
d="M115 0v1466h242v-1466h-242zM-41 1567l172 295h213l170 -295h-185l-95 149l-88 -149h-187z" />
    <glyph glyph-name="Idieresis" unicode="&#xcf;" horiz-adv-x="467" 
d="M115 0v1466h242v-1466h-242zM-39 1621v241h198v-241h-198zM314 1621v241h198v-241h-198z" />
    <glyph glyph-name="Igrave" unicode="&#xcc;" horiz-adv-x="467" 
d="M115 0v1466h242v-1466h-242zM364 1564h-146l-226 299h258z" />
    <glyph glyph-name="Oacute" unicode="&#xd3;" horiz-adv-x="1307" 
d="M74 724q0 262 77.5 431.5t202.5 252.5t303 83q258 0 420.5 -197t162.5 -561q0 -368 -172 -575q-151 -183 -410 -183q-261 0 -412 181q-172 207 -172 568zM324 734q0 -253 96 -379.5t238 -126.5q143 0 237 125.5t94 385.5q0 255 -91.5 377t-239.5 122t-241 -123t-93 -381z
M530 1564l113 299h259l-226 -299h-146z" />
    <glyph glyph-name="Ocircumflex" unicode="&#xd4;" horiz-adv-x="1307" 
d="M74 724q0 262 77.5 431.5t202.5 252.5t303 83q258 0 420.5 -197t162.5 -561q0 -368 -172 -575q-151 -183 -410 -183q-261 0 -412 181q-172 207 -172 568zM324 734q0 -253 96 -379.5t238 -126.5q143 0 237 125.5t94 385.5q0 255 -91.5 377t-239.5 122t-241 -123t-93 -381z
M379 1567l172 295h213l170 -295h-185l-95 149l-88 -149h-187z" />
    <glyph glyph-name="Ograve" unicode="&#xd2;" horiz-adv-x="1307" 
d="M74 724q0 262 77.5 431.5t202.5 252.5t303 83q258 0 420.5 -197t162.5 -561q0 -368 -172 -575q-151 -183 -410 -183q-261 0 -412 181q-172 207 -172 568zM324 734q0 -253 96 -379.5t238 -126.5q143 0 237 125.5t94 385.5q0 255 -91.5 377t-239.5 122t-241 -123t-93 -381z
M784 1564h-146l-226 299h258z" />
    <glyph glyph-name="Uacute" unicode="&#xda;" horiz-adv-x="1212" 
d="M120 1466h242v-794q0 -185 9 -241q16 -97 76.5 -150t159.5 -53q84 0 137 37.5t72.5 104t19.5 285.5v811h243v-770q0 -295 -31.5 -426.5t-142 -213t-291.5 -81.5q-188 0 -293.5 67.5t-153 190t-47.5 451.5v782zM476 1564l113 299h259l-226 -299h-146z" />
    <glyph glyph-name="Ucircumflex" unicode="&#xdb;" horiz-adv-x="1212" 
d="M120 1466h242v-794q0 -185 9 -241q16 -97 76.5 -150t159.5 -53q84 0 137 37.5t72.5 104t19.5 285.5v811h243v-770q0 -295 -31.5 -426.5t-142 -213t-291.5 -81.5q-188 0 -293.5 67.5t-153 190t-47.5 451.5v782zM325 1567l172 295h213l170 -295h-185l-95 149l-88 -149h-187
z" />
    <glyph glyph-name="Ugrave" unicode="&#xd9;" horiz-adv-x="1212" 
d="M120 1466h242v-794q0 -185 9 -241q16 -97 76.5 -150t159.5 -53q84 0 137 37.5t72.5 104t19.5 285.5v811h243v-770q0 -295 -31.5 -426.5t-142 -213t-291.5 -81.5q-188 0 -293.5 67.5t-153 190t-47.5 451.5v782zM730 1564h-146l-226 299h258z" />
    <glyph glyph-name="dotlessi" unicode="&#x131;" horiz-adv-x="467" 
d="M121 0v1062h231v-1062h-231z" />
    <glyph glyph-name="circumflex" unicode="&#x2c6;" horiz-adv-x="559" 
d="M2 1196l172 295h213l170 -295h-185l-95 149l-88 -149h-187z" />
    <glyph glyph-name="tilde" unicode="&#x2dc;" horiz-adv-x="559" 
d="M94 1205h-104l-1 33q0 110 42.5 165.5t107.5 55.5q28 0 53 -8t81 -38q74 -40 110 -40q57 0 67 87h106q-1 -136 -41.5 -193.5t-104.5 -57.5q-27 0 -53 7q-19 5 -88 37q-83 39 -118 39q-25 0 -40.5 -19.5t-16.5 -67.5z" />
    <glyph glyph-name="macron" unicode="&#x2c9;" horiz-adv-x="559" 
d="M15 1237v185h528v-185h-528z" />
    <glyph glyph-name="breve" unicode="&#x2d8;" horiz-adv-x="559" 
d="M420 1491h112q-9 -140 -79.5 -215.5t-175.5 -75.5t-175.5 75.5t-80.5 215.5h112q13 -144 144 -144t143 144z" />
    <glyph glyph-name="dotaccent" unicode="&#x2d9;" horiz-adv-x="559" 
d="M168 1225v266h227v-266h-227z" />
    <glyph glyph-name="ring" unicode="&#x2da;" horiz-adv-x="559" 
d="M441 1342q0 -84 -48.5 -140t-112.5 -56t-112.5 56t-48.5 140q0 85 48 140.5t113 55.5q64 0 112.5 -55.5t48.5 -140.5zM353 1342q0 39 -22 64t-51 25t-51 -25t-22 -64q0 -38 22 -63.5t51 -25.5t51 25.5t22 63.5z" />
    <glyph glyph-name="cedilla" unicode="&#xb8;" horiz-adv-x="559" 
d="M31 -403v118q84 -11 155 -11q68 0 102 26.5t34 67.5q0 37 -27.5 60.5t-77.5 23.5q-52 0 -107 -20l21 99q64 27 140 27q94 0 150.5 -52.5t56.5 -136.5q0 -96 -75 -157t-212 -61q-106 0 -160 16z" />
    <glyph glyph-name="hungarumlaut" unicode="&#x2dd;" horiz-adv-x="559" 
d="M79 1197l114 298h241l-210 -298h-145zM388 1197l115 298h235l-203 -298h-147z" />
    <glyph glyph-name="ogonek" unicode="&#x2db;" horiz-adv-x="559" 
d="M161 26h123q-17 -56 -17 -144q0 -82 31 -120t88 -38q50 0 110 23v-135q-82 -43 -161 -43q-91 0 -147.5 61t-56.5 172q0 88 30 224z" />
    <glyph glyph-name="caron" unicode="&#x2c7;" horiz-adv-x="559" 
d="M2 1491h187l88 -149l95 149h185l-170 -295h-213z" />
    <glyph glyph-name="Lslash" unicode="&#x141;" horiz-adv-x="1026" 
d="M135 732v734h242v-485l170 180v-243l-170 -178v-493h604v-247h-846v494l-127 -129v237z" />
    <glyph glyph-name="lslash" unicode="&#x142;" horiz-adv-x="467" 
d="M121 720v746h231v-507l112 116v-190l-112 -116v-769h-231v530l-112 -116v190z" />
    <glyph glyph-name="Scaron" unicode="&#x160;" horiz-adv-x="1120" 
d="M61 477l237 28q40 -281 262 -281q110 0 173 57.5t63 142.5q0 50 -22 85t-67 57.5t-218 75.5q-155 47 -227 102t-114.5 144.5t-42.5 192.5q0 120 54.5 216t150.5 145t237 49q212 0 331 -115t126 -329l-243 -13q-16 118 -69 165t-151 47t-151 -41t-53 -102q0 -60 48 -101
t221 -90q183 -53 264.5 -111.5t124.5 -151t43 -224.5q0 -191 -117.5 -321t-367.5 -130q-442 0 -492 503zM282 1862h187l88 -149l95 149h185l-170 -295h-213z" />
    <glyph glyph-name="scaron" unicode="&#x161;" 
d="M40 303l231 43q30 -167 186 -167q83 0 124 32t41 83q0 35 -18 55q-19 20 -75 35q-284 75 -361 143q-96 85 -96 233t94 237t273 89q171 0 260 -66.5t125 -214.5l-217 -49q-29 128 -164 128q-85 0 -121 -24.5t-36 -63.5q0 -35 33 -58q33 -24 205 -72q193 -54 262 -131
q68 -77 68 -205q0 -154 -105.5 -254t-291.5 -100q-169 0 -276 83.5t-141 243.5zM169 1491h187l88 -149l95 149h185l-170 -295h-213z" />
    <glyph glyph-name="Zcaron" unicode="&#x17d;" horiz-adv-x="1026" 
d="M18 0v267l632 951h-561v248h880v-230l-658 -989h684v-247h-977zM239 1862h187l88 -149l95 149h185l-170 -295h-213z" />
    <glyph glyph-name="zcaron" unicode="&#x17e;" horiz-adv-x="840" 
d="M28 0v219l327 457q80 112 118 159q-40 -3 -106 -4l-307 -2v233h720v-199l-333 -468l-117 -155q96 7 119 7h357v-247h-778zM139 1491h187l88 -149l95 149h185l-170 -295h-213z" />
    <glyph glyph-name="brokenbar" unicode="&#xa6;" horiz-adv-x="471" 
d="M145 701v790h183v-790h-183zM145 -431v791h183v-791h-183z" />
    <glyph glyph-name="Eth" unicode="&#xd0;" horiz-adv-x="1212" 
d="M122 1466h443q167 0 253 -37.5t157.5 -126t112.5 -232t41 -354.5q0 -188 -43 -329t-109 -222.5t-159.5 -123t-239.5 -41.5h-456v640h-125v186h125v640zM364 1218v-392h257v-186h-257v-393h182q116 0 169 22t86 65.5t55.5 140.5t22.5 248q0 175 -24.5 268.5t-72 146
t-116.5 68.5q-50 12 -193 12h-109z" />
    <glyph glyph-name="eth" unicode="&#xf0;" horiz-adv-x="1026" 
d="M272 1466h241l89 -89l148 89l37 -98l-118 -67q150 -185 222.5 -378t72.5 -380q0 -265 -130 -416.5t-323 -151.5q-187 0 -307 142q-136 161 -136 416q0 251 141 408q108 121 241 121q43 0 82 -13.5t100 -55.5q-49 109 -119 217l-206 -119l-35 96l179 103q-81 91 -179 176z
M308 530q0 -160 60 -243t145 -83q86 0 148.5 83t62.5 233q0 151 -64 236t-148 85q-83 0 -143.5 -80t-60.5 -231z" />
    <glyph glyph-name="Yacute" unicode="&#xdd;" horiz-adv-x="1120" 
d="M438 0v617l-440 849h284l283 -580l278 580h279l-442 -851v-615h-242zM434 1564l113 299h259l-226 -299h-146z" />
    <glyph glyph-name="yacute" unicode="&#xfd;" 
d="M11 1062h246l207 -754l204 754h238l-307 -1022l-59 -199q-39 -112 -77.5 -164t-98 -80t-146.5 -28q-67 0 -131 17l-20 220q54 -13 97 -13q66 0 108.5 44t69.5 160zM342 1192l113 299h259l-226 -299h-146z" />
    <glyph glyph-name="Thorn" unicode="&#xde;" horiz-adv-x="1120" 
d="M122 0v1466h242v-276h148q219 0 286 -22q106 -34 175.5 -144.5t69.5 -285.5q0 -159 -60 -266.5t-150 -151.5t-310 -44h-159v-276h-242zM364 942v-417h134q147 0 190 17t73.5 68t30.5 124q0 77 -31 127.5t-72.5 65.5t-206.5 15h-118z" />
    <glyph glyph-name="thorn" unicode="&#xfe;" horiz-adv-x="1026" 
d="M114 1466h231v-528q69 86 127 117t128 31q149 0 256.5 -142t107.5 -403q0 -274 -108 -419.5t-257 -145.5q-69 0 -128.5 33.5t-125.5 121.5v-535h-231v1870zM343 554q0 -137 26 -209t74 -109.5t101 -37.5q76 0 130 79.5t54 251.5q0 181 -54.5 261.5t-138.5 80.5
q-80 0 -136 -78t-56 -239z" />
    <glyph glyph-name="minus" unicode="&#x2212;" horiz-adv-x="981" 
d="M69 592v263h841v-263h-841z" />
    <glyph glyph-name="multiply" unicode="&#xd7;" horiz-adv-x="981" 
d="M90 420l248 302l-249 303l152 186l249 -303l248 302l149 -182l-248 -302l250 -305l-152 -186l-250 305l-248 -302z" />
    <glyph glyph-name="onesuperior" unicode="&#xb9;" horiz-adv-x="559" 
d="M406 727h-155v513q-77 -64 -176 -98v155q72 24 127.5 74.5t77.5 112.5h126v-757z" />
    <glyph glyph-name="twosuperior" unicode="&#xb2;" horiz-adv-x="559" 
d="M518 885v-158h-498q9 89 47.5 157t156.5 181q97 92 117.5 125.5t20.5 68.5q0 40 -22 61t-61 21q-41 0 -62 -24t-25 -91l-156 16q11 92 38.5 139t81.5 75t127 28q108 0 171.5 -61t63.5 -155q0 -47 -15.5 -92t-52.5 -95q-24 -34 -122 -127q-47 -45 -67 -69h257z" />
    <glyph glyph-name="threesuperior" unicode="&#xb3;" horiz-adv-x="559" 
d="M32 946l151 20q12 -108 93 -108q39 0 64 29.5t25 78.5q0 45 -24 72t-61 27q-24 0 -74 -15l19 146q56 -1 84 21q27 21 27 58q0 31 -18 48.5t-50 17.5q-70 0 -81 -98l-146 26q22 107 66 152q62 63 165 63q96 0 158.5 -59.5t62.5 -144.5q0 -42 -20 -78t-60 -66
q56 -24 83.5 -68.5t27.5 -109.5q0 -102 -71.5 -172.5t-177.5 -70.5q-100 0 -165.5 60.5t-77.5 170.5z" />
    <glyph glyph-name="onehalf" unicode="&#xbd;" horiz-adv-x="1401" 
d="M406 727h-155v513q-77 -64 -176 -98v155q72 24 127.5 74.5t77.5 112.5h126v-757zM409 -54h-131l713 1538h130zM1358 116v-158h-498q9 89 47.5 157t156.5 181q97 92 117.5 125.5t20.5 68.5q0 40 -22 61t-61 21q-41 0 -62 -24t-25 -91l-156 16q11 92 38.5 139t81.5 75
t127 28q108 0 171.5 -61t63.5 -155q0 -47 -15.5 -92t-52.5 -95q-24 -34 -122 -127q-47 -45 -67 -69h257z" />
    <glyph glyph-name="onequarter" unicode="&#xbc;" horiz-adv-x="1401" 
d="M406 727h-155v513q-77 -64 -176 -98v155q72 24 127.5 74.5t77.5 112.5h126v-757zM409 -54h-131l713 1538h130zM1149 -42v146h-295v141l313 470h128v-466h89v-145h-89v-146h-146zM1149 249v225l-149 -225h149z" />
    <glyph glyph-name="threequarters" unicode="&#xbe;" horiz-adv-x="1401" 
d="M33 946l151 20q12 -108 93 -108q39 0 64 29.5t25 78.5q0 45 -24 72t-61 27q-24 0 -74 -15l19 146q56 -1 84 21q27 21 27 58q0 31 -18 48.5t-50 17.5q-70 0 -81 -98l-146 26q22 107 66 152q62 63 165 63q96 0 158.5 -59.5t62.5 -144.5q0 -42 -20 -78t-60 -66
q56 -24 83.5 -68.5t27.5 -109.5q0 -102 -71.5 -172.5t-177.5 -70.5q-100 0 -165.5 60.5t-77.5 170.5zM429 -54h-131l713 1538h130zM1150 -42v146h-295v141l313 470h128v-466h89v-145h-89v-146h-146zM1150 249v225l-149 -225h149z" />
    <glyph glyph-name="franc" unicode="&#x20a3;" horiz-adv-x="1032" 
d="M124 225h-124v187h124v1054h824v-248h-581v-347h502v-248h-502v-211h244v-187h-244v-225h-243v225z" />
    <glyph glyph-name="Gbreve" unicode="&#x11e;" horiz-adv-x="1307" 
d="M682 539v247h523v-584q-79 -93 -224 -160t-291 -67q-178 0 -314 87.5t-215.5 262t-79.5 410.5q0 242 80.5 414t209 257t307.5 85q215 0 344.5 -109.5t166.5 -321.5l-240 -55q-27 113 -99 173t-172 60q-155 0 -251 -120.5t-96 -367.5q0 -265 104 -403q89 -119 241 -119
q71 0 147.5 33.5t136.5 91.5v186h-278zM806 1863h112q-9 -140 -79.5 -215.5t-175.5 -75.5t-175.5 75.5t-80.5 215.5h112q13 -144 144 -144t143 144z" />
    <glyph glyph-name="gbreve" unicode="&#x11f;" horiz-adv-x="1026" 
d="M99 -70l264 -39q6 -58 36.5 -82.5t96.5 -24.5q76 0 123 25q33 18 51 60t18 148v155q-52 -86 -117 -129t-144 -43q-145 0 -244 131q-114 150 -114 406q0 272 107.5 410.5t260.5 138.5q81 0 147.5 -43t118.5 -130v149h216v-953q0 -229 -42 -332t-129.5 -155.5t-242.5 -52.5
q-143 0 -229 38t-131.5 113.5t-45.5 174.5v35zM305 553q0 -170 54.5 -248t131.5 -78q83 0 142 79t59 240q0 166 -56.5 245.5t-139.5 79.5q-82 0 -136.5 -78t-54.5 -240zM657 1491h112q-9 -140 -79.5 -215.5t-175.5 -75.5t-175.5 75.5t-80.5 215.5h112q13 -144 144 -144
t143 144z" />
    <glyph glyph-name="Idot" unicode="&#x130;" horiz-adv-x="467" 
d="M115 0v1466h242v-1466h-242zM125 1596v266h227v-266h-227z" />
    <glyph glyph-name="Scedilla" unicode="&#x15e;" horiz-adv-x="1120" 
d="M61 477l237 28q40 -281 262 -281q110 0 173 57.5t63 142.5q0 50 -22 85t-67 57.5t-218 75.5q-155 47 -227 102t-114.5 144.5t-42.5 192.5q0 120 54.5 216t150.5 145t237 49q212 0 331 -115t126 -329l-243 -13q-16 118 -69 165t-151 47t-151 -41t-53 -102q0 -60 48 -101
t221 -90q183 -53 264.5 -111.5t124.5 -151t43 -224.5q0 -191 -117.5 -321t-367.5 -130q-442 0 -492 503zM311 -403v118q84 -11 155 -11q68 0 102 26.5t34 67.5q0 37 -27.5 60.5t-77.5 23.5q-52 0 -107 -20l21 99q64 27 140 27q94 0 150.5 -52.5t56.5 -136.5q0 -96 -75 -157
t-212 -61q-106 0 -160 16z" />
    <glyph glyph-name="scedilla" unicode="&#x15f;" 
d="M40 303l231 43q30 -167 186 -167q83 0 124 32t41 83q0 35 -18 55q-19 20 -75 35q-284 75 -361 143q-96 85 -96 233t94 237t273 89q171 0 260 -66.5t125 -214.5l-217 -49q-29 128 -164 128q-85 0 -121 -24.5t-36 -63.5q0 -35 33 -58q33 -24 205 -72q193 -54 262 -131
q68 -77 68 -205q0 -154 -105.5 -254t-291.5 -100q-169 0 -276 83.5t-141 243.5zM215 -403v118q84 -11 155 -11q68 0 102 26.5t34 67.5q0 37 -27.5 60.5t-77.5 23.5q-52 0 -107 -20l21 99q64 27 140 27q94 0 150.5 -52.5t56.5 -136.5q0 -96 -75 -157t-212 -61q-106 0 -160 16
z" />
    <glyph glyph-name="Cacute" unicode="&#x106;" horiz-adv-x="1212" 
d="M892 539l235 -91q-55 -246 -183 -359.5t-315 -113.5q-235 0 -381 181q-168 209 -168 564q0 375 169 587q147 184 395 184q202 0 338 -138q97 -98 142 -291l-240 -70q-23 119 -91.5 182.5t-161.5 63.5q-133 0 -217 -116t-84 -383q0 -277 82 -394t213 -117q96 0 166 74.5
t101 236.5zM513 1564l113 299h259l-226 -299h-146z" />
    <glyph glyph-name="cacute" unicode="&#x107;" 
d="M880 748l-227 -50q-25 167 -157 167q-85 0 -137 -72t-52 -243q0 -189 52 -267t139 -78q65 0 107 44.5t60 157.5l227 -47q-70 -384 -403 -384q-213 0 -316 162t-103 390q0 273 116.5 415.5t305.5 142.5q153 0 249.5 -81t138.5 -257zM386 1192l113 299h259l-226 -299h-146z
" />
    <glyph glyph-name="Ccaron" unicode="&#x10c;" horiz-adv-x="1212" 
d="M892 539l235 -91q-55 -246 -183 -359.5t-315 -113.5q-235 0 -381 181q-168 209 -168 564q0 375 169 587q147 184 395 184q202 0 338 -138q97 -98 142 -291l-240 -70q-23 119 -91.5 182.5t-161.5 63.5q-133 0 -217 -116t-84 -383q0 -277 82 -394t213 -117q96 0 166 74.5
t101 236.5zM350 1862h187l88 -149l95 149h185l-170 -295h-213z" />
    <glyph glyph-name="ccaron" unicode="&#x10d;" 
d="M880 748l-227 -50q-25 167 -157 167q-85 0 -137 -72t-52 -243q0 -189 52 -267t139 -78q65 0 107 44.5t60 157.5l227 -47q-70 -384 -403 -384q-213 0 -316 162t-103 390q0 273 116.5 415.5t305.5 142.5q153 0 249.5 -81t138.5 -257zM235 1491h187l88 -149l95 149h185
l-170 -295h-213z" />
    <glyph glyph-name="dmacron" unicode="&#x111;" horiz-adv-x="1032" 
d="M689 1201h-248v132h248v133h231v-133h90v-132h-90v-1201h-215v156q-53 -90 -125 -135t-148 -45q-146 0 -254.5 145.5t-108.5 415.5q0 272 106 410.5t261 138.5q73 0 136.5 -37t116.5 -111v263zM305 554q0 -144 24.5 -214.5t70 -106t102.5 -35.5q76 0 132 82t56 247
q0 183 -54.5 263.5t-138.5 80.5q-80 0 -136 -79t-56 -238z" />
    <glyph glyph-name="overscore" unicode="&#xaf;" horiz-adv-x="1024" 
d="M-12 1722h1048v-103h-1048v103z" />
    <glyph glyph-name="middot" unicode="&#xb7;" horiz-adv-x="559" 
d="M164 573v281h231v-281h-231z" />
    <glyph glyph-name="Abreve" unicode="&#x102;" horiz-adv-x="1212" 
d="M1206 0h-264l-105 333h-480l-99 -333h-258l468 1466h257zM759 580l-165 544l-163 -544h328zM751 1863h112q-9 -140 -79.5 -215.5t-175.5 -75.5t-175.5 75.5t-80.5 215.5h112q13 -144 144 -144t143 144z" />
    <glyph glyph-name="abreve" unicode="&#x103;" 
d="M293 738l-209 46q38 161 125.5 231.5t251.5 70.5q146 0 223 -41t110 -111.5t33 -256.5l-2 -328q0 -138 11 -205.5t41 -143.5h-228l-30 116q-59 -70 -126.5 -105t-143.5 -35q-127 0 -208 85.5t-81 227.5q0 90 33 157t93 107t192 71q160 37 223 69q0 88 -12.5 115.5t-46 45
t-94.5 17.5q-62 0 -97.5 -28t-57.5 -105zM601 510q-44 -18 -137 -42q-107 -28 -140 -62t-33 -88q0 -61 36.5 -102.5t91.5 -41.5q49 0 97 33.5t66.5 79.5t18.5 167v56zM628 1491h112q-9 -140 -79.5 -215.5t-175.5 -75.5t-175.5 75.5t-80.5 215.5h112q13 -144 144 -144
t143 144z" />
    <glyph glyph-name="Aogonek" unicode="&#x104;" horiz-adv-x="1212" 
d="M1206 0h-264l-105 333h-480l-99 -333h-258l468 1466h257zM759 580l-165 544l-163 -544h328zM947 26h123q-17 -56 -17 -144q0 -82 31 -120t88 -38q50 0 110 23v-135q-82 -43 -161 -43q-91 0 -147.5 61t-56.5 172q0 88 30 224z" />
    <glyph glyph-name="aogonek" unicode="&#x105;" 
d="M293 738l-209 46q38 161 125.5 231.5t251.5 70.5q146 0 223 -41t110 -111.5t33 -256.5l-2 -328q0 -138 11 -205.5t41 -143.5h-228l-30 116q-59 -70 -126.5 -105t-143.5 -35q-127 0 -208 85.5t-81 227.5q0 90 33 157t93 107t192 71q160 37 223 69q0 88 -12.5 115.5t-46 45
t-94.5 17.5q-62 0 -97.5 -28t-57.5 -105zM601 510q-44 -18 -137 -42q-107 -28 -140 -62t-33 -88q0 -61 36.5 -102.5t91.5 -41.5q49 0 97 33.5t66.5 79.5t18.5 167v56zM646 26h123q-17 -56 -17 -144q0 -82 31 -120t88 -38q50 0 110 23v-135q-82 -43 -161 -43q-91 0 -147.5 61
t-56.5 172q0 88 30 224z" />
    <glyph glyph-name="Dcaron" unicode="&#x10e;" horiz-adv-x="1212" 
d="M121 1466h443q168 0 253.5 -37.5t157.5 -126.5t113 -231t41 -353q0 -190 -43 -330.5t-109 -222.5t-159.5 -123.5t-240.5 -41.5h-456v1466zM363 1218v-971h182q117 0 169.5 22t86 66.5t55.5 140.5t22 253q0 163 -22.5 257t-70 148t-115.5 71q-51 13 -197 13h-110z
M229 1863h187l88 -149l95 149h185l-170 -295h-213z" />
    <glyph glyph-name="dcaron" unicode="&#x10f;" horiz-adv-x="1206" 
d="M920 0h-215v156q-53 -90 -125 -135t-148 -45q-146 0 -254.5 145.5t-108.5 415.5q0 272 106 410.5t261 138.5q73 0 136.5 -37t116.5 -111v528h231v-1466zM305 554q0 -144 24.5 -214.5t70 -106t102.5 -35.5q76 0 132 82t56 247q0 183 -54.5 263.5t-138.5 80.5
q-80 0 -136 -79t-56 -238zM999 1466h230v-202q0 -170 -40 -254q-49 -102 -164 -153l-45 117q68 28 98 76.5t32 134.5h-111v281z" />
    <glyph glyph-name="Dslash" unicode="&#x110;" horiz-adv-x="1212" 
d="M122 1466h443q167 0 253 -37.5t157.5 -126t112.5 -232t41 -354.5q0 -188 -43 -329t-109 -222.5t-159.5 -123t-239.5 -41.5h-456v640h-125v186h125v640zM364 1218v-392h257v-186h-257v-393h182q116 0 169 22t86 65.5t55.5 140.5t22.5 248q0 175 -24.5 268.5t-72 146
t-116.5 68.5q-50 12 -193 12h-109z" />
    <glyph glyph-name="Eogonek" unicode="&#x118;" horiz-adv-x="1120" 
d="M123 0v1466h892v-248h-650v-325h604v-247h-604v-399h672v-247h-914zM702 26h123q-17 -56 -17 -144q0 -82 31 -120t88 -38q50 0 110 23v-135q-82 -43 -161 -43q-91 0 -147.5 61t-56.5 172q0 88 30 224z" />
    <glyph glyph-name="eogonek" unicode="&#x119;" 
d="M626 338l229 -47q-46 -160 -143 -237.5t-236 -77.5q-193 0 -298 129q-124 150 -124 420q0 266 125 426q106 135 274 135q187 0 293 -138q122 -158 122 -466l-1 -32h-577q2 -126 56.5 -195t131.5 -69q111 0 148 152zM639 622q-3 124 -53 186.5t-119 62.5q-73 0 -123 -65
q-51 -66 -50 -184h345zM430 26h123q-17 -56 -17 -144q0 -82 31 -120t88 -38q50 0 110 23v-135q-82 -43 -161 -43q-91 0 -147.5 61t-56.5 172q0 88 30 224z" />
    <glyph glyph-name="Ecaron" unicode="&#x11a;" horiz-adv-x="1120" 
d="M123 0v1466h892v-248h-650v-325h604v-247h-604v-399h672v-247h-914zM295 1863h187l88 -149l95 149h185l-170 -295h-213z" />
    <glyph glyph-name="ecaron" unicode="&#x11b;" 
d="M626 338l229 -47q-46 -160 -143 -237.5t-236 -77.5q-193 0 -298 129q-124 150 -124 420q0 266 125 426q106 135 274 135q187 0 293 -138q122 -158 122 -466l-1 -32h-577q2 -126 56.5 -195t131.5 -69q111 0 148 152zM639 622q-3 124 -53 186.5t-119 62.5q-73 0 -123 -65
q-51 -66 -50 -184h345zM194 1491h187l88 -149l95 149h185l-170 -295h-213z" />
    <glyph glyph-name="Lacute" unicode="&#x139;" horiz-adv-x="1026" 
d="M129 0v1454h242v-1207h604v-247h-846zM353 1564l113 299h259l-226 -299h-146z" />
    <glyph glyph-name="lacute" unicode="&#x13a;" horiz-adv-x="467" 
d="M121 0v1466h231v-1466h-231zM100 1541l113 299h259l-226 -299h-146z" />
    <glyph glyph-name="Lcaron" unicode="&#x13d;" horiz-adv-x="1026" 
d="M129 0v1454h242v-1207h604v-247h-846zM690 1479h208v-181q0 -217 -181 -298l-41 105q91 35 115 121h-101v253z" />
    <glyph glyph-name="lcaron" unicode="&#x13e;" horiz-adv-x="647" 
d="M121 0v1466h231v-1466h-231zM435 1466h230v-202q0 -170 -40 -254q-49 -102 -164 -153l-45 117q68 28 98 76.5t32 134.5h-111v281z" />
    <glyph glyph-name="Ldot" unicode="&#x13f;" horiz-adv-x="1026" 
d="M129 0v1454h242v-1207h604v-247h-846zM637 580v266h227v-266h-227z" />
    <glyph glyph-name="ldot" unicode="&#x140;" horiz-adv-x="684" 
d="M121 0v1466h231v-1466h-231zM456 580v266h227v-266h-227z" />
    <glyph glyph-name="Nacute" unicode="&#x143;" horiz-adv-x="1212" 
d="M125 0v1466h236l492 -979v979h226v-1466h-244l-484 956v-956h-226zM465 1564l113 299h259l-226 -299h-146z" />
    <glyph glyph-name="nacute" unicode="&#x144;" horiz-adv-x="1026" 
d="M913 0h-231v542q0 163 -13 217t-48.5 83t-80.5 29q-58 0 -105 -37.5t-66 -103.5t-19 -249v-481h-231v1062h214v-156q57 90 128.5 135t158.5 45q101 0 170.5 -52.5t96 -135t26.5 -238.5v-660zM407 1192l113 299h259l-226 -299h-146z" />
    <glyph glyph-name="Ncaron" unicode="&#x147;" horiz-adv-x="1212" 
d="M125 0v1466h236l492 -979v979h226v-1466h-244l-484 956v-956h-226zM326 1863h187l88 -149l95 149h185l-170 -295h-213z" />
    <glyph glyph-name="ncaron" unicode="&#x148;" horiz-adv-x="1026" 
d="M913 0h-231v542q0 163 -13 217t-48.5 83t-80.5 29q-58 0 -105 -37.5t-66 -103.5t-19 -249v-481h-231v1062h214v-156q57 90 128.5 135t158.5 45q101 0 170.5 -52.5t96 -135t26.5 -238.5v-660zM239 1491h187l88 -149l95 149h185l-170 -295h-213z" />
    <glyph glyph-name="Odblacute" unicode="&#x150;" horiz-adv-x="1307" 
d="M74 724q0 262 77.5 431.5t202.5 252.5t303 83q258 0 420.5 -197t162.5 -561q0 -368 -172 -575q-151 -183 -410 -183q-261 0 -412 181q-172 207 -172 568zM324 734q0 -253 96 -379.5t238 -126.5q143 0 237 125.5t94 385.5q0 255 -91.5 377t-239.5 122t-241 -123t-93 -381z
M456 1569l114 298h241l-210 -298h-145zM765 1569l115 298h235l-203 -298h-147z" />
    <glyph glyph-name="odblacute" unicode="&#x151;" horiz-adv-x="1026" 
d="M67 546q0 156 62 284t162 192t225 64q210 0 330 -164.5t120 -384.5q0 -164 -62.5 -296t-164 -198.5t-222.5 -66.5q-194 0 -322 148t-128 422zM303 531q0 -161 63 -243.5t152 -82.5q87 0 149 83t62 245q0 158 -63 241t-151 83q-87 0 -149.5 -83t-62.5 -243zM270 1197
l114 298h241l-210 -298h-145zM579 1197l115 298h235l-203 -298h-147z" />
    <glyph glyph-name="Racute" unicode="&#x154;" horiz-adv-x="1212" 
d="M123 0v1466h511q196 0 280 -39.5t138 -137t54 -233.5q0 -172 -82.5 -277t-234.5 -132q78 -56 129 -122.5t139 -238.5l146 -286h-289l-176 319q-95 173 -129 216.5t-72 60t-122 16.5h-50v-612h-242zM365 846h180q165 0 210 14.5t73 58.5t28 117q0 70 -28 112.5t-76 58.5
q-34 11 -197 11h-190v-372zM417 1564l113 299h259l-226 -299h-146z" />
    <glyph glyph-name="racute" unicode="&#x155;" horiz-adv-x="653" 
d="M342 0h-231v1062h214v-151q55 106 98.5 140.5t100.5 34.5q79 0 151 -53l-72 -245q-57 46 -108 46q-48 0 -84.5 -35.5t-52.5 -128.5t-16 -342v-328zM245 1192l113 299h259l-226 -299h-146z" />
    <glyph glyph-name="Rcaron" unicode="&#x158;" horiz-adv-x="1212" 
d="M123 0v1466h511q196 0 280 -39.5t138 -137t54 -233.5q0 -172 -82.5 -277t-234.5 -132q78 -56 129 -122.5t139 -238.5l146 -286h-289l-176 319q-95 173 -129 216.5t-72 60t-122 16.5h-50v-612h-242zM365 846h180q165 0 210 14.5t73 58.5t28 117q0 70 -28 112.5t-76 58.5
q-34 11 -197 11h-190v-372zM278 1863h187l88 -149l95 149h185l-170 -295h-213z" />
    <glyph glyph-name="rcaron" unicode="&#x159;" horiz-adv-x="653" 
d="M342 0h-231v1062h214v-151q55 106 98.5 140.5t100.5 34.5q79 0 151 -53l-72 -245q-57 46 -108 46q-48 0 -84.5 -35.5t-52.5 -128.5t-16 -342v-328zM84 1491h187l88 -149l95 149h185l-170 -295h-213z" />
    <glyph glyph-name="Sacute" unicode="&#x15a;" horiz-adv-x="1120" 
d="M61 477l237 28q40 -281 262 -281q110 0 173 57.5t63 142.5q0 50 -22 85t-67 57.5t-218 75.5q-155 47 -227 102t-114.5 144.5t-42.5 192.5q0 120 54.5 216t150.5 145t237 49q212 0 331 -115t126 -329l-243 -13q-16 118 -69 165t-151 47t-151 -41t-53 -102q0 -60 48 -101
t221 -90q183 -53 264.5 -111.5t124.5 -151t43 -224.5q0 -191 -117.5 -321t-367.5 -130q-442 0 -492 503zM469 1564l113 299h259l-226 -299h-146z" />
    <glyph glyph-name="sacute" unicode="&#x15b;" 
d="M40 303l231 43q30 -167 186 -167q83 0 124 32t41 83q0 35 -18 55q-19 20 -75 35q-284 75 -361 143q-96 85 -96 233t94 237t273 89q171 0 260 -66.5t125 -214.5l-217 -49q-29 128 -164 128q-85 0 -121 -24.5t-36 -63.5q0 -35 33 -58q33 -24 205 -72q193 -54 262 -131
q68 -77 68 -205q0 -154 -105.5 -254t-291.5 -100q-169 0 -276 83.5t-141 243.5zM315 1192l113 299h259l-226 -299h-146z" />
    <glyph glyph-name="Tcedilla" unicode="&#x162;" horiz-adv-x="1026" 
d="M393 0v1218h-357v248h955v-248h-356v-1218h-242zM291 -403v118q84 -11 155 -11q68 0 102 26.5t34 67.5q0 37 -27.5 60.5t-77.5 23.5q-52 0 -107 -20l21 99q64 27 140 27q94 0 150.5 -52.5t56.5 -136.5q0 -96 -75 -157t-212 -61q-106 0 -160 16z" />
    <glyph glyph-name="tcedilla" unicode="&#x163;" horiz-adv-x="559" 
d="M519 1062v-224h-157v-428q0 -139 7 -161q14 -40 57 -40q32 0 92 27l20 -218q-80 -42 -181 -42q-88 0 -141 42t-71 121q-14 58 -14 236v463h-106v224h106v211l231 164v-375h157zM101 -403v118q84 -11 155 -11q68 0 102 26.5t34 67.5q0 37 -27.5 60.5t-77.5 23.5
q-52 0 -107 -20l21 99q64 27 140 27q94 0 150.5 -52.5t56.5 -136.5q0 -96 -75 -157t-212 -61q-106 0 -160 16z" />
    <glyph glyph-name="Tcaron" unicode="&#x164;" horiz-adv-x="1026" 
d="M393 0v1218h-357v248h955v-248h-356v-1218h-242zM233 1863h187l88 -149l95 149h185l-170 -295h-213z" />
    <glyph glyph-name="tcaron" unicode="&#x165;" horiz-adv-x="805" 
d="M519 1062v-224h-157v-428q0 -139 7 -161q14 -40 57 -40q32 0 92 27l20 -218q-80 -42 -181 -42q-88 0 -141 42t-71 121q-14 58 -14 236v463h-106v224h106v211l231 164v-375h157zM598 1479h208v-181q0 -217 -181 -298l-41 105q91 35 115 121h-101v253z" />
    <glyph glyph-name="Uring" unicode="&#x16e;" horiz-adv-x="1212" 
d="M120 1466h242v-794q0 -185 9 -241q16 -97 76.5 -150t159.5 -53q84 0 137 37.5t72.5 104t19.5 285.5v811h243v-770q0 -295 -31.5 -426.5t-142 -213t-291.5 -81.5q-188 0 -293.5 67.5t-153 190t-47.5 451.5v782zM761 1783q0 -84 -48.5 -140t-112.5 -56t-112.5 56t-48.5 140
q0 85 48 140.5t113 55.5q64 0 112.5 -55.5t48.5 -140.5zM673 1783q0 39 -22 64t-51 25t-51 -25t-22 -64q0 -38 22 -63.5t51 -25.5t51 25.5t22 63.5z" />
    <glyph glyph-name="uring" unicode="&#x16f;" horiz-adv-x="1026" 
d="M693 0v159q-48 -86 -126 -134.5t-163 -48.5q-86 0 -154 45t-101.5 128t-33.5 241v672h231v-488q0 -209 10.5 -265.5t46.5 -87.5t87 -31q58 0 107 40.5t64.5 104t15.5 279.5v448h230v-1062h-214zM672 1342q0 -84 -48.5 -140t-112.5 -56t-112.5 56t-48.5 140q0 85 48 140.5
t113 55.5q64 0 112.5 -55.5t48.5 -140.5zM584 1342q0 39 -22 64t-51 25t-51 -25t-22 -64q0 -38 22 -63.5t51 -25.5t51 25.5t22 63.5z" />
    <glyph glyph-name="Udblacute" unicode="&#x170;" horiz-adv-x="1212" 
d="M120 1466h242v-794q0 -185 9 -241q16 -97 76.5 -150t159.5 -53q84 0 137 37.5t72.5 104t19.5 285.5v811h243v-770q0 -295 -31.5 -426.5t-142 -213t-291.5 -81.5q-188 0 -293.5 67.5t-153 190t-47.5 451.5v782zM354 1569l114 298h241l-210 -298h-145zM663 1569l115 298
h235l-203 -298h-147z" />
    <glyph glyph-name="udblacute" unicode="&#x171;" horiz-adv-x="1026" 
d="M693 0v159q-48 -86 -126 -134.5t-163 -48.5q-86 0 -154 45t-101.5 128t-33.5 241v672h231v-488q0 -209 10.5 -265.5t46.5 -87.5t87 -31q58 0 107 40.5t64.5 104t15.5 279.5v448h230v-1062h-214zM289 1197l114 298h241l-210 -298h-145zM598 1197l115 298h235l-203 -298
h-147z" />
    <glyph glyph-name="Zacute" unicode="&#x179;" horiz-adv-x="1026" 
d="M18 0v267l632 951h-561v248h880v-230l-658 -989h684v-247h-977zM426 1564l113 299h259l-226 -299h-146z" />
    <glyph glyph-name="zacute" unicode="&#x17a;" horiz-adv-x="840" 
d="M28 0v219l327 457q80 112 118 159q-40 -3 -106 -4l-307 -2v233h720v-199l-333 -468l-117 -155q96 7 119 7h357v-247h-778zM285 1192l113 299h259l-226 -299h-146z" />
    <glyph glyph-name="Zdot" unicode="&#x17b;" horiz-adv-x="1026" 
d="M18 0v267l632 951h-561v248h880v-230l-658 -989h684v-247h-977zM405 1623v266h227v-266h-227z" />
    <glyph glyph-name="zdot" unicode="&#x17c;" horiz-adv-x="840" 
d="M28 0v219l327 457q80 112 118 159q-40 -3 -106 -4l-307 -2v233h720v-199l-333 -468l-117 -155q96 7 119 7h357v-247h-778zM319 1249v266h227v-266h-227z" />
    <glyph glyph-name="Gamma" unicode="&#x393;" horiz-adv-x="1010" 
d="M127 0v1454h846v-248h-604v-1206h-242z" />
    <glyph glyph-name="Theta" unicode="&#x398;" horiz-adv-x="1307" 
d="M665 -25q-295 0 -443 211t-148 539q0 360 155 563t426 203q266 0 425 -201.5t159 -531.5q0 -372 -152.5 -577.5t-421.5 -205.5zM657 1239q-158 0 -246 -131.5t-88 -374.5q0 -239 91 -372.5t249 -133.5q147 0 236.5 134.5t89.5 375.5q0 242 -87 372t-245 130zM852 610
h-391v248h391v-248z" />
    <glyph glyph-name="Phi" unicode="&#x3a6;" horiz-adv-x="1374" 
d="M565 1372v131h242v-131q233 -13 365.5 -183.5t132.5 -438.5q0 -260 -131.5 -436t-366.5 -197v-176h-242v176q-235 21 -366 196.5t-131 436.5q0 268 132 438.5t365 183.5zM565 379v743q-118 -16 -183 -116t-65 -256q0 -158 64.5 -256.5t183.5 -114.5zM807 1122v-743
q119 16 183.5 115.5t64.5 255.5t-64.5 256.5t-183.5 115.5z" />
    <glyph glyph-name="alpha" unicode="&#x3b1;" horiz-adv-x="1032" 
d="M731 176q-105 -201 -289 -201q-166 0 -272.5 165t-106.5 419q0 234 106 381t275 147q175 0 287 -208q19 91 47 182h199q-105 -271 -105 -561q0 -234 97 -500h-195q-34 131 -43 176zM483 864q-82 0 -132 -88t-50 -239q0 -157 51.5 -247.5t130.5 -90.5q84 0 132.5 85.5
t48.5 243.5q0 157 -52.5 246.5t-128.5 89.5z" />
    <glyph glyph-name="delta" unicode="&#x3b4;" horiz-adv-x="1018" 
d="M145 1268v198h736v-233h-412q63 -70 182 -168.5t175.5 -159.5t93 -154t36.5 -229q0 -246 -122.5 -396.5t-329.5 -150.5q-219 0 -330 174t-111 373q0 201 87 345t237 180l-125 108zM512 834q-101 0 -162 -90t-61 -242q0 -144 61 -228t158 -84t160 88.5t63 233.5
t-62.5 233.5t-156.5 88.5z" />
    <glyph glyph-name="epsilon" unicode="&#x3b5;" horiz-adv-x="797" 
d="M541 438h-23q-124 0 -170.5 -30.5t-46.5 -94.5q0 -50 33.5 -82t85.5 -32q86 0 205 98l151 -182q-194 -140 -358 -140q-160 0 -257.5 88t-97.5 226q0 182 156 262q-121 82 -121 231q0 141 86.5 223t239.5 82q192 0 317 -108l-137 -178q-88 57 -160 57q-120 0 -120 -94
q0 -112 217 -109v-217z" />
    <glyph glyph-name="sigma" unicode="&#x3c3;" horiz-adv-x="1149" 
d="M657 1061h453v-234h-211q64 -135 64 -292q0 -242 -128 -401t-325 -159t-322 151.5t-125 399.5q0 253 124.5 407t328.5 154q47 0 96 -13zM512 858q-94 0 -152.5 -88t-58.5 -240q0 -150 58.5 -237.5t152.5 -87.5q95 0 154 88.5t59 243.5q0 146 -59.5 233.5t-153.5 87.5z
" />
    <glyph glyph-name="tau" unicode="&#x3c4;" horiz-adv-x="750" 
d="M39 827v234h670v-234h-211v-827h-232v827h-227z" />
    <glyph glyph-name="phi" unicode="&#x3c6;" horiz-adv-x="1202" 
d="M430 1085h37l-51 -247q-115 -54 -115 -273q0 -273 186 -358v502q0 204 59 291t189 87q177 0 290.5 -151.5t113.5 -378.5q0 -219 -111 -379.5t-309 -206.5v-374h-232v374q-202 41 -313 197t-111 381q0 237 103.5 386.5t263.5 149.5zM719 662v-469q98 45 140 128t42 273
q0 107 -39.5 185.5t-85.5 78.5q-33 0 -45 -35t-12 -161z" />
    <glyph glyph-name="underscoredbl" unicode="&#x2017;" horiz-adv-x="1024" 
d="M1042 -284h-1059v84h1059v-84zM1042 -442h-1059v84h1059v-84z" />
    <glyph glyph-name="exclamdbl" unicode="&#x203c;" horiz-adv-x="1118" 
d="M770 378l-60 744v344h249v-344l-59 -744h-130zM720 0v281h230v-281h-230zM210 378l-60 744v344h249v-344l-59 -744h-130zM160 0v281h230v-281h-230z" />
    <glyph glyph-name="nsuperior" unicode="&#x207f;" horiz-adv-x="666" 
d="M601 804h-170v340q0 113 -16.5 148t-66.5 35q-61 0 -87 -45.5t-26 -174.5v-303h-170v665h159v-74l14 16q65 73 163 73q101 0 150.5 -64t49.5 -206v-410z" />
    <glyph glyph-name="peseta" unicode="&#x20a7;" horiz-adv-x="1967" 
d="M122 1466h345q175 0 272 -110t113 -290h69v317h237v-317h228q76 28 160 28q147 0 238.5 -92t96.5 -257h-217q-3 69 -38 110.5t-84 41.5q-40 0 -68.5 -28t-28.5 -63q0 -47 37.5 -77.5t144.5 -74.5q180 -75 223 -147t43 -175q0 -162 -93 -260t-257 -98q-97 0 -167 38.5
t-115 143.5v-175q-54 -7 -99 -7q-93 0 -151 34.5t-74 88t-16 182.5v579h-76q-44 -182 -133.5 -264.5t-259.5 -82.5h-74v-511h-256v1466zM378 1207v-438h29q82 0 138 54t56 170q0 72 -25 118t-65.5 71t-132.5 25zM1158 858v-547q0 -72 16 -91.5t73 -19.5q-16 61 -16 102
q0 12 1 33h201q16 -151 121 -151q45 0 80 35t35 78q0 65 -129 112q-167 60 -233 143t-66 201q0 54 20 105h-103z" />
    <glyph glyph-name="arrowleft" unicode="&#x2190;" horiz-adv-x="2048" 
d="M492 876h76q-59 -118 -88.5 -165.5t-106.5 -143.5h1595v-101h-1595q104 -108 198 -309h-78q-129 144 -222 218.5t-192 122.5v45q87 37 184 113t229 220z" />
    <glyph glyph-name="arrowup" unicode="&#x2191;" horiz-adv-x="1024" 
d="M153 926q145 133 220.5 230t112.5 183h46q47 -99 121.5 -192t218.5 -222v-77q-201 94 -309 197v-1474h-101v1474q-96 -76 -143.5 -106t-165.5 -89v76z" />
    <glyph glyph-name="arrowright" unicode="&#x2192;" horiz-adv-x="2048" 
d="M1555 876q133 -145 230 -220.5t183 -112.5v-45q-99 -48 -192 -122.5t-222 -218.5h-77q94 201 197 309h-1595v101h1595q-76 97 -106 144t-89 165h76z" />
    <glyph glyph-name="arrowdown" unicode="&#x2193;" horiz-adv-x="1024" 
d="M153 -16v76q119 -59 166 -89t143 -106v1474h101v-1474q108 103 309 197v-77q-144 -129 -218.5 -222t-121.5 -192h-46q-37 86 -112.5 183t-220.5 230z" />
    <glyph glyph-name="arrowboth" unicode="&#x2194;" horiz-adv-x="2048" 
d="M1968 540v-45q-94 -43 -185 -116t-221 -221h-80q69 172 194 311h-1305q125 -139 194 -311h-80q-130 148 -221 221t-185 116v45q94 44 185 116.5t221 221.5h80q-69 -172 -194 -311h1305q-125 139 -194 311h80q130 -149 221 -221.5t185 -116.5z" />
    <glyph glyph-name="arrowupdn" unicode="&#x2195;" horiz-adv-x="1024" 
d="M489 1463h45q44 -94 116.5 -185.5t220.5 -221.5v-80q-171 69 -311 195v-1306q140 126 311 194v-79q-148 -130 -220.5 -221.5t-116.5 -185.5h-45q-43 94 -116 185.5t-221 221.5v79q171 -68 311 -194v1306q-140 -126 -311 -195v80q148 130 221 221.5t116 185.5z" />
    <glyph glyph-name="arrowupdnbse" unicode="&#x21a8;" horiz-adv-x="1024" 
d="M489 1463h45q44 -94 116.5 -185.5t220.5 -221.5v-80q-171 69 -311 195v-1306q140 126 311 194v-79q-148 -130 -220.5 -221.5t-116.5 -185.5h-45q-43 94 -116 185.5t-221 221.5v79q171 -68 311 -194v1306q-140 -126 -311 -195v80q148 130 221 221.5t116 185.5zM154 -522
h717v-98h-717v98z" />
    <glyph glyph-name="orthogonal" unicode="&#x221f;" horiz-adv-x="2005" 
d="M362 1279h100v-1179h1181v-100h-1281v1279z" />
    <glyph glyph-name="intersection" unicode="&#x2229;" horiz-adv-x="1479" 
d="M302 0h-110v560q0 248 6 314q12 119 44 195t102 149.5t173.5 119.5t219.5 46q112 0 214 -44t177 -119.5t107 -160.5t42 -212q4 -50 4 -288v-560h-109v566q0 218 -6 281q-11 111 -36.5 176.5t-80 123t-139 94.5t-174.5 37q-74 0 -143.5 -25.5t-119 -63t-80 -77
t-44.5 -74.5q-25 -60 -36 -146.5t-11 -325.5v-566z" />
    <glyph glyph-name="equivalence" unicode="&#x2261;" horiz-adv-x="979" 
d="M69 1037v259h841v-259h-841zM69 594v259h841v-259h-841zM69 150v259h841v-259h-841z" />
    <glyph glyph-name="house" unicode="&#x2302;" horiz-adv-x="1229" 
d="M153 0v634l461 519l462 -519v-634h-923zM234 81h761v519l-381 427l-380 -427v-519z" />
    <glyph glyph-name="revlogicalnot" unicode="&#x2310;" horiz-adv-x="981" 
d="M282 376v441h630v257h-841v-698h211z" />
    <glyph glyph-name="integraltp" unicode="&#x2320;" horiz-adv-x="1237" 
d="M691 -515h-145v1811q0 219 89.5 330t202.5 111q67 0 102.5 -32.5t35.5 -76.5q0 -40 -25.5 -66t-62.5 -26q-30 0 -57 15q-18 10 -42 46q-23 37 -46 37q-17 0 -31 -12q-10 -8 -14 -27q-7 -33 -7 -139v-1971z" />
    <glyph glyph-name="integralbt" unicode="&#x2321;" horiz-adv-x="1237" 
d="M546 1737h145v-1811q0 -219 -89.5 -330t-202.5 -111q-67 0 -102.5 32.5t-35.5 76.5q0 40 25.5 66t61.5 26q31 0 59 -16q18 -10 41 -46t46 -36q17 0 31 11q10 8 14 29q7 32 7 138v1971z" />
    <glyph glyph-name="SF100000" unicode="&#x2500;" horiz-adv-x="1451" 
d="M1473 534h-1496v175h1496v-175z" />
    <glyph glyph-name="SF110000" unicode="&#x2502;" horiz-adv-x="1261" 
d="M448 -621v2485h175v-2485h-175z" />
    <glyph glyph-name="SF010000" unicode="&#x250c;" horiz-adv-x="1451" 
d="M1474 709v-175h-661v-1155h-175v1330h836z" />
    <glyph glyph-name="SF030000" unicode="&#x2510;" horiz-adv-x="1451" 
d="M637 534h-660v175h835v-1330h-175v1155z" />
    <glyph glyph-name="SF020000" unicode="&#x2514;" horiz-adv-x="1451" 
d="M638 534v1330h175v-1155h661v-175h-836z" />
    <glyph glyph-name="SF040000" unicode="&#x2518;" horiz-adv-x="1451" 
d="M812 534h-835v175h660v1155h175v-1330z" />
    <glyph glyph-name="SF080000" unicode="&#x251c;" horiz-adv-x="1451" 
d="M638 -621v2485h175v-1155h661v-175h-661v-1155h-175z" />
    <glyph glyph-name="SF090000" unicode="&#x2524;" horiz-adv-x="1451" 
d="M637 -621v1155h-660v175h660v1155h175v-2485h-175z" />
    <glyph glyph-name="SF060000" unicode="&#x252c;" horiz-adv-x="1451" 
d="M637 534h-660v175h1496v-175h-661v-1155h-175v1155z" />
    <glyph glyph-name="SF070000" unicode="&#x2534;" horiz-adv-x="1451" 
d="M1473 534h-1496v175h660v1155h175v-1155h661v-175z" />
    <glyph glyph-name="SF050000" unicode="&#x253c;" horiz-adv-x="1451" 
d="M637 534h-660v175h660v1155h175v-1155h661v-175h-661v-1155h-175v1155z" />
    <glyph glyph-name="SF430000" unicode="&#x2550;" horiz-adv-x="1451" 
d="M1496 724h-1496v175h1496v-175zM1496 344h-1496v175h1496v-175z" />
    <glyph glyph-name="SF240000" unicode="&#x2551;" horiz-adv-x="1451" 
d="M380 -621v2485h175v-2485h-175zM0 -621v2485h175v-2485h-175z" />
    <glyph glyph-name="SF510000" unicode="&#x2552;" horiz-adv-x="1451" 
d="M0 -621v1520h836v-175h-661v-205h661v-175h-661v-965h-175z" />
    <glyph glyph-name="SF520000" unicode="&#x2553;" horiz-adv-x="1451" 
d="M0 -621v1330h1026v-175h-471v-1155h-175v1140h-205v-1140h-175z" />
    <glyph glyph-name="SF390000" unicode="&#x2554;" horiz-adv-x="1451" 
d="M175 -621h-175v1520h1025v-175h-850v-1345zM555 344v-965h-175v1140h645v-175h-470z" />
    <glyph glyph-name="SF220000" unicode="&#x2555;" horiz-adv-x="1451" 
d="M660 344h-660v175h660v205h-660v175h835v-1520h-175v965z" />
    <glyph glyph-name="SF210000" unicode="&#x2556;" horiz-adv-x="1451" 
d="M470 -621l1 1155h-471v175h1025v-1330h-175v1155h-205v-1155h-175z" />
    <glyph glyph-name="SF250000" unicode="&#x2557;" horiz-adv-x="1451" 
d="M850 -621v1345h-850v175h1025v-1520h-175zM470 344h-470v175h645v-1140h-175v965z" />
    <glyph glyph-name="SF500000" unicode="&#x2558;" horiz-adv-x="1451" 
d="M0 344v1520h175v-965h661v-175h-661v-205h661v-175h-836z" />
    <glyph glyph-name="SF490000" unicode="&#x2559;" horiz-adv-x="1451" 
d="M1026 534h-1026v1330h175v-1155h205v1155h175v-1155h471v-175z" />
    <glyph glyph-name="SF380000" unicode="&#x255a;" horiz-adv-x="1451" 
d="M175 1864v-1345h850v-175h-1025v1520h175zM555 899h470v-175h-645v1140h175v-965z" />
    <glyph glyph-name="SF280000" unicode="&#x255b;" horiz-adv-x="1451" 
d="M835 344h-835v175h660v205h-660v175h660v965h175v-1520z" />
    <glyph glyph-name="SF270000" unicode="&#x255c;" horiz-adv-x="1451" 
d="M1025 534h-1025v175h470v1155h175v-1155h205v1155h175v-1330z" />
    <glyph glyph-name="SF260000" unicode="&#x255d;" horiz-adv-x="1451" 
d="M850 1864h175v-1520h-1025v175h850v1345zM470 899v965h175v-1140h-645v175h470z" />
    <glyph glyph-name="SF360000" unicode="&#x255e;" horiz-adv-x="1451" 
d="M0 -621v2485h175v-965h661v-175h-661v-205h661v-175h-661v-965h-175z" />
    <glyph glyph-name="SF370000" unicode="&#x255f;" horiz-adv-x="1451" 
d="M380 -621v2485h175v-1155h471v-175h-471v-1155h-175zM0 -621v2485h175v-2485h-175z" />
    <glyph glyph-name="SF420000" unicode="&#x2560;" horiz-adv-x="1451" 
d="M0 -621v2485h175v-2485h-175zM380 724v1140h175v-965h471v-175h-646zM380 -621v1140h646v-175h-471v-965h-175z" />
    <glyph glyph-name="SF190000" unicode="&#x2561;" horiz-adv-x="1451" 
d="M660 344h-660v175h661l-1 205h-660v175h660v965h175v-2485h-175v965z" />
    <glyph glyph-name="SF200000" unicode="&#x2562;" horiz-adv-x="1451" 
d="M470 -621l1 1155h-471v175h470v1155h175v-2485h-175zM850 -621v2485h175v-2485h-175z" />
    <glyph glyph-name="SF230000" unicode="&#x2563;" horiz-adv-x="1451" 
d="M850 -621v2485h175v-2485h-175zM645 1864v-1140h-645v175h470v965h175zM470 344h-470v175h645v-1140h-175v965z" />
    <glyph glyph-name="SF470000" unicode="&#x2564;" horiz-adv-x="1451" 
d="M1496 724h-1496v175h1496v-175zM660 344h-660v175h1496v-175h-661v-965h-175v965z" />
    <glyph glyph-name="SF480000" unicode="&#x2565;" horiz-adv-x="1451" 
d="M470 -621l1 1155h-471v175h1496v-175h-471v-1155h-175v1140h-205v-1140h-175z" />
    <glyph glyph-name="SF410000" unicode="&#x2566;" horiz-adv-x="1451" 
d="M1496 724h-1496v175h1496v-175zM470 344h-470v175h645v-1140h-175v965zM850 -621v1140h646v-175h-471v-965h-175z" />
    <glyph glyph-name="SF450000" unicode="&#x2567;" horiz-adv-x="1451" 
d="M1496 724h-1496v175h660v965h175v-965h661v-175zM1496 344h-1496v175h1496v-175z" />
    <glyph glyph-name="SF460000" unicode="&#x2568;" horiz-adv-x="1451" 
d="M1496 534h-1496v175h470v1155h175v-1155h205v1155h175v-1155h471v-175z" />
    <glyph glyph-name="SF400000" unicode="&#x2569;" horiz-adv-x="1451" 
d="M645 724h-645v175h470v965h175v-1140zM1496 724h-646v1140h175v-965h471v-175zM1496 344h-1496v175h1496v-175z" />
    <glyph glyph-name="SF540000" unicode="&#x256a;" horiz-adv-x="1451" 
d="M660 344h-660v175h660v205h-660v175h660v965h175v-965h661v-175h-661v-205h661v-175h-661v-965h-175v965z" />
    <glyph glyph-name="SF530000" unicode="&#x256b;" horiz-adv-x="1451" 
d="M470 -621l1 1155h-471v175h470v1155h175v-1155h205v1155h175v-1155h471v-175h-471v-1155h-175v1155h-205v-1155h-175z" />
    <glyph glyph-name="SF440000" unicode="&#x256c;" horiz-adv-x="1451" 
d="M1026 899h470v-175h-645v1140h175v-965zM470 899v965h175v-1140h-645v175h470zM470 344h-470v175h645v-1140h-175v965zM1026 344v-965h-175v1140h645v-175h-470z" />
    <glyph glyph-name="upblock" unicode="&#x2580;" horiz-adv-x="1451" 
d="M1496 621h-1496v1243h1496v-1243z" />
    <glyph glyph-name="dnblock" unicode="&#x2584;" horiz-adv-x="1451" 
d="M1496 -621h-1496v1242h1496v-1242z" />
    <glyph glyph-name="block" unicode="&#x2588;" horiz-adv-x="1451" 
d="M0 -621v2485h1496v-2485h-1496z" />
    <glyph glyph-name="lfblock" unicode="&#x258c;" horiz-adv-x="1451" 
d="M0 -621v2485h748v-2485h-748z" />
    <glyph glyph-name="rtblock" unicode="&#x2590;" horiz-adv-x="1451" 
d="M0 -621v2485h748v-2485h-748z" />
    <glyph glyph-name="ltshade" unicode="&#x2591;" horiz-adv-x="1451" 
d="M102 1864h125v-125h-125v125zM600 1864h125v-125h-125v125zM1099 1864h125v-125h-125v125zM351 1615h125v-125h-125v125zM850 1615h124v-125h-124v125zM1348 1615h125v-125h-125v125zM1099 1366h125v-125h-125v125zM600 1366h125v-125h-125v125zM102 1366h125v-125h-125
v125zM1348 1116h125v-124h-125v124zM850 1116h124v-124h-124v124zM351 1116h125v-124h-125v124zM102 867h125v-125h-125v125zM600 867h125v-125h-125v125zM1099 867h125v-125h-125v125zM1348 618h125v-125h-125v125zM850 618h124v-125h-124v125zM351 618h125v-125h-125v125z
M102 369h125v-125h-125v125zM600 369h125v-125h-125v125zM1099 369h125v-125h-125v125zM351 119h125v-124h-125v124zM850 119h124v-124h-124v124zM1348 119h125v-124h-125v124zM1099 -130h125v-125h-125v125zM600 -130h125v-125h-125v125zM102 -130h125v-125h-125v125z
M351 -379h125v-125h-125v125zM850 -379h124v-125h-124v125zM1348 -379h125v-125h-125v125z" />
    <glyph glyph-name="shade" unicode="&#x2592;" horiz-adv-x="1451" 
d="M103 1864h124v-125h-124v125zM352 1864h124v-125h-124v125zM601 1864h125v-125h-125v125zM850 1864h125v-125h-125v125zM1100 1864h124v-125h-124v125zM1349 1864h124v-125h-124v125zM-22 1615h125v-125h-125v125zM227 1615h125v-125h-125v125zM476 1615h125v-125h-125
v125zM726 1615h124v-125h-124v125zM975 1615h125v-125h-125v125zM1224 1615h125v-125h-125v125zM103 1366h124v-125h-124v125zM352 1366h124v-125h-124v125zM601 1366h125v-125h-125v125zM850 1366h125v-125h-125v125zM1100 1366h124v-125h-124v125zM1349 1366h124v-125
h-124v125zM227 1116h125v-124h-125v124zM476 1116h125v-124h-125v124zM726 1116h124v-124h-124v124zM975 1116h125v-124h-125v124zM1224 1116h125v-124h-125v124zM-22 1116h125v-124h-125v124zM103 867h124v-125h-124v125zM352 867h124v-125h-124v125zM601 867h125v-125
h-125v125zM850 867h125v-125h-125v125zM1100 867h124v-125h-124v125zM1349 867h124v-125h-124v125zM-22 618h125v-125h-125v125zM476 618h125v-125h-125v125zM726 618h124v-125h-124v125zM975 618h125v-125h-125v125zM1224 618h125v-125h-125v125zM227 618h125v-125h-125
v125zM1349 369h124v-125h-124v125zM1100 369h124v-125h-124v125zM850 369h125v-125h-125v125zM601 369h125v-125h-125v125zM352 369h124v-125h-124v125zM103 369h124v-125h-124v125zM-22 119h125v-124h-125v124zM227 119h125v-124h-125v124zM476 119h125v-124h-125v124z
M726 119h124v-124h-124v124zM975 119h125v-124h-125v124zM1224 119h125v-124h-125v124zM1349 -130h124v-125h-124v125zM1100 -130h124v-125h-124v125zM850 -130h125v-125h-125v125zM601 -130h125v-125h-125v125zM352 -130h124v-125h-124v125zM103 -130h124v-125h-124v125z
M-22 -379h125v-125h-125v125zM227 -379h125v-125h-125v125zM476 -379h125v-125h-125v125zM726 -379h124v-125h-124v125zM975 -379h125v-125h-125v125zM1224 -379h125v-125h-125v125z" />
    <glyph glyph-name="dkshade" unicode="&#x2593;" horiz-adv-x="1493" 
d="M1494 1490v-374h-124v-124h124v-374h-124v-125h124v-374h-124v-124h124v-374h-124v-125h124v-124h-1495v373h125v125h-125v374h125v125h-125v373h125v125h-125v374h125v125h-125v373h125v125h124v-125h125v125h124v-125h125v125h125v-125h124v125h125v-125h125v125h124
v-125h125v125h124v-249h-124v-125h124zM124 1615v-125h124v125h-124zM373 1615v-125h124v125h-124zM622 1615v-125h125v125h-125zM871 1615v-125h125v125h-125zM1121 1615v-125h124v125h-124zM1370 1366h-125v-125h125v125zM1121 1366h-125v-125h125v125zM871 1366h-124
v-125h124v125zM622 1366h-125v-125h125v125zM373 1366h-125v-125h125v125zM124 1116v-124h124v124h-124zM373 1116v-124h124v124h-124zM622 1116v-124h125v124h-125zM871 1116v-124h125v124h-125zM1121 1116v-124h124v124h-124zM373 867h-125v-125h125v125zM497 867v-125
h125v125h-125zM747 867v-125h124v125h-124zM996 867v-125h125v125h-125zM1245 867v-125h125v125h-125zM124 618v-125h124v125h-124zM622 618v-125h125v125h-125zM497 493v125h-124v-125h124zM871 618v-125h125v125h-125zM1121 618v-125h124v125h-124zM1370 244v125h-125
v-125h125zM1121 244v125h-125v-125h125zM871 244v125h-124v-125h124zM622 244v125h-125v-125h125zM373 244v125h-125v-125h125zM124 119v-124h124v124h-124zM373 119v-124h124v124h-124zM622 119v-124h125v124h-125zM871 119v-124h125v124h-125zM1121 119v-124h124v124h-124
zM1370 -255v125h-125v-125h125zM1121 -255v125h-125v-125h125zM871 -255v125h-124v-125h124zM622 -255v125h-125v-125h125zM373 -255v125h-125v-125h125zM124 -379v-125h124v125h-124zM373 -379v-125h124v125h-124zM622 -379v-125h125v125h-125zM871 -379v-125h125v125h-125
zM1121 -379v-125h124v125h-124z" />
    <glyph glyph-name="filledbox" unicode="&#x25a0;" horiz-adv-x="1237" 
d="M0 944h944v-944h-944v944z" />
    <glyph glyph-name="filledrect" unicode="&#x25ac;" horiz-adv-x="2048" 
d="M0 703h2047v-386h-2047v386z" />
    <glyph glyph-name="triagup" unicode="&#x25b2;" horiz-adv-x="2027" 
d="M0 0l710 1419l710 -1419h-1420z" />
    <glyph glyph-name="triagrt" unicode="&#x25ba;" horiz-adv-x="2027" 
d="M0 1417l1451 -724l-1451 -724v1448z" />
    <glyph glyph-name="triagdn" unicode="&#x25bc;" horiz-adv-x="2027" 
d="M1420 1388l-710 -1419l-710 1419h1420z" />
    <glyph glyph-name="triaglf" unicode="&#x25c4;" horiz-adv-x="2027" 
d="M1739 1417v-1448l-1451 724z" />
    <glyph glyph-name="circle" unicode="&#x25cb;" horiz-adv-x="1237" 
d="M441 1018q110 0 216 -57t165 -163t59 -220q0 -183 -129 -312t-311 -129q-183 0 -312 129t-129 312q0 115 59 220.5t165 162.5t217 57zM441 942q-93 0 -180 -47t-136 -135t-49 -182q0 -151 107 -258t258 -107t257.5 107t106.5 258q0 94 -49 182t-136 135t-179 47z" />
    <glyph glyph-name="invbullet" unicode="&#x25d8;" horiz-adv-x="1237" 
d="M0 0v980h980v-980h-980zM490 692q-84 0 -143 -59t-59 -143q0 -83 59.5 -142.5t142.5 -59.5q84 0 143 59.5t59 142.5q0 84 -59 143t-143 59z" />
    <glyph glyph-name="invcircle" unicode="&#x25d9;" horiz-adv-x="1237" 
d="M0 0v1155h1155v-1155h-1155zM577 1018q-111 0 -216.5 -57t-164.5 -163t-59 -221q0 -182 129 -311t311 -129q183 0 312 129t129 311q0 115 -59 221t-164.5 163t-217.5 57zM578 942q91 0 178.5 -47t136.5 -134.5t49 -183.5q0 -151 -106.5 -257.5t-257.5 -106.5
q-152 0 -258.5 106.5t-106.5 257.5q0 96 49 183.5t136.5 134.5t179.5 47z" />
    <glyph glyph-name="smileface" unicode="&#x263a;" horiz-adv-x="2091" 
d="M1046 1156q160 0 313 -82.5t239 -236t86 -319.5q0 -165 -84.5 -316.5t-236.5 -236t-317 -84.5q-166 0 -317.5 84.5t-236 236t-84.5 316.5q0 166 85.5 319.5t238.5 236t314 82.5zM1046 1063q-137 0 -267.5 -70.5t-204 -201.5t-73.5 -273q0 -141 72 -270.5t202 -201.5
t271 -72t271 72t202 201.5t72 270.5q0 142 -73.5 273t-204 201.5t-267.5 70.5zM801 731q34 0 57.5 -23.5t23.5 -57.5q0 -33 -23.5 -57t-57.5 -24q-33 0 -57 24t-24 57q0 34 24 57.5t57 23.5zM1290 731q34 0 57.5 -23.5t23.5 -57.5q0 -33 -23.5 -57t-57.5 -24q-33 0 -57 24
t-24 57q0 34 23.5 57.5t57.5 23.5zM752 313l62 36q79 -144 232 -144t231 144l63 -36q-50 -95 -123.5 -145t-170.5 -50q-98 0 -171 50t-123 145z" />
    <glyph glyph-name="invsmileface" unicode="&#x263b;" horiz-adv-x="2155" 
d="M1078 1156q160 0 313 -82.5t239 -236t86 -319.5q0 -165 -84.5 -316.5t-236.5 -236t-317 -84.5q-166 0 -317.5 84.5t-236 236t-84.5 316.5q0 166 85.5 319.5t238.5 236t314 82.5zM833 731q-33 0 -57 -23.5t-24 -57.5q0 -33 24 -57t57 -24q34 0 57.5 24t23.5 57
q0 34 -23.5 57.5t-57.5 23.5zM1322 731q-34 0 -57.5 -23.5t-23.5 -57.5q0 -33 24 -57t57 -24q34 0 57.5 24t23.5 57q0 34 -23.5 57.5t-57.5 23.5zM784 313q50 -95 123 -145t171 -50q97 0 170.5 50t123.5 145l-63 36q-78 -144 -231 -144t-232 144z" />
    <glyph glyph-name="sun" unicode="&#x263c;" horiz-adv-x="1877" 
d="M886 1621h76v-337q102 -7 181.5 -38.5t167.5 -102.5l290 284l52 -53l-286 -286q73 -95 103 -169q38 -96 40 -189h336v-69h-335q-19 -189 -143 -347l285 -291l-57 -50l-283 282q-98 -72 -171 -100.5t-180 -40.5v-337h-76v337q-112 15 -188.5 46t-156.5 92l-294 -278
l-51 51l285 286q-66 84 -100 166t-45 188h-336v69h336q9 106 42 185.5t102 163.5l-284 287l48 57l292 -282q101 70 179.5 100.5t170.5 38.5v337zM921 1211q-129 0 -252 -66t-191.5 -189.5t-68.5 -256.5t67.5 -255t189.5 -190t255 -68t255 68t190 190t68 255t-69 256.5
t-192 189.5t-252 66z" />
    <glyph glyph-name="female" unicode="&#x2640;" horiz-adv-x="1536" 
d="M796 461v-402h459v-59h-459v-439h-59v439h-460v59h460v402q-103 0 -225.5 65.5t-195 191t-72.5 265.5q0 136 69.5 261t193.5 194t261 69q136 0 260.5 -69.5t193.5 -194t69 -260.5q0 -209 -143.5 -360.5t-351.5 -161.5zM767 1451q-118 0 -230.5 -60.5t-175.5 -173.5
t-63 -235q0 -195 137.5 -332.5t331.5 -137.5q195 0 332.5 137.5t137.5 332.5q0 122 -63 235t-175.5 173.5t-231.5 60.5z" />
    <glyph glyph-name="male" unicode="&#x2642;" horiz-adv-x="1536" 
d="M1216 1620l36 -16l163 -666l-57 -15l-142 581l-358 -768q148 -75 224 -202t76 -272q0 -136 -69 -260.5t-193.5 -194t-261.5 -69.5q-136 0 -260.5 69.5t-193.5 194t-69 260.5q0 217 153.5 370t372.5 153q78 0 166 -27l360 771l-537 -265l-24 53zM634 731
q-118 0 -230.5 -60.5t-175.5 -173.5t-63 -235q0 -195 137.5 -332.5t331.5 -137.5q195 0 332.5 137.5t137.5 332.5q0 122 -63 235t-175.5 173.5t-231.5 60.5z" />
    <glyph glyph-name="spade" unicode="&#x2660;" horiz-adv-x="1088" 
d="M487 1231q26 -108 80 -193t192 -211q139 -125 176 -192.5t37 -136.5q0 -95 -64 -159t-154 -64q-156 0 -255 190q1 -147 38.5 -233.5t119.5 -136t219 -58.5l7 -37h-792l7 37q184 0 285.5 107.5t97.5 320.5q-45 -95 -111.5 -142.5t-149.5 -47.5q-90 0 -155 65t-65 154
q0 74 32 133q45 83 157 174q140 115 217 229q56 83 81 201z" />
    <glyph glyph-name="club" unicode="&#x2663;" horiz-adv-x="1344" 
d="M1098 0h-848l8 34q165 35 219 69q81 51 132.5 151t51.5 210l-1 47q-61 -124 -148.5 -181t-178.5 -57q-116 0 -197 81t-81 199q0 116 74 195.5t168 79.5q60 0 163 -51q-42 69 -54.5 105t-12.5 77q0 115 79 193.5t198 78.5q117 0 197.5 -78.5t80.5 -189.5q0 -88 -69 -186
q84 40 101 45q27 8 61 8q100 0 173.5 -78.5t73.5 -194.5q0 -120 -80.5 -201.5t-193.5 -81.5q-62 0 -128.5 30.5t-116.5 81.5q-35 37 -87 125q4 -159 48.5 -251.5t136.5 -153.5q62 -41 223 -72z" />
    <glyph glyph-name="heart" unicode="&#x2665;" horiz-adv-x="1216" 
d="M547 -24q-31 118 -88.5 221.5t-222.5 321.5q-121 160 -149 203q-46 70 -66.5 128.5t-20.5 118.5q0 111 74 186t184 75q109 0 190 -78q61 -58 99 -173q36 127 113 189.5t170 62.5q109 0 184.5 -74t75.5 -176q0 -91 -43.5 -188t-170.5 -257q-164 -207 -231 -326t-98 -234z
" />
    <glyph glyph-name="diamond" unicode="&#x2666;" horiz-adv-x="1045" 
d="M457 1231q89 -151 229 -337.5t232 -289.5q-74 -78 -242 -302q-136 -182 -218 -326q-43 81 -178 269q-93 129 -280 359q101 115 260 328q118 158 197 299z" />
    <glyph glyph-name="musicalnote" unicode="&#x266a;" horiz-adv-x="1024" 
d="M486 1363h38q172 0 227 -14q79 -20 139 -77q45 -42 71 -118.5t26 -178.5v-103h-99v43q0 68 -28.5 115.5t-84.5 72.5q-73 32 -162 32h-28v-835q0 -121 -32 -188.5t-110 -108t-170 -40.5q-109 0 -172.5 61.5t-63.5 161.5q0 105 76 176.5t199 71.5q78 0 174 -46v975z" />
    <glyph glyph-name="musicalnotedbl" unicode="&#x266b;" horiz-adv-x="1536" 
d="M534 1271l796 248v-1108q0 -124 -31.5 -187t-107 -104t-170.5 -41q-109 0 -174 62.5t-65 161.5q0 100 77 172.5t199 72.5q40 0 70.5 -7t99.5 -36v724l-595 -185v-836q0 -121 -32 -188.5t-110 -107.5t-170 -40q-109 0 -172.5 61.5t-63.5 160.5q0 105 76 176.5t199 71.5
q78 0 174 -46v975z" />
    <glyph glyph-name="IJ" unicode="&#x132;" horiz-adv-x="1401" 
d="M115 0v1466h242v-1466h-242zM1024 1466h243v-928q0 -225 -45 -335t-134.5 -169t-220.5 -59q-173 0 -271 119t-99 359l229 32q4 -129 33 -183q39 -74 117 -74q76 0 112 53.5t36 237.5v947z" />
    <glyph glyph-name="ij" unicode="&#x133;" 
d="M121 1206v260h231v-260h-231zM121 0v1062h231v-1062h-231zM584 1206v260h231v-260h-231zM815 1062v-1029q0 -217 -24 -297t-86 -123.5t-153 -43.5q-69 0 -160 30l40 240q33 -9 57 -9q60 0 83 48q12 26 12 171v1013h231z" />
    <glyph glyph-name="napostrophe" unicode="&#x149;" horiz-adv-x="1384" 
d="M1265 0h-231v542q0 163 -13 217t-48.5 83t-80.5 29q-58 0 -105 -37.5t-66 -103.5t-19 -249v-481h-231v1062h214v-156q57 90 128.5 135t158.5 45q101 0 170.5 -52.5t96 -135t26.5 -238.5v-660zM76 1466h230v-202q0 -170 -40 -254q-49 -102 -164 -153l-45 117
q68 28 98 76.5t32 134.5h-111v281z" />
    <glyph glyph-name="minute" unicode="&#x2032;" horiz-adv-x="399" 
d="M118 945l-43 273v248h251v-248l-38 -273h-170z" />
    <glyph glyph-name="second" unicode="&#x2033;" horiz-adv-x="797" 
d="M135 945l-43 273v248h251v-248l-38 -273h-170zM506 945l-44 273v248h251v-248l-38 -273h-169z" />
    <glyph glyph-name="afii61248" unicode="&#x2105;" horiz-adv-x="1617" 
d="M616 1248l-168 -40q-15 118 -92 118q-107 0 -107 -211q0 -232 111 -232q78 0 95 142l169 -37q-44 -276 -271 -276q-140 0 -210 111.5t-70 279.5q0 173 72.5 280.5t208.5 107.5q214 0 262 -243zM484 -54h-131l713 1538h130zM945 384q0 158 80.5 268t219.5 110
q141 0 220.5 -115t79.5 -273q0 -166 -84.5 -278.5t-212.5 -112.5q-132 0 -217.5 103t-85.5 298zM1121 373q0 -101 35 -159.5t89 -58.5q52 0 88 57.5t36 163.5q0 90 -33 152.5t-91 62.5q-55 0 -89.5 -59.5t-34.5 -158.5z" />
    <glyph glyph-name="afii61289" unicode="&#x2113;" horiz-adv-x="1004" 
d="M77 371l-44 257l148 72q0 332 40.5 471t143 229.5t242.5 90.5q150 0 240 -99.5t90 -247.5q0 -144 -96 -273.5t-378 -308.5q-1 -227 43 -298t133 -71q105 0 267 123v-241q-144 -99 -295 -99q-367 0 -421 447q-55 -28 -113 -52zM463 859q136 99 185.5 164t49.5 131
q0 49 -27 78.5t-67 29.5q-54 0 -95 -60.5t-44 -259.5z" />
    <glyph glyph-name="H22073" unicode="&#x25a1;" horiz-adv-x="1237" 
d="M146 944h944v-944h-944v944zM222 868v-792h792v792h-792z" />
    <glyph glyph-name="H18543" unicode="&#x25aa;" horiz-adv-x="726" 
d="M594 909v-464h-463v463z" />
    <glyph glyph-name="H18551" unicode="&#x25ab;" horiz-adv-x="726" 
d="M594 909v-464h-463v463zM518 833l-311 -1v-311h311v312z" />
    <glyph glyph-name="H18533" unicode="&#x25cf;" horiz-adv-x="1237" 
d="M619 1018q110 0 216 -57t165 -163t59 -220q0 -183 -129 -312t-311 -129q-183 0 -312 129t-129 312q0 115 59 220.5t165 162.5t217 57z" />
    <glyph glyph-name="openbullet" unicode="&#x25e6;" horiz-adv-x="726" 
d="M363 928q104 0 177.5 -73.5t73.5 -177.5t-73.5 -177.5t-177.5 -73.5t-177.5 73.5t-73.5 177.5t73 177.5t178 73.5zM363 852q-73 0 -124 -51.5t-51 -123.5q0 -73 51.5 -124t123.5 -51t123.5 51t51.5 124q0 72 -51 123.5t-124 51.5z" />
    <glyph glyph-name="Amacron" unicode="&#x100;" horiz-adv-x="1212" 
d="M1206 0h-264l-105 333h-480l-99 -333h-258l468 1466h257zM759 580l-165 544l-163 -544h328zM328 1621v185h528v-185h-528z" />
    <glyph glyph-name="amacron" unicode="&#x101;" 
d="M293 738l-209 46q38 161 125.5 231.5t251.5 70.5q146 0 223 -41t110 -111.5t33 -256.5l-2 -328q0 -138 11 -205.5t41 -143.5h-228l-30 116q-59 -70 -126.5 -105t-143.5 -35q-127 0 -208 85.5t-81 227.5q0 90 33 157t93 107t192 71q160 37 223 69q0 88 -12.5 115.5t-46 45
t-94.5 17.5q-62 0 -97.5 -28t-57.5 -105zM601 510q-44 -18 -137 -42q-107 -28 -140 -62t-33 -88q0 -61 36.5 -102.5t91.5 -41.5q49 0 97 33.5t66.5 79.5t18.5 167v56zM217 1250v185h528v-185h-528z" />
    <glyph glyph-name="Ccircumflex" unicode="&#x108;" horiz-adv-x="1212" 
d="M892 539l235 -91q-55 -246 -183 -359.5t-315 -113.5q-235 0 -381 181q-168 209 -168 564q0 375 169 587q147 184 395 184q202 0 338 -138q97 -98 142 -291l-240 -70q-23 119 -91.5 182.5t-161.5 63.5q-133 0 -217 -116t-84 -383q0 -277 82 -394t213 -117q96 0 166 74.5
t101 236.5zM332 1565l172 295h213l170 -295h-185l-95 149l-88 -149h-187z" />
    <glyph glyph-name="ccircumflex" unicode="&#x109;" 
d="M880 748l-227 -50q-25 167 -157 167q-85 0 -137 -72t-52 -243q0 -189 52 -267t139 -78q65 0 107 44.5t60 157.5l227 -47q-70 -384 -403 -384q-213 0 -316 162t-103 390q0 273 116.5 415.5t305.5 142.5q153 0 249.5 -81t138.5 -257zM199 1192l172 295h213l170 -295h-185
l-95 149l-88 -149h-187z" />
    <glyph glyph-name="Cdot" unicode="&#x10a;" horiz-adv-x="1212" 
d="M892 539l235 -91q-55 -246 -183 -359.5t-315 -113.5q-235 0 -381 181q-168 209 -168 564q0 375 169 587q147 184 395 184q202 0 338 -138q97 -98 142 -291l-240 -70q-23 119 -91.5 182.5t-161.5 63.5q-133 0 -217 -116t-84 -383q0 -277 82 -394t213 -117q96 0 166 74.5
t101 236.5zM498 1622v266h227v-266h-227z" />
    <glyph glyph-name="cdot" unicode="&#x10b;" 
d="M880 748l-227 -50q-25 167 -157 167q-85 0 -137 -72t-52 -243q0 -189 52 -267t139 -78q65 0 107 44.5t60 157.5l227 -47q-70 -384 -403 -384q-213 0 -316 162t-103 390q0 273 116.5 415.5t305.5 142.5q153 0 249.5 -81t138.5 -257zM374 1251v266h227v-266h-227z" />
    <glyph glyph-name="Emacron" unicode="&#x112;" horiz-adv-x="1120" 
d="M123 0v1466h892v-248h-650v-325h604v-247h-604v-399h672v-247h-914zM315 1622v185h528v-185h-528z" />
    <glyph glyph-name="emacron" unicode="&#x113;" 
d="M626 338l229 -47q-46 -160 -143 -237.5t-236 -77.5q-193 0 -298 129q-124 150 -124 420q0 266 125 426q106 135 274 135q187 0 293 -138q122 -158 122 -466l-1 -32h-577q2 -126 56.5 -195t131.5 -69q111 0 148 152zM639 622q-3 124 -53 186.5t-119 62.5q-73 0 -123 -65
q-51 -66 -50 -184h345zM202 1250v185h528v-185h-528z" />
    <glyph glyph-name="Ebreve" unicode="&#x114;" horiz-adv-x="1120" 
d="M123 0v1466h892v-248h-650v-325h604v-247h-604v-399h672v-247h-914zM736 1856h112q-9 -140 -79.5 -215.5t-175.5 -75.5t-175.5 75.5t-80.5 215.5h112q13 -144 144 -144t143 144z" />
    <glyph glyph-name="ebreve" unicode="&#x115;" 
d="M626 338l229 -47q-46 -160 -143 -237.5t-236 -77.5q-193 0 -298 129q-124 150 -124 420q0 266 125 426q106 135 274 135q187 0 293 -138q122 -158 122 -466l-1 -32h-577q2 -126 56.5 -195t131.5 -69q111 0 148 152zM639 622q-3 124 -53 186.5t-119 62.5q-73 0 -123 -65
q-51 -66 -50 -184h345zM618 1491h112q-9 -140 -79.5 -215.5t-175.5 -75.5t-175.5 75.5t-80.5 215.5h112q13 -144 144 -144t143 144z" />
    <glyph glyph-name="Edot" unicode="&#x116;" horiz-adv-x="1120" 
d="M123 0v1466h892v-248h-650v-325h604v-247h-604v-399h672v-247h-914zM476 1622v266h227v-266h-227z" />
    <glyph glyph-name="edot" unicode="&#x117;" 
d="M626 338l229 -47q-46 -160 -143 -237.5t-236 -77.5q-193 0 -298 129q-124 150 -124 420q0 266 125 426q106 135 274 135q187 0 293 -138q122 -158 122 -466l-1 -32h-577q2 -126 56.5 -195t131.5 -69q111 0 148 152zM639 622q-3 124 -53 186.5t-119 62.5q-73 0 -123 -65
q-51 -66 -50 -184h345zM338 1249v266h227v-266h-227z" />
    <glyph glyph-name="Gcircumflex" unicode="&#x11c;" horiz-adv-x="1307" 
d="M682 539v247h523v-584q-79 -93 -224 -160t-291 -67q-178 0 -314 87.5t-215.5 262t-79.5 410.5q0 242 80.5 414t209 257t307.5 85q215 0 344.5 -109.5t166.5 -321.5l-240 -55q-27 113 -99 173t-172 60q-155 0 -251 -120.5t-96 -367.5q0 -265 104 -403q89 -119 241 -119
q71 0 147.5 33.5t136.5 91.5v186h-278zM394 1565l172 295h213l170 -295h-185l-95 149l-88 -149h-187z" />
    <glyph glyph-name="gcircumflex" unicode="&#x11d;" horiz-adv-x="1026" 
d="M99 -70l264 -39q6 -58 36.5 -82.5t96.5 -24.5q76 0 123 25q33 18 51 60t18 148v155q-52 -86 -117 -129t-144 -43q-145 0 -244 131q-114 150 -114 406q0 272 107.5 410.5t260.5 138.5q81 0 147.5 -43t118.5 -130v149h216v-953q0 -229 -42 -332t-129.5 -155.5t-242.5 -52.5
q-143 0 -229 38t-131.5 113.5t-45.5 174.5v35zM305 553q0 -170 54.5 -248t131.5 -78q83 0 142 79t59 240q0 166 -56.5 245.5t-139.5 79.5q-82 0 -136.5 -78t-54.5 -240zM242 1196l172 295h213l170 -295h-185l-95 149l-88 -149h-187z" />
    <glyph glyph-name="Gdot" unicode="&#x120;" horiz-adv-x="1307" 
d="M682 539v247h523v-584q-79 -93 -224 -160t-291 -67q-178 0 -314 87.5t-215.5 262t-79.5 410.5q0 242 80.5 414t209 257t307.5 85q215 0 344.5 -109.5t166.5 -321.5l-240 -55q-27 113 -99 173t-172 60q-155 0 -251 -120.5t-96 -367.5q0 -265 104 -403q89 -119 241 -119
q71 0 147.5 33.5t136.5 91.5v186h-278zM542 1626v266h227v-266h-227z" />
    <glyph glyph-name="gdot" unicode="&#x121;" horiz-adv-x="1026" 
d="M99 -70l264 -39q6 -58 36.5 -82.5t96.5 -24.5q76 0 123 25q33 18 51 60t18 148v155q-52 -86 -117 -129t-144 -43q-145 0 -244 131q-114 150 -114 406q0 272 107.5 410.5t260.5 138.5q81 0 147.5 -43t118.5 -130v149h216v-953q0 -229 -42 -332t-129.5 -155.5t-242.5 -52.5
q-143 0 -229 38t-131.5 113.5t-45.5 174.5v35zM305 553q0 -170 54.5 -248t131.5 -78q83 0 142 79t59 240q0 166 -56.5 245.5t-139.5 79.5q-82 0 -136.5 -78t-54.5 -240zM385 1249v266h227v-266h-227z" />
    <glyph glyph-name="Gcedilla" unicode="&#x122;" horiz-adv-x="1307" 
d="M682 539v247h523v-584q-79 -93 -224 -160t-291 -67q-178 0 -314 87.5t-215.5 262t-79.5 410.5q0 242 80.5 414t209 257t307.5 85q215 0 344.5 -109.5t166.5 -321.5l-240 -55q-27 113 -99 173t-172 60q-155 0 -251 -120.5t-96 -367.5q0 -265 104 -403q89 -119 241 -119
q71 0 147.5 33.5t136.5 91.5v186h-278zM427 -403v118q84 -11 155 -11q68 0 102 26.5t34 67.5q0 37 -27.5 60.5t-77.5 23.5q-52 0 -107 -20l21 99q64 27 140 27q94 0 150.5 -52.5t56.5 -136.5q0 -96 -75 -157t-212 -61q-106 0 -160 16z" />
    <glyph glyph-name="gcedilla" unicode="&#x123;" horiz-adv-x="1026" 
d="M99 -70l264 -39q6 -58 36.5 -82.5t96.5 -24.5q76 0 123 25q33 18 51 60t18 148v155q-52 -86 -117 -129t-144 -43q-145 0 -244 131q-114 150 -114 406q0 272 107.5 410.5t260.5 138.5q81 0 147.5 -43t118.5 -130v149h216v-953q0 -229 -42 -332t-129.5 -155.5t-242.5 -52.5
q-143 0 -229 38t-131.5 113.5t-45.5 174.5v35zM305 553q0 -170 54.5 -248t131.5 -78q83 0 142 79t59 240q0 166 -56.5 245.5t-139.5 79.5q-82 0 -136.5 -78t-54.5 -240zM647 1151h-208v181q0 217 181 298l41 -105q-91 -35 -115 -121h101v-253z" />
    <glyph glyph-name="Hcircumflex" unicode="&#x124;" horiz-adv-x="1212" 
d="M123 0v1466h242v-577h476v577h243v-1466h-243v641h-476v-641h-242zM328 1565l172 295h213l170 -295h-185l-95 149l-88 -149h-187z" />
    <glyph glyph-name="hcircumflex" unicode="&#x125;" horiz-adv-x="1026" 
d="M351 1466v-539q55 80 121.5 119.5t144.5 39.5q104 0 174 -55t100 -156q22 -74 22 -252v-623h-230v561q0 195 -25 244q-35 66 -119 66q-89 0 -138.5 -71.5t-49.5 -267.5v-532h-231v1466h231zM283 1569l172 295h213l170 -295h-185l-95 149l-88 -149h-187z" />
    <glyph glyph-name="Hbar" unicode="&#x126;" horiz-adv-x="1212" 
d="M123 1083h-119v187h119v196h242v-196h477v196h241v-196h119v-187h-119v-1083h-241v641h-477v-641h-242v1083zM365 1083v-194h477v194h-477z" />
    <glyph glyph-name="hbar" unicode="&#x127;" horiz-adv-x="1026" 
d="M-2 1350h119v116h231v-116h281v-146h-281v-278q115 160 271 160q95 0 171.5 -59t98.5 -148t22 -256v-623h-231v561q0 166 -23.5 237.5t-119.5 71.5q-98 0 -143.5 -79t-45.5 -259v-532h-231v1204h-119v146z" />
    <glyph glyph-name="Itilde" unicode="&#x128;" horiz-adv-x="467" 
d="M115 0v1466h242v-1466h-242zM59 1566h-104l-1 33q0 110 42.5 165.5t107.5 55.5q28 0 53 -8t81 -38q74 -40 110 -40q57 0 67 87h106q-1 -136 -41.5 -193.5t-104.5 -57.5q-27 0 -53 7q-19 5 -88 37q-83 39 -118 39q-25 0 -40.5 -19.5t-16.5 -67.5z" />
    <glyph glyph-name="itilde" unicode="&#x129;" horiz-adv-x="467" 
d="M121 0v1062h231v-1062h-231zM58 1205h-104l-1 33q0 110 42.5 165.5t107.5 55.5q28 0 53 -8t81 -38q74 -40 110 -40q57 0 67 87h106q-1 -136 -41.5 -193.5t-104.5 -57.5q-27 0 -53 7q-19 5 -88 37q-83 39 -118 39q-25 0 -40.5 -19.5t-16.5 -67.5z" />
    <glyph glyph-name="Imacron" unicode="&#x12a;" horiz-adv-x="467" 
d="M115 0v1466h242v-1466h-242zM-25 1622v185h528v-185h-528z" />
    <glyph glyph-name="imacron" unicode="&#x12b;" horiz-adv-x="467" 
d="M121 0v1062h231v-1062h-231zM-24 1249v185h528v-185h-528z" />
    <glyph glyph-name="Ibreve" unicode="&#x12c;" horiz-adv-x="467" 
d="M115 0v1466h242v-1466h-242zM385 1856h112q-9 -140 -79.5 -215.5t-175.5 -75.5t-175.5 75.5t-80.5 215.5h112q13 -144 144 -144t143 144z" />
    <glyph glyph-name="ibreve" unicode="&#x12d;" horiz-adv-x="467" 
d="M121 0v1062h231v-1062h-231zM375 1491h112q-9 -140 -79.5 -215.5t-175.5 -75.5t-175.5 75.5t-80.5 215.5h112q13 -144 144 -144t143 144z" />
    <glyph glyph-name="Iogonek" unicode="&#x12e;" horiz-adv-x="467" 
d="M115 0v1466h242v-1466h-242zM124 26h123q-17 -56 -17 -144q0 -82 31 -120t88 -38q50 0 110 23v-135q-82 -43 -161 -43q-91 0 -147.5 61t-56.5 172q0 88 30 224z" />
    <glyph glyph-name="iogonek" unicode="&#x12f;" horiz-adv-x="467" 
d="M121 1206v260h231v-260h-231zM121 0v1062h231v-1062h-231zM135 26h123q-17 -56 -17 -144q0 -82 31 -120t88 -38q50 0 110 23v-135q-82 -43 -161 -43q-91 0 -147.5 61t-56.5 172q0 88 30 224z" />
    <glyph glyph-name="Jcircumflex" unicode="&#x134;" 
d="M556 1466h243v-928q0 -225 -45 -335t-134.5 -169t-220.5 -59q-173 0 -271 119t-99 359l229 32q4 -129 33 -183q39 -74 117 -74q76 0 112 53.5t36 237.5v947zM384 1565l172 295h213l170 -295h-185l-95 149l-88 -149h-187z" />
    <glyph glyph-name="jcircumflex" unicode="&#x135;" horiz-adv-x="467" 
d="M347 1062v-1029q0 -217 -24 -297t-86 -123.5t-153 -43.5q-69 0 -160 30l40 240q33 -9 57 -9q60 0 83 48q12 26 12 171v1013h231zM156 1196h-186l172 295h213l170 -295h-184l-97 150z" />
    <glyph glyph-name="Kcedilla" unicode="&#x136;" horiz-adv-x="1212" 
d="M125 0v1466h242v-651l491 651h327l-453 -571l477 -895h-314l-331 688l-197 -245v-443h-242zM374 -403v118q84 -11 155 -11q68 0 102 26.5t34 67.5q0 37 -27.5 60.5t-77.5 23.5q-52 0 -107 -20l21 99q64 27 140 27q94 0 150.5 -52.5t56.5 -136.5q0 -96 -75 -157t-212 -61
q-106 0 -160 16z" />
    <glyph glyph-name="kcedilla" unicode="&#x137;" 
d="M113 0v1466h231v-778l269 374h284l-298 -388l319 -674h-248l-220 477l-106 -137v-340h-231zM235 -403v118q84 -11 155 -11q68 0 102 26.5t34 67.5q0 37 -27.5 60.5t-77.5 23.5q-52 0 -107 -20l21 99q64 27 140 27q94 0 150.5 -52.5t56.5 -136.5q0 -96 -75 -157t-212 -61
q-106 0 -160 16z" />
    <glyph glyph-name="kgreenlandic" unicode="&#x138;" horiz-adv-x="936" 
d="M117 0v1061h231v-367l268 367h281l-350 -449l377 -612h-269l-256 424l-51 -68v-356h-231z" />
    <glyph glyph-name="Lcedilla" unicode="&#x13b;" horiz-adv-x="1026" 
d="M129 0v1454h242v-1207h604v-247h-846zM316 -403v118q84 -11 155 -11q68 0 102 26.5t34 67.5q0 37 -27.5 60.5t-77.5 23.5q-52 0 -107 -20l21 99q64 27 140 27q94 0 150.5 -52.5t56.5 -136.5q0 -96 -75 -157t-212 -61q-106 0 -160 16z" />
    <glyph glyph-name="lcedilla" unicode="&#x13c;" horiz-adv-x="467" 
d="M121 0v1466h231v-1466h-231zM-1 -403v118q84 -11 155 -11q68 0 102 26.5t34 67.5q0 37 -27.5 60.5t-77.5 23.5q-52 0 -107 -20l21 99q64 27 140 27q94 0 150.5 -52.5t56.5 -136.5q0 -96 -75 -157t-212 -61q-106 0 -160 16z" />
    <glyph glyph-name="Ncedilla" unicode="&#x145;" horiz-adv-x="1212" 
d="M125 0v1466h236l492 -979v979h226v-1466h-244l-484 956v-956h-226zM353 -403v118q84 -11 155 -11q68 0 102 26.5t34 67.5q0 37 -27.5 60.5t-77.5 23.5q-52 0 -107 -20l21 99q64 27 140 27q94 0 150.5 -52.5t56.5 -136.5q0 -96 -75 -157t-212 -61q-106 0 -160 16z" />
    <glyph glyph-name="ncedilla" unicode="&#x146;" horiz-adv-x="1026" 
d="M913 0h-231v542q0 163 -13 217t-48.5 83t-80.5 29q-58 0 -105 -37.5t-66 -103.5t-19 -249v-481h-231v1062h214v-156q57 90 128.5 135t158.5 45q101 0 170.5 -52.5t96 -135t26.5 -238.5v-660zM268 -403v118q84 -11 155 -11q68 0 102 26.5t34 67.5q0 37 -27.5 60.5
t-77.5 23.5q-52 0 -107 -20l21 99q64 27 140 27q94 0 150.5 -52.5t56.5 -136.5q0 -96 -75 -157t-212 -61q-106 0 -160 16z" />
    <glyph glyph-name="Eng" unicode="&#x14a;" horiz-adv-x="1214" 
d="M127 1466h242v-209q169 234 391 234q175 0 275 -169.5t100 -598.5q0 -473 -89.5 -611.5t-257.5 -138.5q-135 0 -237 70l72 219q74 -39 131 -39q65 0 96 80.5t31 364.5q0 370 -62.5 466.5t-169.5 96.5q-85 0 -153 -57t-97.5 -130.5t-29.5 -242.5v-801h-242v1466z" />
    <glyph glyph-name="eng" unicode="&#x14b;" horiz-adv-x="1026" 
d="M487 -401l41 247q46 -16 72 -16q36 0 56.5 31.5t21.5 144.5l2 537q0 200 -33 264.5t-110 64.5q-68 0 -116.5 -48t-60.5 -113t-12 -230v-481h-231v1063h215v-158q110 180 289 180q111 0 199.5 -80t88.5 -346v-606q0 -235 -20.5 -313.5t-85.5 -127t-166 -48.5
q-64 0 -150 35z" />
    <glyph glyph-name="Omacron" unicode="&#x14c;" horiz-adv-x="1307" 
d="M74 724q0 262 77.5 431.5t202.5 252.5t303 83q258 0 420.5 -197t162.5 -561q0 -368 -172 -575q-151 -183 -410 -183q-261 0 -412 181q-172 207 -172 568zM324 734q0 -253 96 -379.5t238 -126.5q143 0 237 125.5t94 385.5q0 255 -91.5 377t-239.5 122t-241 -123t-93 -381z
M389 1622v185h528v-185h-528z" />
    <glyph glyph-name="omacron" unicode="&#x14d;" horiz-adv-x="1026" 
d="M67 546q0 156 62 284t162 192t225 64q210 0 330 -164.5t120 -384.5q0 -164 -62.5 -296t-164 -198.5t-222.5 -66.5q-194 0 -322 148t-128 422zM303 531q0 -161 63 -243.5t152 -82.5q87 0 149 83t62 245q0 158 -63 241t-151 83q-87 0 -149.5 -83t-62.5 -243zM250 1249v185
h528v-185h-528z" />
    <glyph glyph-name="Obreve" unicode="&#x14e;" horiz-adv-x="1307" 
d="M74 724q0 262 77.5 431.5t202.5 252.5t303 83q258 0 420.5 -197t162.5 -561q0 -368 -172 -575q-151 -183 -410 -183q-261 0 -412 181q-172 207 -172 568zM324 734q0 -253 96 -379.5t238 -126.5q143 0 237 125.5t94 385.5q0 255 -91.5 377t-239.5 122t-241 -123t-93 -381z
M795 1912h112q-9 -140 -79.5 -215.5t-175.5 -75.5t-175.5 75.5t-80.5 215.5h112q13 -144 144 -144t143 144z" />
    <glyph glyph-name="obreve" unicode="&#x14f;" horiz-adv-x="1026" 
d="M67 546q0 156 62 284t162 192t225 64q210 0 330 -164.5t120 -384.5q0 -164 -62.5 -296t-164 -198.5t-222.5 -66.5q-194 0 -322 148t-128 422zM303 531q0 -161 63 -243.5t152 -82.5q87 0 149 83t62 245q0 158 -63 241t-151 83q-87 0 -149.5 -83t-62.5 -243zM673 1483h112
q-9 -140 -79.5 -215.5t-175.5 -75.5t-175.5 75.5t-80.5 215.5h112q13 -144 144 -144t143 144z" />
    <glyph glyph-name="Rcedilla" unicode="&#x156;" horiz-adv-x="1212" 
d="M123 0v1466h511q196 0 280 -39.5t138 -137t54 -233.5q0 -172 -82.5 -277t-234.5 -132q78 -56 129 -122.5t139 -238.5l146 -286h-289l-176 319q-95 173 -129 216.5t-72 60t-122 16.5h-50v-612h-242zM365 846h180q165 0 210 14.5t73 58.5t28 117q0 70 -28 112.5t-76 58.5
q-34 11 -197 11h-190v-372zM388 -403v118q84 -11 155 -11q68 0 102 26.5t34 67.5q0 37 -27.5 60.5t-77.5 23.5q-52 0 -107 -20l21 99q64 27 140 27q94 0 150.5 -52.5t56.5 -136.5q0 -96 -75 -157t-212 -61q-106 0 -160 16z" />
    <glyph glyph-name="rcedilla" unicode="&#x157;" horiz-adv-x="653" 
d="M342 0h-231v1062h214v-151q55 106 98.5 140.5t100.5 34.5q79 0 151 -53l-72 -245q-57 46 -108 46q-48 0 -84.5 -35.5t-52.5 -128.5t-16 -342v-328zM114 -403v118q84 -11 155 -11q68 0 102 26.5t34 67.5q0 37 -27.5 60.5t-77.5 23.5q-52 0 -107 -20l21 99q64 27 140 27
q94 0 150.5 -52.5t56.5 -136.5q0 -96 -75 -157t-212 -61q-106 0 -160 16z" />
    <glyph glyph-name="Scircumflex" unicode="&#x15c;" horiz-adv-x="1120" 
d="M61 477l237 28q40 -281 262 -281q110 0 173 57.5t63 142.5q0 50 -22 85t-67 57.5t-218 75.5q-155 47 -227 102t-114.5 144.5t-42.5 192.5q0 120 54.5 216t150.5 145t237 49q212 0 331 -115t126 -329l-243 -13q-16 118 -69 165t-151 47t-151 -41t-53 -102q0 -60 48 -101
t221 -90q183 -53 264.5 -111.5t124.5 -151t43 -224.5q0 -191 -117.5 -321t-367.5 -130q-442 0 -492 503zM272 1565l172 295h213l170 -295h-185l-95 149l-88 -149h-187z" />
    <glyph glyph-name="scircumflex" unicode="&#x15d;" 
d="M40 303l231 43q30 -167 186 -167q83 0 124 32t41 83q0 35 -18 55q-19 20 -75 35q-284 75 -361 143q-96 85 -96 233t94 237t273 89q171 0 260 -66.5t125 -214.5l-217 -49q-29 128 -164 128q-85 0 -121 -24.5t-36 -63.5q0 -35 33 -58q33 -24 205 -72q193 -54 262 -131
q68 -77 68 -205q0 -154 -105.5 -254t-291.5 -100q-169 0 -276 83.5t-141 243.5zM169 1196l172 295h213l170 -295h-185l-95 149l-88 -149h-187z" />
    <glyph glyph-name="Tbar" unicode="&#x166;" horiz-adv-x="1026" 
d="M393 553h-258v186h258v480h-358v247h956v-247h-356v-480h258v-186h-258v-553h-242v553z" />
    <glyph glyph-name="tbar" unicode="&#x167;" horiz-adv-x="559" 
d="M350 606h146v-174h-146v-24q0 -139 12.5 -169t53.5 -30q33 0 92 27l18 -218q-79 -43 -180 -43q-94 0 -146 45.5t-65.5 112.5t-13.5 242v57h-117v174h117v232h-107v225h107v211l229 164v-375h158v-225h-158v-232z" />
    <glyph glyph-name="Utilde" unicode="&#x168;" horiz-adv-x="1212" 
d="M120 1466h242v-794q0 -185 9 -241q16 -97 76.5 -150t159.5 -53q84 0 137 37.5t72.5 104t19.5 285.5v811h243v-770q0 -295 -31.5 -426.5t-142 -213t-291.5 -81.5q-188 0 -293.5 67.5t-153 190t-47.5 451.5v782zM415 1566h-104l-1 33q0 110 42.5 165.5t107.5 55.5
q28 0 53 -8t81 -38q74 -40 110 -40q57 0 67 87h106q-1 -136 -41.5 -193.5t-104.5 -57.5q-27 0 -53 7q-19 5 -88 37q-83 39 -118 39q-25 0 -40.5 -19.5t-16.5 -67.5z" />
    <glyph glyph-name="utilde" unicode="&#x169;" horiz-adv-x="1026" 
d="M693 0v159q-48 -86 -126 -134.5t-163 -48.5q-86 0 -154 45t-101.5 128t-33.5 241v672h231v-488q0 -209 10.5 -265.5t46.5 -87.5t87 -31q58 0 107 40.5t64.5 104t15.5 279.5v448h230v-1062h-214zM335 1205h-104l-1 33q0 110 42.5 165.5t107.5 55.5q28 0 53 -8t81 -38
q74 -40 110 -40q57 0 67 87h106q-1 -136 -41.5 -193.5t-104.5 -57.5q-27 0 -53 7q-19 5 -88 37q-83 39 -118 39q-25 0 -40.5 -19.5t-16.5 -67.5z" />
    <glyph glyph-name="Umacron" unicode="&#x16a;" horiz-adv-x="1212" 
d="M120 1466h242v-794q0 -185 9 -241q16 -97 76.5 -150t159.5 -53q84 0 137 37.5t72.5 104t19.5 285.5v811h243v-770q0 -295 -31.5 -426.5t-142 -213t-291.5 -81.5q-188 0 -293.5 67.5t-153 190t-47.5 451.5v782zM335 1622v185h528v-185h-528z" />
    <glyph glyph-name="umacron" unicode="&#x16b;" horiz-adv-x="1026" 
d="M693 0v159q-48 -86 -126 -134.5t-163 -48.5q-86 0 -154 45t-101.5 128t-33.5 241v672h231v-488q0 -209 10.5 -265.5t46.5 -87.5t87 -31q58 0 107 40.5t64.5 104t15.5 279.5v448h230v-1062h-214zM250 1249v185h528v-185h-528z" />
    <glyph glyph-name="Ubreve" unicode="&#x16c;" horiz-adv-x="1212" 
d="M120 1466h242v-794q0 -185 9 -241q16 -97 76.5 -150t159.5 -53q84 0 137 37.5t72.5 104t19.5 285.5v811h243v-770q0 -295 -31.5 -426.5t-142 -213t-291.5 -81.5q-188 0 -293.5 67.5t-153 190t-47.5 451.5v782zM746 1856h112q-9 -140 -79.5 -215.5t-175.5 -75.5
t-175.5 75.5t-80.5 215.5h112q13 -144 144 -144t143 144z" />
    <glyph glyph-name="ubreve" unicode="&#x16d;" horiz-adv-x="1026" 
d="M693 0v159q-48 -86 -126 -134.5t-163 -48.5q-86 0 -154 45t-101.5 128t-33.5 241v672h231v-488q0 -209 10.5 -265.5t46.5 -87.5t87 -31q58 0 107 40.5t64.5 104t15.5 279.5v448h230v-1062h-214zM663 1491h112q-9 -140 -79.5 -215.5t-175.5 -75.5t-175.5 75.5t-80.5 215.5
h112q13 -144 144 -144t143 144z" />
    <glyph glyph-name="Uogonek" unicode="&#x172;" horiz-adv-x="1212" 
d="M120 1466h242v-794q0 -185 9 -241q16 -97 76.5 -150t159.5 -53q84 0 137 37.5t72.5 104t19.5 285.5v811h243v-770q0 -295 -31.5 -426.5t-142 -213t-291.5 -81.5q-188 0 -293.5 67.5t-153 190t-47.5 451.5v782zM544 26h123q-17 -56 -17 -144q0 -82 31 -120t88 -38
q50 0 110 23v-135q-82 -43 -161 -43q-91 0 -147.5 61t-56.5 172q0 88 30 224z" />
    <glyph glyph-name="uogonek" unicode="&#x173;" horiz-adv-x="1026" 
d="M693 0v159q-48 -86 -126 -134.5t-163 -48.5q-86 0 -154 45t-101.5 128t-33.5 241v672h231v-488q0 -209 10.5 -265.5t46.5 -87.5t87 -31q58 0 107 40.5t64.5 104t15.5 279.5v448h230v-1062h-214zM705 26h123q-17 -56 -17 -144q0 -82 31 -120t88 -38q50 0 110 23v-135
q-82 -43 -161 -43q-91 0 -147.5 61t-56.5 172q0 88 30 224z" />
    <glyph glyph-name="Wcircumflex" unicode="&#x174;" horiz-adv-x="1585" 
d="M292 0l-287 1466h249l180 -1007l220 1007h289l211 -1024l185 1024h244l-292 -1466h-258l-240 1096l-238 -1096h-263zM521 1565l172 295h213l170 -295h-185l-95 149l-88 -149h-187z" />
    <glyph glyph-name="wcircumflex" unicode="&#x175;" horiz-adv-x="1307" 
d="M284 0l-276 1062h224l163 -696l150 696h222l145 -696l167 696h227l-280 -1062h-221l-150 683l-148 -683h-223zM380 1192l172 295h213l170 -295h-185l-95 149l-88 -149h-187z" />
    <glyph glyph-name="Ycircumflex" unicode="&#x176;" horiz-adv-x="1120" 
d="M438 0v617l-440 849h284l283 -580l278 580h279l-442 -851v-615h-242zM288 1565l172 295h213l170 -295h-185l-95 149l-88 -149h-187z" />
    <glyph glyph-name="ycircumflex" unicode="&#x177;" 
d="M11 1062h246l207 -754l204 754h238l-307 -1022l-59 -199q-39 -112 -77.5 -164t-98 -80t-146.5 -28q-67 0 -131 17l-20 220q54 -13 97 -13q66 0 108.5 44t69.5 160zM187 1192l172 295h213l170 -295h-185l-95 149l-88 -149h-187z" />
    <glyph glyph-name="longs" unicode="&#x17f;" horiz-adv-x="467" 
d="M577 1455l-31 -196q-56 16 -108 16q-49 0 -70.5 -29.5t-21.5 -108.5v-1137h-230v1142q0 128 22.5 197t87 110.5t156.5 41.5q101 0 195 -36z" />
    <glyph glyph-name="Aringacute" unicode="&#x1fa;" horiz-adv-x="1251" 
d="M1206 0h-264l-105 333h-480l-99 -333h-258l468 1466h257zM759 580l-165 544l-163 -544h328zM765 1714q0 -84 -48.5 -140t-112.5 -56t-112.5 56t-48.5 140q0 85 48 140.5t113 55.5q64 0 112.5 -55.5t48.5 -140.5zM677 1714q0 39 -22 64t-51 25t-51 -25t-22 -64
q0 -38 22 -63.5t51 -25.5t51 25.5t22 63.5zM489 1972l113 299h259l-226 -299h-146z" />
    <glyph glyph-name="aringacute" unicode="&#x1fb;" horiz-adv-x="1024" 
d="M293 738l-209 46q38 161 125.5 231.5t251.5 70.5q146 0 223 -41t110 -111.5t33 -256.5l-2 -328q0 -138 11 -205.5t41 -143.5h-228l-30 116q-59 -70 -126.5 -105t-143.5 -35q-127 0 -208 85.5t-81 227.5q0 90 33 157t93 107t192 71q160 37 223 69q0 88 -12.5 115.5t-46 45
t-94.5 17.5q-62 0 -97.5 -28t-57.5 -105zM601 510q-44 -18 -137 -42q-107 -28 -140 -62t-33 -88q0 -61 36.5 -102.5t91.5 -41.5q49 0 97 33.5t66.5 79.5t18.5 167v56zM630 1342q0 -84 -48.5 -140t-112.5 -56t-112.5 56t-48.5 140q0 85 48 140.5t113 55.5q64 0 112.5 -55.5
t48.5 -140.5zM542 1342q0 39 -22 64t-51 25t-51 -25t-22 -64q0 -38 22 -63.5t51 -25.5t51 25.5t22 63.5zM373 1620l113 299h259l-226 -299h-146z" />
    <glyph glyph-name="AEacute" unicode="&#x1fc;" horiz-adv-x="1679" 
d="M-70 0l561 1466h1085v-248h-595v-326h549v-248h-549v-397h617v-247h-859v345h-417l-123 -345h-269zM411 601h330v643h-94zM837 1565l113 299h259l-226 -299h-146z" />
    <glyph glyph-name="aeacute" unicode="&#x1fd;" horiz-adv-x="1493" 
d="M1177 339l226 -49q-94 -314 -384 -314q-186 0 -312 146q-61 -65 -153.5 -105.5t-184.5 -40.5q-135 0 -216 85.5t-81 226.5q0 107 50 189q38 63 115 99q49 24 233 70q80 21 138 44q0 81 -13.5 112t-46.5 50t-83 19q-63 0 -102.5 -31t-57.5 -102l-208 49q42 161 132 230
t265 69q172 0 266 -98q101 98 238 98q126 0 218.5 -65.5t145 -199t52.5 -373.5h-579q25 -258 181 -258q119 0 161 149zM1187 624q-6 98 -28.5 146.5t-62 74.5t-88.5 26q-84 0 -128.5 -77.5t-41.5 -169.5h349zM606 508q-204 -67 -218 -74q-45 -19 -65 -49.5t-20 -70.5
q0 -61 36.5 -100.5t91.5 -39.5q52 0 98.5 35t61.5 85t15 214zM599 1192l113 299h259l-226 -299h-146z" />
    <glyph glyph-name="Oslashacute" unicode="&#x1fe;" horiz-adv-x="1307" 
d="M1016 1359l129 177l115 -122l-137 -188q115 -192 115 -504q0 -308 -136 -516q-151 -231 -440 -231q-223 0 -361 125l-132 -182l-117 124l140 192q-61 102 -86 208q-34 140 -34 302q0 356 175 566q150 181 408 181q216 0 361 -132zM865 1153q-82 86 -209 86
q-147 0 -240 -123.5t-93 -380.5q0 -162 37 -272zM955 996l-504 -691q83 -90 203 -90q145 0 239.5 127.5t94.5 390.5q0 152 -33 263zM512 1565l113 299h259l-226 -299h-146z" />
    <glyph glyph-name="oslashacute" unicode="&#x1ff;" horiz-adv-x="1026" 
d="M777 999l85 120l92 -92l-89 -124q46 -66 76 -165t30 -205q0 -163 -62.5 -293t-165.5 -197t-224 -67q-140 0 -252 84l-95 -133l-89 95l94 134q-105 157 -105 383q0 160 61 288.5t162 193.5t226 65q147 0 256 -87zM647 817q-55 54 -125 54q-90 0 -156 -86t-66 -245
q0 -100 24 -178zM717 695l-321 -453q55 -48 123 -48q93 0 158 85t65 244q0 89 -25 172zM404 1192l113 299h259l-226 -299h-146z" />
    <glyph glyph-name="anoteleia" unicode="&#x387;" horiz-adv-x="559" 
d="M164 781v281h231v-281h-231z" />
    <glyph glyph-name="Wgrave" unicode="&#x1e80;" horiz-adv-x="1585" 
d="M292 0l-287 1466h249l180 -1007l220 1007h289l211 -1024l185 1024h244l-292 -1466h-258l-240 1096l-238 -1096h-263zM956 1565h-146l-226 299h258z" />
    <glyph glyph-name="wgrave" unicode="&#x1e81;" horiz-adv-x="1307" 
d="M284 0l-276 1062h224l163 -696l150 696h222l145 -696l167 696h227l-280 -1062h-221l-150 683l-148 -683h-223zM786 1192h-146l-226 299h258z" />
    <glyph glyph-name="Wacute" unicode="&#x1e82;" horiz-adv-x="1585" 
d="M292 0l-287 1466h249l180 -1007l220 1007h289l211 -1024l185 1024h244l-292 -1466h-258l-240 1096l-238 -1096h-263zM684 1565l113 299h259l-226 -299h-146z" />
    <glyph glyph-name="wacute" unicode="&#x1e83;" horiz-adv-x="1307" 
d="M284 0l-276 1062h224l163 -696l150 696h222l145 -696l167 696h227l-280 -1062h-221l-150 683l-148 -683h-223zM520 1192l113 299h259l-226 -299h-146z" />
    <glyph glyph-name="Wdieresis" unicode="&#x1e84;" horiz-adv-x="1585" 
d="M292 0l-287 1466h249l180 -1007l220 1007h289l211 -1024l185 1024h244l-292 -1466h-258l-240 1096l-238 -1096h-263zM516 1623v241h198v-241h-198zM869 1623v241h198v-241h-198z" />
    <glyph glyph-name="wdieresis" unicode="&#x1e85;" horiz-adv-x="1307" 
d="M284 0l-276 1062h224l163 -696l150 696h222l145 -696l167 696h227l-280 -1062h-221l-150 683l-148 -683h-223zM374 1250v241h198v-241h-198zM727 1250v241h198v-241h-198z" />
    <glyph glyph-name="Ygrave" unicode="&#x1ef2;" horiz-adv-x="1120" 
d="M438 0v617l-440 849h284l283 -580l278 580h279l-442 -851v-615h-242zM708 1565h-146l-226 299h258z" />
    <glyph glyph-name="ygrave" unicode="&#x1ef3;" 
d="M11 1062h246l207 -754l204 754h238l-307 -1022l-59 -199q-39 -112 -77.5 -164t-98 -80t-146.5 -28q-67 0 -131 17l-20 220q54 -13 97 -13q66 0 108.5 44t69.5 160zM612 1192h-146l-226 299h258z" />
    <glyph glyph-name="quotereversed" unicode="&#x201b;" horiz-adv-x="467" 
d="M343 1466v-281h-111q2 -86 32 -134.5t98 -76.5l-45 -117q-115 51 -164 153q-40 84 -40 254v202h230z" />
    <glyph glyph-name="radicalex" unicode="&#x203e;" horiz-adv-x="559" 
d="M-5 1237v185h569v-185h-569z" />
    <glyph glyph-name="afii08941" unicode="&#x20a4;" 
d="M820 285l88 -238q-103 -70 -226 -70q-74 0 -194 42q-126 43 -185 43q-100 0 -204 -87l-88 242q86 75 129 165q37 87 37 108h-166v205h161l-18 68h-143v204h117q-22 50 -22 116q0 178 109 293t273 115q154 0 252.5 -95t122.5 -290l-222 -40q-29 201 -159 201
q-63 0 -108 -52t-45 -135q0 -62 25 -113h272v-204h-226l14 -68h212v-205h-218l-23 -59q-24 -67 -101 -176q46 28 114 28q30 0 56 -5l108 -32q54 -17 90 -17q63 0 168 56z" />
    <glyph glyph-name="estimated" unicode="&#x212e;" horiz-adv-x="1229" 
d="M321 531v-371q120 -121 298 -121q254 0 395 246l72 -43q-117 -168 -231 -222t-236 -54q-232 0 -380.5 158.5t-148.5 406.5q0 249 148.5 407t380.5 158q214 0 366 -142.5t163 -422.5h-827zM917 605v297q-123 121 -300 121q-175 0 -296 -122v-296h596z" />
    <glyph glyph-name="oneeighth" unicode="&#x215b;" horiz-adv-x="1401" 
d="M406 727h-155v513q-77 -64 -176 -98v155q72 24 127.5 74.5t77.5 112.5h126v-757zM389 -54h-131l713 1538h130zM955 364q-82 48 -82 153q0 84 57.5 141.5t163.5 57.5q95 0 160.5 -53.5t65.5 -149.5q0 -94 -80 -149q102 -48 102 -179q0 -102 -64.5 -170.5t-174.5 -68.5
t-179 64t-69 169q0 124 100 185zM1096 577q-75 0 -75 -76q0 -70 75 -70q76 0 76 74q0 72 -76 72zM1099 290q-43 0 -67 -27.5t-24 -73.5q0 -44 26 -74t65 -30q37 0 62.5 26.5t25.5 77.5q0 101 -88 101z" />
    <glyph glyph-name="threeeighths" unicode="&#x215c;" horiz-adv-x="1401" 
d="M32 946l151 20q12 -108 93 -108q39 0 64 29.5t25 78.5q0 45 -24 72t-61 27q-24 0 -74 -15l19 146q56 -1 84 21q27 21 27 58q0 31 -18 48.5t-50 17.5q-70 0 -81 -98l-146 26q22 107 66 152q62 63 165 63q96 0 158.5 -59.5t62.5 -144.5q0 -42 -20 -78t-60 -66
q56 -24 83.5 -68.5t27.5 -109.5q0 -102 -71.5 -172.5t-177.5 -70.5q-100 0 -165.5 60.5t-77.5 170.5zM409 -54h-131l713 1538h130zM955 364q-82 48 -82 153q0 84 57.5 141.5t163.5 57.5q95 0 160.5 -53.5t65.5 -149.5q0 -94 -80 -149q102 -48 102 -179q0 -102 -64.5 -170.5
t-174.5 -68.5t-179 64t-69 169q0 124 100 185zM1096 577q-75 0 -75 -76q0 -70 75 -70q76 0 76 74q0 72 -76 72zM1099 290q-43 0 -67 -27.5t-24 -73.5q0 -44 26 -74t65 -30q37 0 62.5 26.5t25.5 77.5q0 101 -88 101z" />
    <glyph glyph-name="fiveeighths" unicode="&#x215d;" horiz-adv-x="1401" 
d="M37 940l156 16q12 -102 94 -102q39 0 64.5 33.5t25.5 93.5q0 121 -96 121q-57 0 -101 -53l-127 18l74 403h377v-157h-258l-13 -86q35 14 76 14q99 0 163.5 -73.5t64.5 -182.5q0 -97 -65 -183.5t-187 -86.5q-102 0 -168.5 58t-79.5 167zM409 -54h-131l713 1538h130z
M955 364q-82 48 -82 153q0 84 57.5 141.5t163.5 57.5q95 0 160.5 -53.5t65.5 -149.5q0 -94 -80 -149q102 -48 102 -179q0 -102 -64.5 -170.5t-174.5 -68.5t-179 64t-69 169q0 124 100 185zM1096 577q-75 0 -75 -76q0 -70 75 -70q76 0 76 74q0 72 -76 72zM1099 290
q-43 0 -67 -27.5t-24 -73.5q0 -44 26 -74t65 -30q37 0 62.5 26.5t25.5 77.5q0 101 -88 101z" />
    <glyph glyph-name="seveneighths" unicode="&#x215e;" horiz-adv-x="1401" 
d="M69 1315v155h483v-120q-101 -104 -169 -280.5t-68 -319.5v-23h-152q5 309 201 588h-295zM389 -54h-131l713 1538h130zM955 364q-82 48 -82 153q0 84 57.5 141.5t163.5 57.5q95 0 160.5 -53.5t65.5 -149.5q0 -94 -80 -149q102 -48 102 -179q0 -102 -64.5 -170.5
t-174.5 -68.5t-179 64t-69 169q0 124 100 185zM1096 577q-75 0 -75 -76q0 -70 75 -70q76 0 76 74q0 72 -76 72zM1099 290q-43 0 -67 -27.5t-24 -73.5q0 -44 26 -74t65 -30q37 0 62.5 26.5t25.5 77.5q0 101 -88 101z" />
    <glyph glyph-name="commaaccent" horiz-adv-x="559" 
d="M175 -121h208v-181q0 -217 -181 -298l-41 105q91 35 115 121h-101v253z" />
    <glyph glyph-name="undercommaaccent" horiz-adv-x="559" 
d="M31 -403v118q84 -11 155 -11q68 0 102 26.5t34 67.5q0 37 -27.5 60.5t-77.5 23.5q-52 0 -107 -20l21 99q64 27 140 27q94 0 150.5 -52.5t56.5 -136.5q0 -96 -75 -157t-212 -61q-106 0 -160 16z" />
    <glyph glyph-name="tonos" unicode="&#x384;" horiz-adv-x="559" 
d="M153 1192l113 299h259l-226 -299h-146z" />
    <glyph glyph-name="dieresistonos" unicode="&#x385;" horiz-adv-x="559" 
d="M131 1194l86 297h248l-186 -297h-148zM680 1194h-199v240h199v-240zM78 1194h-199v240h199v-240z" />
    <glyph glyph-name="Alphatonos" unicode="&#x386;" horiz-adv-x="1212" 
d="M1206 0h-264l-105 333h-480l-99 -333h-258l468 1466h257zM759 580l-165 544l-163 -544h328zM25 1168l113 299h259l-226 -299h-146z" />
    <glyph glyph-name="Epsilontonos" unicode="&#x388;" horiz-adv-x="1434" 
d="M435 0v1466h892v-248h-650v-325h604v-247h-604v-399h672v-247h-914zM-11 1168l113 299h259l-226 -299h-146z" />
    <glyph glyph-name="Etatonos" unicode="&#x389;" horiz-adv-x="1522" 
d="M435 0v1466h242v-577h476v577h243v-1466h-243v641h-476v-641h-242zM-11 1168l113 299h259l-226 -299h-146z" />
    <glyph glyph-name="Iotatonos" unicode="&#x38a;" horiz-adv-x="789" 
d="M439 0v1466h242v-1466h-242zM-11 1168l113 299h259l-226 -299h-146z" />
    <glyph glyph-name="Omicrontonos" unicode="&#x38c;" horiz-adv-x="1382" 
d="M146 724q0 262 77.5 431.5t202.5 252.5t303 83q258 0 420.5 -197t162.5 -561q0 -368 -172 -575q-151 -183 -410 -183q-261 0 -412 181q-172 207 -172 568zM396 734q0 -253 96 -379.5t238 -126.5q143 0 237 125.5t94 385.5q0 255 -91.5 377t-239.5 122t-241 -123t-93 -381
zM-47 1168l113 299h259l-226 -299h-146z" />
    <glyph glyph-name="Upsilontonos" unicode="&#x38e;" horiz-adv-x="1558" 
d="M874 0v617l-440 849h284l283 -580l278 580h279l-442 -851v-615h-242zM-7 1168l113 299h259l-226 -299h-146z" />
    <glyph glyph-name="Omegatonos" unicode="&#x38f;" horiz-adv-x="1407" 
d="M691 0h-551v248h233q-213 277 -213 590q0 288 158 470.5t414 182.5q257 0 416 -183t159 -470q0 -315 -215 -590h234v-248h-551v236q282 138 282 530q0 211 -90 342t-235 131t-233.5 -130.5t-88.5 -342.5q0 -392 281 -530v-236zM-51 1168l113 299h259l-226 -299h-146z" />
    <glyph glyph-name="iotadieresistonos" unicode="&#x390;" horiz-adv-x="467" 
d="M121 0v1062h231v-1062h-231zM66 1194l86 297h248l-186 -297h-148zM615 1194h-199v240h199v-240zM13 1194h-199v240h199v-240z" />
    <glyph glyph-name="Alpha" unicode="&#x391;" horiz-adv-x="1212" 
d="M1206 0h-264l-105 333h-480l-99 -333h-258l468 1466h257zM759 580l-165 544l-163 -544h328z" />
    <glyph glyph-name="Beta" unicode="&#x392;" horiz-adv-x="1212" 
d="M122 1466h481q197 0 277 -36t135 -127t55 -206q0 -106 -47 -191.5t-122 -126.5q107 -38 167.5 -130t60.5 -224q0 -160 -77 -270.5t-182 -136.5q-73 -18 -339 -18h-409v1466zM364 1222v-339h160q144 0 178 5q62 10 97 52.5t35 115.5q0 65 -28.5 105.5t-69 50.5t-232.5 10
h-140zM364 639v-392h225q148 0 190 15.5t70.5 61t28.5 115.5q0 72 -30.5 118.5t-81 64t-206.5 17.5h-196z" />
    <glyph glyph-name="Delta" unicode="&#x394;" horiz-adv-x="1206" 
d="M725 1466l481 -1466h-1206l467 1466h258zM332 248h532l-270 876z" />
    <glyph glyph-name="Epsilon" unicode="&#x395;" horiz-adv-x="1120" 
d="M123 0v1466h892v-248h-650v-325h604v-247h-604v-399h672v-247h-914z" />
    <glyph glyph-name="Zeta" unicode="&#x396;" horiz-adv-x="1026" 
d="M18 0v267l632 951h-561v248h880v-230l-658 -989h684v-247h-977z" />
    <glyph glyph-name="Eta" unicode="&#x397;" horiz-adv-x="1212" 
d="M123 0v1466h242v-577h476v577h243v-1466h-243v641h-476v-641h-242z" />
    <glyph glyph-name="Iota" unicode="&#x399;" horiz-adv-x="467" 
d="M115 0v1466h242v-1466h-242z" />
    <glyph glyph-name="Kappa" unicode="&#x39a;" horiz-adv-x="1212" 
d="M125 0v1466h242v-651l491 651h327l-453 -571l477 -895h-314l-331 688l-197 -245v-443h-242z" />
    <glyph glyph-name="Lambda" unicode="&#x39b;" horiz-adv-x="1120" 
d="M430 1466h260l430 -1466h-264l-303 1085l-295 -1085h-258z" />
    <glyph glyph-name="Mu" unicode="&#x39c;" horiz-adv-x="1399" 
d="M119 0v1466h363l218 -1000l216 1000h364v-1466h-225v1154l-239 -1154h-234l-237 1154v-1154h-226z" />
    <glyph glyph-name="Nu" unicode="&#x39d;" horiz-adv-x="1212" 
d="M125 0v1466h236l492 -979v979h226v-1466h-244l-484 956v-956h-226z" />
    <glyph glyph-name="Xi" unicode="&#x39e;" horiz-adv-x="1081" 
d="M106 1219v247h869v-247h-869zM152 649v248h778v-248h-778zM84 0v248h913v-248h-913z" />
    <glyph glyph-name="Omicron" unicode="&#x39f;" horiz-adv-x="1307" 
d="M74 724q0 262 77.5 431.5t202.5 252.5t303 83q258 0 420.5 -197t162.5 -561q0 -368 -172 -575q-151 -183 -410 -183q-261 0 -412 181q-172 207 -172 568zM324 734q0 -253 96 -379.5t238 -126.5q143 0 237 125.5t94 385.5q0 255 -91.5 377t-239.5 122t-241 -123t-93 -381z
" />
    <glyph glyph-name="Pi" unicode="&#x3a0;" horiz-adv-x="1212" 
d="M367 0h-242v1466h960v-1466h-241v1219h-477v-1219z" />
    <glyph glyph-name="Rho" unicode="&#x3a1;" horiz-adv-x="1120" 
d="M122 0v1466h390q218 0 285 -21q107 -34 176.5 -145t69.5 -286q0 -159 -60 -266.5t-150 -151t-310 -43.5h-159v-553h-242zM364 1218v-416h134q135 0 183.5 19t79.5 68.5t31 121.5q0 73 -32 123t-79 67t-199 17h-118z" />
    <glyph glyph-name="Sigma" unicode="&#x3a3;" horiz-adv-x="1008" 
d="M88 1202v264h834v-247h-533l311 -453l-344 -518h590v-248h-872v274l321 492z" />
    <glyph glyph-name="Tau" unicode="&#x3a4;" horiz-adv-x="1026" 
d="M393 0v1218h-357v248h955v-248h-356v-1218h-242z" />
    <glyph glyph-name="Upsilon" unicode="&#x3a5;" horiz-adv-x="1120" 
d="M438 0v617l-440 849h284l283 -580l278 580h279l-442 -851v-615h-242z" />
    <glyph glyph-name="Chi" unicode="&#x3a7;" horiz-adv-x="1120" 
d="M1 0l411 765l-373 701h284l241 -471l236 471h281l-373 -712l411 -754h-293l-267 507l-267 -507h-291z" />
    <glyph glyph-name="Psi" unicode="&#x3a8;" horiz-adv-x="1358" 
d="M70 1051v415h241v-370q0 -237 57 -327.5t191 -90.5v788h242v-788q133 -1 189.5 89.5t56.5 328.5v370h241v-415q0 -325 -118 -470.5t-369 -152.5v-428h-242v428q-252 8 -370.5 153.5t-118.5 469.5z" />
    <glyph glyph-name="Ohm" unicode="&#x3a9;" horiz-adv-x="1346" 
d="M631 0h-551v248h233q-213 277 -213 590q0 288 158 470.5t414 182.5q257 0 416 -183t159 -470q0 -315 -215 -590h234v-248h-551v236q282 138 282 530q0 211 -90 342t-235 131t-233.5 -130.5t-88.5 -342.5q0 -392 281 -530v-236z" />
    <glyph glyph-name="Iotadieresis" unicode="&#x3aa;" horiz-adv-x="467" 
d="M115 0v1466h242v-1466h-242zM-39 1621v241h198v-241h-198zM314 1621v241h198v-241h-198z" />
    <glyph glyph-name="Upsilondieresis" unicode="&#x3ab;" horiz-adv-x="1120" 
d="M438 0v617l-440 849h284l283 -580l278 580h279l-442 -851v-615h-242zM293 1622v241h198v-241h-198zM646 1622v241h198v-241h-198z" />
    <glyph glyph-name="alphatonos" unicode="&#x3ac;" horiz-adv-x="1032" 
d="M731 176q-105 -201 -289 -201q-166 0 -272.5 165t-106.5 419q0 234 106 381t275 147q175 0 287 -208q19 91 47 182h199q-105 -271 -105 -561q0 -234 97 -500h-195q-34 131 -43 176zM483 864q-82 0 -132 -88t-50 -239q0 -157 51.5 -247.5t130.5 -90.5q84 0 132.5 85.5
t48.5 243.5q0 157 -52.5 246.5t-128.5 89.5zM335 1192l113 299h259l-226 -299h-146z" />
    <glyph glyph-name="epsilontonos" unicode="&#x3ad;" horiz-adv-x="797" 
d="M541 438h-23q-124 0 -170.5 -30.5t-46.5 -94.5q0 -50 33.5 -82t85.5 -32q86 0 205 98l151 -182q-194 -140 -358 -140q-160 0 -257.5 88t-97.5 226q0 182 156 262q-121 82 -121 231q0 141 86.5 223t239.5 82q192 0 317 -108l-137 -178q-88 57 -160 57q-120 0 -120 -94
q0 -112 217 -109v-217zM315 1192l113 299h259l-226 -299h-146z" />
    <glyph glyph-name="etatonos" unicode="&#x3ae;" horiz-adv-x="1026" 
d="M332 1061v-156q114 182 286 182q109 0 201 -79t92 -349v-1062h-231v946q0 215 -36.5 272t-104.5 57q-67 0 -115.5 -47t-62 -120t-13.5 -222v-483h-231v1061h215zM329 1192l113 299h259l-226 -299h-146z" />
    <glyph glyph-name="iotatonos" unicode="&#x3af;" horiz-adv-x="467" 
d="M121 0v1062h231v-1062h-231zM100 1192l113 299h259l-226 -299h-146z" />
    <glyph glyph-name="upsilondieresistonos" unicode="&#x3b0;" horiz-adv-x="977" 
d="M96 539v522h232v-565q0 -291 159 -291q162 0 162 291v565h232v-522q0 -564 -394 -564q-391 0 -391 564zM338 1194l86 297h248l-186 -297h-148zM887 1194h-199v240h199v-240zM285 1194h-199v240h199v-240z" />
    <glyph glyph-name="beta" unicode="&#x3b2;" horiz-adv-x="1026" 
d="M696 807q130 -30 199.5 -137t69.5 -260q0 -190 -91.5 -312.5t-234.5 -122.5q-176 0 -289 181v-559h-231v1374q0 248 111 384t298 136q158 0 264.5 -107t106.5 -272q0 -104 -54 -187.5t-149 -117.5zM350 944v-348q0 -191 62 -294t157 -103q69 0 113.5 59t44.5 156
q0 137 -70.5 220t-203.5 83v155q106 6 163.5 62.5t57.5 146.5q0 83 -45.5 135t-112.5 52q-166 0 -166 -324z" />
    <glyph glyph-name="gamma" unicode="&#x3b3;" 
d="M352 -403v403l-340 1061h242l164 -541l47 -180l49 180l166 541h238l-334 -1061v-403h-232z" />
    <glyph glyph-name="zeta" unicode="&#x3b6;" horiz-adv-x="772" 
d="M152 1233v233h606v-188q-244 -201 -356.5 -424t-112.5 -401q0 -105 36 -140t98 -49q111 -25 161.5 -44t99.5 -84.5t49 -188.5q0 -381 -405 -377l57 252q13 -2 37 -2q36 0 61 26.5t25 65.5q0 37 -26.5 60t-112.5 30q-146 14 -226 135.5t-80 292.5q0 371 410 803h-321z" />
    <glyph glyph-name="eta" unicode="&#x3b7;" horiz-adv-x="1026" 
d="M332 1061v-156q114 182 286 182q109 0 201 -79t92 -349v-1062h-231v946q0 215 -36.5 272t-104.5 57q-67 0 -115.5 -47t-62 -120t-13.5 -222v-483h-231v1061h215z" />
    <glyph glyph-name="theta" unicode="&#x3b8;" horiz-adv-x="907" 
d="M63 735q0 756 392 756q389 0 389 -758t-389 -758q-392 0 -392 760zM301 850h305q-6 225 -40 318.5t-111 93.5q-79 0 -113.5 -94.5t-40.5 -317.5zM606 616h-305q6 -222 40.5 -316.5t113.5 -94.5q78 0 111.5 92t39.5 319z" />
    <glyph glyph-name="iota" unicode="&#x3b9;" horiz-adv-x="467" 
d="M121 0v1062h231v-1062h-231z" />
    <glyph glyph-name="kappa" unicode="&#x3ba;" horiz-adv-x="936" 
d="M117 0v1061h231v-367l268 367h281l-350 -449l377 -612h-269l-256 424l-51 -68v-356h-231z" />
    <glyph glyph-name="lambda" unicode="&#x3bb;" 
d="M446 1466l472 -1466h-238l-152 483q-26 82 -65 240q-23 -95 -66 -236l-147 -487h-238l334 1061l-127 405h227z" />
    <glyph glyph-name="mu" unicode="&#x3bc;" horiz-adv-x="1026" 
d="M692 0v129q-68 -154 -176 -154q-113 0 -172 154v-532h-231v1464h231v-479q0 -209 40.5 -296t131.5 -87q73 0 115.5 68.5t42.5 185.5v608h231v-1061h-213z" />
    <glyph glyph-name="nu" unicode="&#x3bd;" 
d="M360 0l-351 1062h242l164 -542l47 -181l49 181l166 542h236l-346 -1062h-207z" />
    <glyph glyph-name="xi" unicode="&#x3be;" horiz-adv-x="748" 
d="M602 1016h43v-230q-152 0 -248 -96.5t-96 -216.5q0 -103 40 -144.5t127 -76.5t140 -65.5t96.5 -93.5t43.5 -163q0 -148 -99.5 -253.5t-318.5 -106.5l53 252q127 4 127 94q0 26 -18 46.5t-101 45.5q-211 66 -269.5 177.5t-58.5 234.5q0 268 259 442q-220 80 -220 309
q0 146 96.5 233t260.5 87h196v-246q-79 6 -98 6q-217 0 -217 -125q0 -75 58 -92.5t204 -17.5z" />
    <glyph glyph-name="omicron" unicode="&#x3bf;" horiz-adv-x="1026" 
d="M67 546q0 156 62 284t162 192t225 64q210 0 330 -164.5t120 -384.5q0 -164 -62.5 -296t-164 -198.5t-222.5 -66.5q-194 0 -322 148t-128 422zM303 531q0 -161 63 -243.5t152 -82.5q87 0 149 83t62 245q0 158 -63 241t-151 83q-87 0 -149.5 -83t-62.5 -243z" />
    <glyph glyph-name="rho" unicode="&#x3c1;" horiz-adv-x="1038" 
d="M96 -403v868q0 622 428 622q192 0 321.5 -161t129.5 -406q0 -231 -122 -388t-294 -157q-121 0 -231 91v-469h-232zM535 858q-95 0 -152 -87t-57 -239q0 -158 54 -242.5t150 -84.5q92 0 149.5 89t57.5 238q0 155 -53.5 240.5t-148.5 85.5z" />
    <glyph glyph-name="sigma1" unicode="&#x3c2;" horiz-adv-x="872" 
d="M309 -418l47 244q76 -25 119 -25q52 0 86.5 29t34.5 76q0 55 -47 82.5t-135 48.5q-159 38 -255 162t-96 290q0 243 155 422t390 179q124 0 236 -52l-47 -235q-88 35 -172 35q-148 0 -249.5 -102t-101.5 -234q0 -100 55 -151.5t210 -102t218.5 -138.5t63.5 -202
q0 -155 -96.5 -245.5t-253.5 -90.5q-76 0 -162 10z" />
    <glyph glyph-name="upsilon" unicode="&#x3c5;" horiz-adv-x="977" 
d="M96 539v522h232v-565q0 -291 159 -291q162 0 162 291v565h232v-522q0 -564 -394 -564q-391 0 -391 564z" />
    <glyph glyph-name="chi" unicode="&#x3c7;" horiz-adv-x="967" 
d="M348 336l-313 725h254l192 -490l211 490h242l-313 -725l335 -739h-264l-211 503l-217 -503h-250z" />
    <glyph glyph-name="psi" unicode="&#x3c8;" horiz-adv-x="1266" 
d="M96 512v549h232v-551q0 -165 46 -233.5t142 -77.5v862h232v-862q97 10 143.5 78.5t46.5 232.5v551h231v-549q0 -269 -103 -396t-318 -147v-372h-232v372q-215 20 -317.5 145t-102.5 398z" />
    <glyph glyph-name="omega" unicode="&#x3c9;" horiz-adv-x="1419" 
d="M594 442v349h231v-349q0 -243 131 -243q162 0 162 315q0 276 -106 547h219q125 -279 125 -551q0 -240 -104 -387.5t-267 -147.5q-199 0 -276 224q-78 -224 -277 -224q-162 0 -265.5 147.5t-103.5 387.5q0 278 125 551h220q-107 -276 -107 -547q0 -315 160 -315
q133 0 133 243z" />
    <glyph glyph-name="iotadieresis" unicode="&#x3ca;" horiz-adv-x="467" 
d="M121 0v1062h231v-1062h-231zM-38 1250v241h198v-241h-198zM315 1250v241h198v-241h-198z" />
    <glyph glyph-name="upsilondieresis" unicode="&#x3cb;" horiz-adv-x="977" 
d="M96 539v522h232v-565q0 -291 159 -291q162 0 162 291v565h232v-522q0 -564 -394 -564q-391 0 -391 564zM213 1250v241h198v-241h-198zM566 1250v241h198v-241h-198z" />
    <glyph glyph-name="omicrontonos" unicode="&#x3cc;" horiz-adv-x="1026" 
d="M67 546q0 156 62 284t162 192t225 64q210 0 330 -164.5t120 -384.5q0 -164 -62.5 -296t-164 -198.5t-222.5 -66.5q-194 0 -322 148t-128 422zM303 531q0 -161 63 -243.5t152 -82.5q87 0 149 83t62 245q0 158 -63 241t-151 83q-87 0 -149.5 -83t-62.5 -243zM356 1192
l113 299h259l-226 -299h-146z" />
    <glyph glyph-name="upsilontonos" unicode="&#x3cd;" horiz-adv-x="977" 
d="M96 539v522h232v-565q0 -291 159 -291q162 0 162 291v565h232v-522q0 -564 -394 -564q-391 0 -391 564zM339 1192l113 299h259l-226 -299h-146z" />
    <glyph glyph-name="omegatonos" unicode="&#x3ce;" horiz-adv-x="1419" 
d="M594 442v349h231v-349q0 -243 131 -243q162 0 162 315q0 276 -106 547h219q125 -279 125 -551q0 -240 -104 -387.5t-267 -147.5q-199 0 -276 224q-78 -224 -277 -224q-162 0 -265.5 147.5t-103.5 387.5q0 278 125 551h220q-107 -276 -107 -547q0 -315 160 -315
q133 0 133 243zM543 1192l113 299h259l-226 -299h-146z" />
    <glyph glyph-name="afii10023" unicode="&#x401;" horiz-adv-x="1120" 
d="M123 0v1466h892v-248h-650v-325h604v-247h-604v-399h672v-247h-914zM292 1622v241h198v-241h-198zM645 1622v241h198v-241h-198z" />
    <glyph glyph-name="afii10051" unicode="&#x402;" horiz-adv-x="1487" 
d="M395 0v1219h-356v247h954v-247h-356v-330q188 100 338 100q202 0 324 -137.5t122 -364.5q0 -224 -114.5 -360.5t-286.5 -136.5q-81 0 -160 28l37 246q59 -33 104 -33q79 0 134 68t55 168q0 111 -64.5 182.5t-171.5 71.5q-138 0 -317 -117v-604h-242z" />
    <glyph glyph-name="afii10052" unicode="&#x403;" horiz-adv-x="1010" 
d="M127 0v1454h846v-248h-604v-1206h-242zM431 1565l113 299h259l-226 -299h-146z" />
    <glyph glyph-name="afii10053" unicode="&#x404;" horiz-adv-x="1194" 
d="M330 856h375v-248h-375q18 -187 91 -284t187 -97q108 0 181 81t90 231l243 -93q-96 -471 -501 -471q-269 0 -409 218t-140 532q0 354 151 560t406 206q192 0 321 -111t170 -319l-241 -66q-63 244 -256 244q-119 0 -197 -99.5t-96 -283.5z" />
    <glyph glyph-name="afii10054" unicode="&#x405;" horiz-adv-x="1120" 
d="M61 477l237 28q40 -281 262 -281q110 0 173 57.5t63 142.5q0 50 -22 85t-67 57.5t-218 75.5q-155 47 -227 102t-114.5 144.5t-42.5 192.5q0 120 54.5 216t150.5 145t237 49q212 0 331 -115t126 -329l-243 -13q-16 118 -69 165t-151 47t-151 -41t-53 -102q0 -60 48 -101
t221 -90q183 -53 264.5 -111.5t124.5 -151t43 -224.5q0 -191 -117.5 -321t-367.5 -130q-442 0 -492 503z" />
    <glyph glyph-name="afii10055" unicode="&#x406;" horiz-adv-x="467" 
d="M115 0v1466h242v-1466h-242z" />
    <glyph glyph-name="afii10056" unicode="&#x407;" horiz-adv-x="467" 
d="M115 0v1466h242v-1466h-242zM-39 1621v241h198v-241h-198zM314 1621v241h198v-241h-198z" />
    <glyph glyph-name="afii10057" unicode="&#x408;" 
d="M556 1466h243v-928q0 -225 -45 -335t-134.5 -169t-220.5 -59q-173 0 -271 119t-99 359l229 32q4 -129 33 -183q39 -74 117 -74q76 0 112 53.5t36 237.5v947z" />
    <glyph glyph-name="afii10058" unicode="&#x409;" horiz-adv-x="1837" 
d="M758 0v1219h-334v-762q0 -173 -23 -265.5t-88.5 -146t-162.5 -53.5q-42 0 -127 8v246q73 -13 90 -13q40 0 54.5 28.5t14.5 121.5v1083h817v-583h344q192 0 304 -123.5t112 -325.5q0 -173 -94 -303.5t-322 -130.5h-585zM999 635v-387h256q100 0 144.5 13t77 63t32.5 116
q0 195 -245 195h-265z" />
    <glyph glyph-name="afii10059" unicode="&#x40a;" horiz-adv-x="1786" 
d="M942 1466v-577h342q193 0 305.5 -124t112.5 -329q0 -171 -92 -303.5t-324 -132.5h-586v641h-329v-641h-242v1466h242v-577h329v577h242zM942 641v-393h254q100 0 144.5 13.5t78 64t33.5 116.5q0 199 -246 199h-264z" />
    <glyph glyph-name="afii10060" unicode="&#x40b;" horiz-adv-x="1468" 
d="M45 1219v247h954v-247h-356v-301q163 73 297 73q103 0 187 -40.5t139.5 -114t69.5 -151t14 -212.5v-473h-242v399q0 214 -59.5 277t-163.5 63q-125 0 -242 -75v-664h-242v1219h-356z" />
    <glyph glyph-name="afii10061" unicode="&#x40c;" horiz-adv-x="1026" 
d="M127 0v1466h242v-624q81 10 112 54.5t82 214.5t106 247.5t117 94.5t213 24v-220h-34q-103 0 -139.5 -47.5t-75 -183.5t-66 -181t-88.5 -89q80 -33 130.5 -107t121.5 -248l164 -401h-285l-145 379q-55 145 -94.5 202.5t-118.5 59.5v-641h-242zM400 1564l113 299h259
l-226 -299h-146z" />
    <glyph glyph-name="afii10062" unicode="&#x40e;" horiz-adv-x="1044" 
d="M442 414l-442 1052h272l279 -761l242 761h251l-405 -1114q-75 -204 -145 -287t-168 -83q-94 0 -168 18v219q60 -4 91 -4q88 0 123.5 37t69.5 162zM672 1855h112q-9 -140 -79.5 -215.5t-175.5 -75.5t-175.5 75.5t-80.5 215.5h112q13 -144 144 -144t143 144z" />
    <glyph glyph-name="afii10145" unicode="&#x40f;" horiz-adv-x="1208" 
d="M1081 0h-379v-403h-198v403h-379v1466h242v-1218h473v1218h241v-1466z" />
    <glyph glyph-name="afii10017" unicode="&#x410;" horiz-adv-x="1212" 
d="M1206 0h-264l-105 333h-480l-99 -333h-258l468 1466h257zM759 580l-165 544l-163 -544h328z" />
    <glyph glyph-name="afii10018" unicode="&#x411;" horiz-adv-x="1208" 
d="M127 0v1466h899v-247h-657v-336h344q195 0 306 -121.5t111 -321.5q0 -174 -94.5 -307t-322.5 -133h-586zM369 635v-387h256q100 0 144.5 13.5t78 62.5t33.5 114q0 197 -246 197h-266z" />
    <glyph glyph-name="afii10019" unicode="&#x412;" horiz-adv-x="1212" 
d="M122 1466h481q197 0 277 -36t135 -127t55 -206q0 -106 -47 -191.5t-122 -126.5q107 -38 167.5 -130t60.5 -224q0 -160 -77 -270.5t-182 -136.5q-73 -18 -339 -18h-409v1466zM364 1222v-339h160q144 0 178 5q62 10 97 52.5t35 115.5q0 65 -28.5 105.5t-69 50.5t-232.5 10
h-140zM364 639v-392h225q148 0 190 15.5t70.5 61t28.5 115.5q0 72 -30.5 118.5t-81 64t-206.5 17.5h-196z" />
    <glyph glyph-name="afii10020" unicode="&#x413;" horiz-adv-x="1010" 
d="M127 0v1454h846v-248h-604v-1206h-242z" />
    <glyph glyph-name="afii10021" unicode="&#x414;" horiz-adv-x="1196" 
d="M1049 248h104v-567h-199v319h-759v-319h-199v567h100q59 154 91 372t32 650v196h830v-1218zM807 1219h-358q0 -649 -99 -971h457v971z" />
    <glyph glyph-name="afii10022" unicode="&#x415;" horiz-adv-x="1120" 
d="M123 0v1466h892v-248h-650v-325h604v-247h-604v-399h672v-247h-914z" />
    <glyph glyph-name="afii10024" unicode="&#x416;" horiz-adv-x="1518" 
d="M643 1466h231v-624q66 7 97 58.5t92 248.5t136 262t288 66v-220h-35q-103 0 -139 -47.5t-78.5 -195.5t-73.5 -187.5t-78 -70.5q69 -28 122 -96.5t130 -258.5l164 -401h-285l-145 379q-49 128 -91 197t-104 65v-641h-231v641q-55 2 -95.5 -53.5t-98.5 -208.5l-146 -379
h-285l164 401q72 174 122.5 248t129.5 107q-61 44 -87.5 87t-68 186t-81 188.5t-166.5 39.5v220q212 2 287.5 -66.5t136.5 -263.5t92 -247t96 -58v624z" />
    <glyph glyph-name="afii10025" unicode="&#x417;" horiz-adv-x="1051" 
d="M471 616h-53v222q254 -13 254 223q0 86 -49.5 137t-135.5 51q-148 0 -192 -184l-236 68q73 358 433 358q194 0 312 -106.5t118 -274.5q0 -209 -199 -336q240 -105 240 -368q0 -201 -121.5 -316t-343.5 -115q-188 0 -295 75t-166 288l223 90q33 -126 86 -168.5t146 -42.5
q101 0 161 54.5t60 144.5q0 94 -63.5 147t-178.5 53z" />
    <glyph glyph-name="afii10026" unicode="&#x418;" horiz-adv-x="1208" 
d="M123 0v1466h231v-977l486 977h243v-1466h-231v956l-485 -956h-244z" />
    <glyph glyph-name="afii10027" unicode="&#x419;" horiz-adv-x="1208" 
d="M123 0v1466h231v-977l486 977h243v-1466h-231v956l-485 -956h-244zM752 1855h112q-9 -140 -79.5 -215.5t-175.5 -75.5t-175.5 75.5t-80.5 215.5h112q13 -144 144 -144t143 144z" />
    <glyph glyph-name="afii10028" unicode="&#x41a;" horiz-adv-x="1026" 
d="M127 0v1466h242v-624q81 10 112 54.5t82 214.5t106 247.5t117 94.5t213 24v-220h-34q-103 0 -139.5 -47.5t-75 -183.5t-66 -181t-88.5 -89q80 -33 130.5 -107t121.5 -248l164 -401h-285l-145 379q-55 145 -94.5 202.5t-118.5 59.5v-641h-242z" />
    <glyph glyph-name="afii10029" unicode="&#x41b;" horiz-adv-x="1180" 
d="M809 0v1219h-360v-627q0 -245 -14.5 -362.5t-71 -178.5t-183.5 -61q-37 0 -153 10v231h53q78 0 102.5 25.5t24.5 126.5v1083h844v-1466h-242z" />
    <glyph glyph-name="afii10030" unicode="&#x41c;" horiz-adv-x="1399" 
d="M119 0v1466h363l218 -1000l216 1000h364v-1466h-225v1154l-239 -1154h-234l-237 1154v-1154h-226z" />
    <glyph glyph-name="afii10031" unicode="&#x41d;" horiz-adv-x="1212" 
d="M123 0v1466h242v-577h476v577h243v-1466h-243v641h-476v-641h-242z" />
    <glyph glyph-name="afii10032" unicode="&#x41e;" horiz-adv-x="1307" 
d="M74 724q0 262 77.5 431.5t202.5 252.5t303 83q258 0 420.5 -197t162.5 -561q0 -368 -172 -575q-151 -183 -410 -183q-261 0 -412 181q-172 207 -172 568zM324 734q0 -253 96 -379.5t238 -126.5q143 0 237 125.5t94 385.5q0 255 -91.5 377t-239.5 122t-241 -123t-93 -381z
" />
    <glyph glyph-name="afii10033" unicode="&#x41f;" horiz-adv-x="1212" 
d="M367 0h-242v1466h960v-1466h-241v1219h-477v-1219z" />
    <glyph glyph-name="afii10034" unicode="&#x420;" horiz-adv-x="1120" 
d="M122 0v1466h390q218 0 285 -21q107 -34 176.5 -145t69.5 -286q0 -159 -60 -266.5t-150 -151t-310 -43.5h-159v-553h-242zM364 1218v-416h134q135 0 183.5 19t79.5 68.5t31 121.5q0 73 -32 123t-79 67t-199 17h-118z" />
    <glyph glyph-name="afii10035" unicode="&#x421;" horiz-adv-x="1212" 
d="M892 539l235 -91q-55 -246 -183 -359.5t-315 -113.5q-235 0 -381 181q-168 209 -168 564q0 375 169 587q147 184 395 184q202 0 338 -138q97 -98 142 -291l-240 -70q-23 119 -91.5 182.5t-161.5 63.5q-133 0 -217 -116t-84 -383q0 -277 82 -394t213 -117q96 0 166 74.5
t101 236.5z" />
    <glyph glyph-name="afii10036" unicode="&#x422;" horiz-adv-x="1026" 
d="M393 0v1218h-357v248h955v-248h-356v-1218h-242z" />
    <glyph glyph-name="afii10037" unicode="&#x423;" horiz-adv-x="1044" 
d="M442 414l-442 1052h272l279 -761l242 761h251l-405 -1114q-75 -204 -145 -287t-168 -83q-94 0 -168 18v219q60 -4 91 -4q88 0 123.5 37t69.5 162z" />
    <glyph glyph-name="afii10038" unicode="&#x424;" horiz-adv-x="1432" 
d="M836 1466v-145q526 -26 526 -576q0 -549 -526 -575v-170h-242v170q-522 25 -522 575q0 551 522 576v145h242zM836 1073v-655q288 0 288 332q0 323 -288 323zM594 418v655q-285 0 -285 -330q0 -325 285 -325z" />
    <glyph glyph-name="afii10039" unicode="&#x425;" horiz-adv-x="1120" 
d="M1 0l411 765l-373 701h284l241 -471l236 471h281l-373 -712l411 -754h-293l-267 507l-267 -507h-291z" />
    <glyph glyph-name="afii10040" unicode="&#x426;" horiz-adv-x="1227" 
d="M1083 248h99v-567h-199v319h-856v1466h242v-1218h473v1218h241v-1218z" />
    <glyph glyph-name="afii10041" unicode="&#x427;" horiz-adv-x="1180" 
d="M102 942v524h242v-389q0 -122 10.5 -181.5t59 -100.5t151.5 -41q154 0 246 80v632h242v-1466h-242v590q-143 -78 -287 -78q-200 0 -311 112.5t-111 317.5z" />
    <glyph glyph-name="afii10042" unicode="&#x428;" horiz-adv-x="1688" 
d="M127 0v1466h242v-1218h350v1218h242v-1218h358v1218h242v-1466h-1434z" />
    <glyph glyph-name="afii10043" unicode="&#x429;" horiz-adv-x="1712" 
d="M1561 248h106v-567h-199v319h-1341v1466h242v-1218h350v1218h242v-1218h358v1218h242v-1218z" />
    <glyph glyph-name="afii10044" unicode="&#x42a;" horiz-adv-x="1460" 
d="M20 1219v247h603v-583h342q191 0 304 -123.5t113 -323.5q0 -165 -94 -300.5t-323 -135.5h-584v1219h-361zM623 635v-387h254q102 0 147.5 15t77 63t31.5 112q0 197 -246 197h-264z" />
    <glyph glyph-name="afii10045" unicode="&#x42b;" horiz-adv-x="1675" 
d="M127 0v1466h242v-583h344q192 0 304.5 -123.5t112.5 -325.5q0 -165 -91 -299.5t-324 -134.5h-588zM369 635v-387h256q100 0 144.5 13.5t78 63.5t33.5 115q0 195 -246 195h-266zM1323 0v1466h242v-1466h-242z" />
    <glyph glyph-name="afii10046" unicode="&#x42c;" horiz-adv-x="1208" 
d="M127 0v1466h242v-583h344q192 0 304.5 -123.5t112.5 -325.5q0 -165 -91 -299.5t-324 -134.5h-588zM369 635v-387h256q100 0 144.5 13.5t78 63.5t33.5 115q0 195 -246 195h-266z" />
    <glyph glyph-name="afii10047" unicode="&#x42d;" horiz-adv-x="1194" 
d="M489 608v248h377q-18 184 -96 283.5t-197 99.5q-194 0 -258 -244l-239 66q41 208 169.5 319t319.5 111q254 0 405.5 -206.5t151.5 -559.5q0 -341 -148.5 -545.5t-395.5 -204.5q-411 0 -506 471l243 93q18 -151 90.5 -231.5t180.5 -80.5q239 0 280 381h-377z" />
    <glyph glyph-name="afii10048" unicode="&#x42e;" horiz-adv-x="1731" 
d="M365 608v-608h-242v1466h242v-610h196q27 308 170.5 471.5t378.5 163.5q255 0 400 -200t145 -556t-144.5 -557t-394.5 -201q-154 0 -259.5 54t-193.5 212.5t-102 364.5h-196zM1100 1239q-295 0 -295 -522q0 -236 80 -367t221 -131q299 0 299 529q0 236 -81 363.5
t-224 127.5z" />
    <glyph glyph-name="afii10049" unicode="&#x42f;" horiz-adv-x="1212" 
d="M1089 0v1466h-511q-196 0 -280 -39.5t-138 -137t-54 -233.5q0 -172 82.5 -277t234.5 -132q-78 -56 -129 -122.5t-139 -238.5l-146 -286h289l176 319q95 173 129 216.5t72 60t122 16.5h50v-612h242zM847 846h-180q-165 0 -210 14.5t-73 58.5t-28 117q0 70 28 112.5
t76 58.5q34 11 197 11h190v-372z" />
    <glyph glyph-name="afii10065" unicode="&#x430;" 
d="M293 738l-209 46q38 161 125.5 231.5t251.5 70.5q146 0 223 -41t110 -111.5t33 -256.5l-2 -328q0 -138 11 -205.5t41 -143.5h-228l-30 116q-59 -70 -126.5 -105t-143.5 -35q-127 0 -208 85.5t-81 227.5q0 90 33 157t93 107t192 71q160 37 223 69q0 88 -12.5 115.5t-46 45
t-94.5 17.5q-62 0 -97.5 -28t-57.5 -105zM601 510q-44 -18 -137 -42q-107 -28 -140 -62t-33 -88q0 -61 36.5 -102.5t91.5 -41.5q49 0 97 33.5t66.5 79.5t18.5 167v56z" />
    <glyph glyph-name="afii10066" unicode="&#x431;" horiz-adv-x="1038" 
d="M600 1460h109q53 0 65 39h158q-3 -117 -44.5 -174t-88.5 -67.5t-193.5 -14.5t-188 -18t-89 -59t-70 -124t-25.5 -217q111 234 324 234q167 0 288.5 -160t121.5 -381q0 -230 -129 -385.5t-324 -155.5q-151 0 -260.5 96t-143.5 247t-34 423q0 384 114.5 550.5t409.5 166.5z
M518 836q-87 0 -146 -86t-59 -228q0 -143 57.5 -229t145.5 -86q90 0 151.5 88.5t61.5 226.5t-61.5 226t-149.5 88z" />
    <glyph glyph-name="afii10067" unicode="&#x432;" horiz-adv-x="1032" 
d="M690 0h-567v1061h520q291 0 291 -277q0 -186 -146 -241q177 -61 177 -264q0 -125 -75.5 -202t-199.5 -77zM354 883v-260h170q185 0 185 135q0 125 -185 125h-170zM354 451v-273h201q172 0 172 135q0 67 -43 102.5t-190 35.5h-140z" />
    <glyph glyph-name="afii10068" unicode="&#x433;" horiz-adv-x="700" 
d="M113 0v1061h587v-221h-356v-840h-231z" />
    <glyph glyph-name="afii10069" unicode="&#x434;" horiz-adv-x="1067" 
d="M938 233h92v-514h-186v281h-660v-281h-186v514h92q136 191 143 828h705v-828zM315 233h392v594h-277q-12 -419 -115 -594z" />
    <glyph glyph-name="afii10070" unicode="&#x435;" 
d="M626 338l229 -47q-46 -160 -143 -237.5t-236 -77.5q-193 0 -298 129q-124 150 -124 420q0 266 125 426q106 135 274 135q187 0 293 -138q122 -158 122 -466l-1 -32h-577q2 -126 56.5 -195t131.5 -69q111 0 148 152zM639 622q-3 124 -53 186.5t-119 62.5q-73 0 -123 -65
q-51 -66 -50 -184h345z" />
    <glyph glyph-name="afii10072" unicode="&#x436;" horiz-adv-x="1190" 
d="M711 0h-232v453q-72 4 -125 -146l-108 -307h-248l123 293q94 221 194 252q-53 29 -76 75t-48 137.5t-54 106.5t-108 15v182q58 8 90 8q108 0 153 -59t82.5 -186t57.5 -160t67 -35v432h232v-432q34 0 61 29t64.5 173t96 191t136.5 47q34 0 92 -8v-182h-24q-55 0 -84.5 -16
t-54 -106.5t-47.5 -136.5t-77 -75q99 -31 193 -252l125 -293h-248l-110 307q-54 150 -123 146v-453z" />
    <glyph glyph-name="afii10073" unicode="&#x437;" horiz-adv-x="836" 
d="M399 436h-43v182q162 0 162 140q0 57 -32 96t-87 39q-106 0 -147 -137l-197 51q69 278 346 278q152 0 242 -85t90 -222q0 -150 -155 -239q192 -70 192 -260q0 -132 -99.5 -218t-269.5 -86q-305 0 -381 299l211 45q52 -155 168 -155q60 0 103 39.5t43 99.5t-41 96.5
t-105 36.5z" />
    <glyph glyph-name="afii10074" unicode="&#x438;" horiz-adv-x="1032" 
d="M115 0v1061h221v-666l354 666h228v-1061h-222v680l-360 -680h-221z" />
    <glyph glyph-name="afii10075" unicode="&#x439;" horiz-adv-x="1026" 
d="M115 0v1061h221v-666l354 666h228v-1061h-222v680l-360 -680h-221zM681 1483h112q-9 -140 -79.5 -215.5t-175.5 -75.5t-175.5 75.5t-80.5 215.5h112q13 -144 144 -144t143 144z" />
    <glyph glyph-name="afii10076" unicode="&#x43a;" horiz-adv-x="840" 
d="M111 0v1061h231v-432q47 5 72 31t62 153.5t81.5 191.5t157.5 64q32 0 90 -8v-182h-25q-55 0 -84 -16t-54 -106t-48 -137t-76 -75q44 -16 88.5 -63t106.5 -189l127 -293h-246l-117 307q-35 93 -60 119.5t-75 26.5v-453h-231z" />
    <glyph glyph-name="afii10077" unicode="&#x43b;" horiz-adv-x="1067" 
d="M725 0v840h-311v-484q0 -117 -16 -191.5t-54.5 -119t-76 -54t-103.5 -9.5q-40 0 -144 18v207q28 -2 95 -2q41 0 54 28.5t13 128.5v699h774v-1061h-231z" />
    <glyph glyph-name="afii10078" unicode="&#x43c;" horiz-adv-x="1243" 
d="M127 0v1061h287l215 -739l219 739h285v-1061h-199v698l-211 -698h-197l-200 698v-698h-199z" />
    <glyph glyph-name="afii10079" unicode="&#x43d;" horiz-adv-x="1014" 
d="M111 0v1061h231v-387h330v387h231v-1061h-231v446h-330v-446h-231z" />
    <glyph glyph-name="afii10080" unicode="&#x43e;" horiz-adv-x="1026" 
d="M67 546q0 156 62 284t162 192t225 64q210 0 330 -164.5t120 -384.5q0 -164 -62.5 -296t-164 -198.5t-222.5 -66.5q-194 0 -322 148t-128 422zM303 531q0 -161 63 -243.5t152 -82.5q87 0 149 83t62 245q0 158 -63 241t-151 83q-87 0 -149.5 -83t-62.5 -243z" />
    <glyph glyph-name="afii10081" unicode="&#x43f;" horiz-adv-x="1014" 
d="M113 0v1061h774v-1061h-232v840h-311v-840h-231z" />
    <glyph glyph-name="afii10082" unicode="&#x440;" horiz-adv-x="1026" 
d="M114 1062h215v-156q44 84 116 132t155 48q149 0 256.5 -142t107.5 -403q0 -274 -108 -419.5t-257 -145.5q-69 0 -128.5 33.5t-125.5 121.5v-535h-231v1466zM342 549q0 -180 58.5 -265t141.5 -85q79 0 133 78.5t54 256.5q0 169 -55.5 249.5t-135.5 80.5q-84 0 -140 -78.5
t-56 -236.5z" />
    <glyph glyph-name="afii10083" unicode="&#x441;" 
d="M880 748l-227 -50q-25 167 -157 167q-85 0 -137 -72t-52 -243q0 -189 52 -267t139 -78q65 0 107 44.5t60 157.5l227 -47q-70 -384 -403 -384q-213 0 -316 162t-103 390q0 273 116.5 415.5t305.5 142.5q153 0 249.5 -81t138.5 -257z" />
    <glyph glyph-name="afii10084" unicode="&#x442;" horiz-adv-x="823" 
d="M18 840v221h789v-221h-279v-840h-231v840h-279z" />
    <glyph glyph-name="afii10085" unicode="&#x443;" 
d="M11 1062h246l207 -754l204 754h238l-307 -1022l-59 -199q-39 -112 -77.5 -164t-98 -80t-146.5 -28q-67 0 -131 17l-20 220q54 -13 97 -13q66 0 108.5 44t69.5 160z" />
    <glyph glyph-name="afii10086" unicode="&#x444;" horiz-adv-x="1468" 
d="M852 125v-533h-231v533q-103 -150 -228 -150q-141 0 -233 159t-92 401q0 236 103 393t228 157q133 0 222 -151v532h231v-538q88 157 229 157q136 0 228 -158.5t92 -402.5q0 -234 -100 -391.5t-236 -157.5q-121 0 -213 150zM623 539q0 154 -46.5 242.5t-109.5 88.5
q-65 0 -113.5 -94.5t-48.5 -247.5q0 -151 44.5 -244.5t113.5 -93.5t114.5 94.5t45.5 254.5zM1163 526q0 153 -44.5 248.5t-112.5 95.5q-67 0 -112.5 -97t-45.5 -255q0 -147 45 -237.5t113 -90.5q61 0 109 96t48 240z" />
    <glyph glyph-name="afii10087" unicode="&#x445;" 
d="M10 0l314 547l-301 515h282l154 -292l162 292h270l-295 -503l323 -559h-283l-177 329l-180 -329h-269z" />
    <glyph glyph-name="afii10088" unicode="&#x446;" horiz-adv-x="1032" 
d="M903 227h90v-508h-186v281h-694v1061h231v-834h328v834h231v-834z" />
    <glyph glyph-name="afii10089" unicode="&#x447;" horiz-adv-x="975" 
d="M96 786v275h232v-273q0 -213 172 -213q65 0 137 33v453h231v-1061h-231v424q-127 -43 -205 -43q-159 0 -247.5 104.5t-88.5 300.5z" />
    <glyph glyph-name="afii10090" unicode="&#x448;" horiz-adv-x="1399" 
d="M115 0v1061h231v-834h238v834h231v-834h240v834h231v-1061h-1171z" />
    <glyph glyph-name="afii10091" unicode="&#x449;" horiz-adv-x="1417" 
d="M1286 227h92v-508h-186v281h-1077v1061h231v-834h238v834h231v-834h240v834h231v-834z" />
    <glyph glyph-name="afii10092" unicode="&#x44a;" horiz-adv-x="1225" 
d="M25 840v221h524v-440h250q220 0 290 -98t70 -214q0 -309 -332 -309h-510v840h-292zM549 449v-271h235q138 0 138 135q0 70 -44 103t-159 33h-170z" />
    <glyph glyph-name="afii10093" unicode="&#x44b;" horiz-adv-x="1499" 
d="M125 0v1061h231v-440h252q227 0 293 -100.5t66 -211.5q0 -309 -330 -309h-512zM356 449v-271h234q139 0 139 135q0 70 -43 103t-160 33h-170zM1153 0v1062h231v-1062h-231z" />
    <glyph glyph-name="afii10094" unicode="&#x44c;" horiz-adv-x="1032" 
d="M125 0v1061h231v-440h252q227 0 293 -100.5t66 -211.5q0 -309 -330 -309h-512zM356 449v-271h234q139 0 139 135q0 70 -43 103t-160 33h-170z" />
    <glyph glyph-name="afii10095" unicode="&#x44d;" horiz-adv-x="928" 
d="M377 451v172h246q-20 247 -177 247q-123 0 -153 -131l-227 52q88 294 374 294q200 0 311 -143.5t111 -406.5q0 -269 -109 -413.5t-311 -144.5q-306 0 -395 336l227 52q30 -172 158 -172q162 0 184 258h-239z" />
    <glyph glyph-name="afii10096" unicode="&#x44e;" horiz-adv-x="1434" 
d="M350 412v-412h-231v1061h231v-428h182q21 215 133 333.5t285 118.5q191 0 304.5 -149.5t113.5 -411.5q0 -258 -109 -403.5t-303 -145.5q-202 0 -306 129.5t-118 307.5h-182zM1130 526q0 186 -43 265t-139 79q-97 0 -141.5 -80t-44.5 -258q0 -173 44 -253t148 -80
q176 0 176 327z" />
    <glyph glyph-name="afii10097" unicode="&#x44f;" horiz-adv-x="979" 
d="M395 1061h473v-1061h-231v442h-39q-64 0 -104 -33t-80 -112l-150 -297h-268l164 307q70 131 129 154q-102 10 -159.5 92t-57.5 207q0 154 77.5 227.5t245.5 73.5zM637 608v275h-184q-144 0 -144 -138q0 -137 160 -137h168z" />
    <glyph glyph-name="afii10071" unicode="&#x451;" 
d="M626 338l229 -47q-46 -160 -143 -237.5t-236 -77.5q-193 0 -298 129q-124 150 -124 420q0 266 125 426q106 135 274 135q187 0 293 -138q122 -158 122 -466l-1 -32h-577q2 -126 56.5 -195t131.5 -69q111 0 148 152zM639 622q-3 124 -53 186.5t-119 62.5q-73 0 -123 -65
q-51 -66 -50 -184h345zM180 1250v241h198v-241h-198zM533 1250v241h198v-241h-198z" />
    <glyph glyph-name="afii10099" unicode="&#x452;" horiz-adv-x="1026" 
d="M348 1466v-116h281v-146h-281v-278q115 160 271 160q95 0 171.5 -59t98.5 -148t22 -256v-701q0 -350 -243 -350q-79 0 -179 31l33 207q69 -23 90 -23q68 0 68 109v665q0 166 -23.5 237.5t-119.5 71.5q-98 0 -143.5 -79t-45.5 -259v-532h-231v1204h-119v146h119v116h231z
" />
    <glyph glyph-name="afii10100" unicode="&#x453;" horiz-adv-x="700" 
d="M113 0v1061h587v-221h-356v-840h-231zM285 1192l113 299h259l-226 -299h-146z" />
    <glyph glyph-name="afii10101" unicode="&#x454;" horiz-adv-x="928" 
d="M305 623h246v-172h-242q22 -258 185 -258q126 0 157 172l230 -52q-89 -336 -396 -336q-200 0 -309.5 143.5t-109.5 407.5q0 268 110.5 412.5t310.5 144.5q287 0 373 -294l-225 -52q-33 131 -154 131q-157 0 -176 -247z" />
    <glyph glyph-name="afii10102" unicode="&#x455;" 
d="M40 303l231 43q30 -167 186 -167q83 0 124 32t41 83q0 35 -18 55q-19 20 -75 35q-284 75 -361 143q-96 85 -96 233t94 237t273 89q171 0 260 -66.5t125 -214.5l-217 -49q-29 128 -164 128q-85 0 -121 -24.5t-36 -63.5q0 -35 33 -58q33 -24 205 -72q193 -54 262 -131
q68 -77 68 -205q0 -154 -105.5 -254t-291.5 -100q-169 0 -276 83.5t-141 243.5z" />
    <glyph glyph-name="afii10103" unicode="&#x456;" horiz-adv-x="467" 
d="M121 1206v260h231v-260h-231zM121 0v1062h231v-1062h-231z" />
    <glyph glyph-name="afii10104" unicode="&#x457;" horiz-adv-x="467" 
d="M121 0v1062h231v-1062h-231zM-46 1250v241h198v-241h-198zM307 1250v241h198v-241h-198z" />
    <glyph glyph-name="afii10105" unicode="&#x458;" horiz-adv-x="467" 
d="M116 1206v260h231v-260h-231zM347 1062v-1029q0 -217 -24 -297t-86 -123.5t-153 -43.5q-69 0 -160 30l40 240q33 -9 57 -9q60 0 83 48q12 26 12 171v1013h231z" />
    <glyph glyph-name="afii10106" unicode="&#x459;" horiz-adv-x="1628" 
d="M725 0v827h-309v-489q0 -356 -234 -356q-24 0 -162 18v219q75 -8 103 -8q61 0 61 106v744h772v-440h250q223 0 291 -99t68 -213q0 -309 -330 -309h-510zM956 449v-271h234q137 0 137 135q0 70 -42 103t-159 33h-170z" />
    <glyph glyph-name="afii10107" unicode="&#x45a;" horiz-adv-x="1522" 
d="M1124 0h-512v446h-266v-446h-231v1061h231v-387h266v387h232v-387h252q191 0 274.5 -82t83.5 -258q0 -334 -330 -334zM844 446v-268h233q140 0 140 135q0 69 -43 101t-160 32h-170z" />
    <glyph glyph-name="afii10108" unicode="&#x45b;" horiz-adv-x="1026" 
d="M-2 1350h119v116h231v-116h281v-146h-281v-278q115 160 271 160q95 0 171.5 -59t98.5 -148t22 -256v-623h-231v561q0 166 -23.5 237.5t-119.5 71.5q-98 0 -143.5 -79t-45.5 -259v-532h-231v1204h-119v146z" />
    <glyph glyph-name="afii10109" unicode="&#x45c;" horiz-adv-x="840" 
d="M31 0v1061h231v-432q47 5 72 31t62 153.5t81.5 191.5t157.5 64q32 0 90 -8v-182h-25q-55 0 -84 -16t-54 -106t-48 -137t-76 -75q44 -16 88.5 -63t106.5 -189l127 -293h-246l-117 307q-35 93 -60 119.5t-75 26.5v-453h-231zM211 1192l113 299h259l-226 -299h-146z" />
    <glyph glyph-name="afii10110" unicode="&#x45e;" 
d="M11 1062h246l207 -754l204 754h238l-307 -1022l-59 -199q-39 -112 -77.5 -164t-98 -80t-146.5 -28q-67 0 -131 17l-20 220q54 -13 97 -13q66 0 108.5 44t69.5 160zM612 1483h112q-9 -140 -79.5 -215.5t-175.5 -75.5t-175.5 75.5t-80.5 215.5h112q13 -144 144 -144
t143 144z" />
    <glyph glyph-name="afii10193" unicode="&#x45f;" horiz-adv-x="1014" 
d="M905 0h-303v-408h-186v408h-303v1061h231v-834h330v834h231v-1061z" />
    <glyph glyph-name="afii10050" unicode="&#x490;" horiz-adv-x="928" 
d="M123 1466h600v320h199v-567h-557v-1219h-242v1466z" />
    <glyph glyph-name="afii10098" unicode="&#x491;" horiz-adv-x="700" 
d="M113 1061h401v280h186v-501h-356v-840h-231v1061z" />
    <glyph glyph-name="afii00208" unicode="&#x2015;" horiz-adv-x="1679" 
d="M1470 426h-1257v209h1257v-209z" />
    <glyph glyph-name="afii61352" unicode="&#x2116;" horiz-adv-x="1872" 
d="M133 0v1466h240l473 -968v968h231v-1466h-250l-462 942v-942h-232zM1483 383q-149 0 -239.5 113.5t-90.5 296.5q0 186 91 297.5t233 111.5q140 0 232.5 -117t92.5 -299q0 -177 -88 -290t-231 -113zM1487 1010q-109 0 -109 -242q0 -190 99 -190q106 0 106 235
q0 197 -96 197zM1182 66v221h587v-221h-587z" />
    <glyph glyph-name="pi" unicode="&#x3c0;" horiz-adv-x="1286" 
d="M39 827v234h1206v-234h-229v-827h-232v827h-282v-827h-232v827h-231z" />
    <glyph glyph-name="foursuperior" horiz-adv-x="559" 
d="M309 727v146h-295v141l313 470h128v-466h89v-145h-89v-146h-146zM309 1018v225l-149 -225h149z" />
    <glyph glyph-name="fivesuperior" horiz-adv-x="559" 
d="M37 940l156 16q12 -102 94 -102q39 0 64.5 33.5t25.5 93.5q0 121 -96 121q-57 0 -101 -53l-127 18l74 403h377v-157h-258l-13 -86q35 14 76 14q99 0 163.5 -73.5t64.5 -182.5q0 -97 -65 -183.5t-187 -86.5q-102 0 -168.5 58t-79.5 167z" />
    <glyph glyph-name="sevensuperior" horiz-adv-x="559" 
d="M39 1315v155h483v-120q-101 -104 -169 -280.5t-68 -319.5v-23h-152q5 309 201 588h-295z" />
    <glyph glyph-name="eightsuperior" horiz-adv-x="559" 
d="M135 1133q-82 48 -82 153q0 84 57.5 141.5t163.5 57.5q95 0 160.5 -53.5t65.5 -149.5q0 -94 -80 -149q102 -48 102 -179q0 -102 -64.5 -170.5t-174.5 -68.5t-179 64t-69 169q0 124 100 185zM276 1346q-75 0 -75 -76q0 -70 75 -70q76 0 76 74q0 72 -76 72zM279 1059
q-43 0 -67 -27.5t-24 -73.5q0 -44 26 -74t65 -30q37 0 62.5 26.5t25.5 77.5q0 101 -88 101z" />
    <glyph glyph-name="currency" unicode="&#xa4;" 
d="M145 941l-108 131l136 178l112 -136q43 29 88 43t91 14q47 0 91.5 -14t87.5 -43l110 134l137 -169l-109 -133q24 -53 35.5 -107.5t11.5 -110.5q0 -55 -11.5 -109.5t-35.5 -108.5l110 -133l-136 -171l-112 136q-41 -28 -85.5 -42.5t-93.5 -14.5q-46 0 -90.5 14t-86.5 42
l-106 -131l-140 168l107 132q-23 51 -35 105.5t-12 112.5t11 111t33 102zM298 728q0 -87 50 -144.5t116 -57.5t116 57.5t50 144.5t-50 144.5t-116 57.5t-116 -57.5t-50 -144.5z" />
    <glyph glyph-name="uni0218" unicode="&#x218;" horiz-adv-x="1120" 
d="M61 477l237 28q40 -281 262 -281q110 0 173 57.5t63 142.5q0 50 -22 85t-67 57.5t-218 75.5q-155 47 -227 102t-114.5 144.5t-42.5 192.5q0 120 54.5 216t150.5 145t237 49q212 0 331 -115t126 -329l-243 -13q-16 118 -69 165t-151 47t-151 -41t-53 -102q0 -60 48 -101
t221 -90q183 -53 264.5 -111.5t124.5 -151t43 -224.5q0 -191 -117.5 -321t-367.5 -130q-442 0 -492 503zM447 -121h208v-181q0 -217 -181 -298l-41 105q91 35 115 121h-101v253z" />
    <glyph glyph-name="uni0219" unicode="&#x219;" 
d="M40 303l231 43q30 -167 186 -167q83 0 124 32t41 83q0 35 -18 55q-19 20 -75 35q-284 75 -361 143q-96 85 -96 233t94 237t273 89q171 0 260 -66.5t125 -214.5l-217 -49q-29 128 -164 128q-85 0 -121 -24.5t-36 -63.5q0 -35 33 -58q33 -24 205 -72q193 -54 262 -131
q68 -77 68 -205q0 -154 -105.5 -254t-291.5 -100q-169 0 -276 83.5t-141 243.5zM350 -121h208v-181q0 -217 -181 -298l-41 105q91 35 115 121h-101v253z" />
    <glyph glyph-name="uni021A" unicode="&#x21a;" horiz-adv-x="1026" 
d="M393 0v1218h-357v248h955v-248h-356v-1218h-242zM407 -121h208v-181q0 -217 -181 -298l-41 105q91 35 115 121h-101v253z" />
    <glyph glyph-name="uni021B" unicode="&#x21b;" horiz-adv-x="559" 
d="M519 1062v-224h-157v-428q0 -139 7 -161q14 -40 57 -40q32 0 92 27l20 -218q-80 -42 -181 -42q-88 0 -141 42t-71 121q-14 58 -14 236v463h-106v224h106v211l231 164v-375h157zM230 -121h208v-181q0 -217 -181 -298l-41 105q91 35 115 121h-101v253z" />
    <glyph glyph-name="glyph663" horiz-adv-x="467" 
d="M121 1206v260h231v-260h-231zM121 0v1062h231v-1062h-231zM121 1565l113 299h259l-226 -299h-146z" />
    </font>
</defs>
</svg>
